<ttFont>
    <TTGlyph name=".notdef" xMin="22" yMin="-1" xMax="587" yMax="720">
      <contour>
        <pt x="108" y="720" on="1"/>
        <pt x="480" y="720" on="1"/>
        <pt x="538" y="720" on="0"/>
        <pt x="576" y="679" on="0"/>
        <pt x="580" y="632" on="1"/>
        <pt x="587" y="549" on="0"/>
        <pt x="587" y="155" on="0"/>
        <pt x="577" y="68" on="1"/>
        <pt x="575" y="44" on="0"/>
        <pt x="525" y="5" on="0"/>
        <pt x="484" y="4" on="1"/>
        <pt x="374" y="-1" on="0"/>
        <pt x="231" y="-1" on="0"/>
        <pt x="105" y="4" on="1"/>
        <pt x="72" y="5" on="0"/>
        <pt x="34" y="43" on="0"/>
        <pt x="31" y="67" on="1"/>
        <pt x="22" y="155" on="0"/>
        <pt x="22" y="545" on="0"/>
        <pt x="32" y="677" on="0"/>
        <pt x="62" y="720" on="0"/>
      </contour>
      <contour>
        <pt x="89" y="522" on="0"/>
        <pt x="127" y="480" on="0"/>
        <pt x="157" y="480" on="0"/>
        <pt x="204" y="520" on="0"/>
        <pt x="232" y="520" on="1"/>
        <pt x="289" y="520" on="0"/>
        <pt x="289" y="477" on="1"/>
        <pt x="289" y="458" on="0"/>
        <pt x="252" y="430" on="0"/>
        <pt x="207" y="416" on="0"/>
        <pt x="170" y="382" on="0"/>
        <pt x="170" y="357" on="1"/>
        <pt x="170" y="349" on="0"/>
        <pt x="178" y="285" on="0"/>
        <pt x="209" y="282" on="1"/>
        <pt x="236" y="279" on="0"/>
        <pt x="295" y="279" on="0"/>
        <pt x="328" y="284" on="0"/>
        <pt x="340" y="291" on="0"/>
        <pt x="346" y="297" on="0"/>
        <pt x="349" y="312" on="0"/>
        <pt x="349" y="315" on="1"/>
        <pt x="349" y="340" on="1"/>
        <pt x="349" y="379" on="0"/>
        <pt x="434" y="412" on="1"/>
        <pt x="467" y="424" on="0"/>
        <pt x="520" y="473" on="0"/>
        <pt x="520" y="506" on="1"/>
        <pt x="520" y="575" on="0"/>
        <pt x="416" y="641" on="0"/>
        <pt x="334" y="641" on="1"/>
        <pt x="175" y="641" on="0"/>
        <pt x="105" y="571" on="1"/>
        <pt x="89" y="555" on="0"/>
      </contour>
      <contour>
        <pt x="354" y="205" on="0"/>
        <pt x="311" y="254" on="0"/>
        <pt x="222" y="254" on="0"/>
        <pt x="169" y="203" on="0"/>
        <pt x="169" y="131" on="0"/>
        <pt x="224" y="87" on="0"/>
        <pt x="302" y="87" on="0"/>
        <pt x="354" y="139" on="0"/>
      </contour>
    </TTGlyph>
    <TTGlyph name="A" xMin="35" yMin="0" xMax="1049" yMax="710">
      <contour>
        <pt x="702" y="653" on="1"/>
        <pt x="1029" y="100" on="1"/>
        <pt x="1049" y="67" on="0"/>
        <pt x="1049" y="22" on="0"/>
        <pt x="1013" y="0" on="0"/>
        <pt x="989" y="0" on="1"/>
        <pt x="667" y="0" on="1"/>
        <pt x="618" y="0" on="0"/>
        <pt x="604" y="18" on="1"/>
        <pt x="600" y="24" on="0"/>
        <pt x="593" y="39" on="1"/>
        <pt x="564" y="101" on="1"/>
        <pt x="551" y="130" on="0"/>
        <pt x="503" y="134" on="1"/>
        <pt x="314" y="134" on="1"/>
        <pt x="293" y="134" on="0"/>
        <pt x="271" y="126" on="0"/>
        <pt x="264" y="112" on="1"/>
        <pt x="225" y="31" on="1"/>
        <pt x="215" y="13" on="0"/>
        <pt x="191" y="0" on="0"/>
        <pt x="168" y="0" on="1"/>
        <pt x="78" y="0" on="1"/>
        <pt x="39" y="0" on="0"/>
        <pt x="36" y="28" on="1"/>
        <pt x="35" y="32" on="0"/>
        <pt x="35" y="36" on="1"/>
        <pt x="35" y="59" on="0"/>
        <pt x="50" y="80" on="1"/>
        <pt x="363" y="632" on="1"/>
        <pt x="408" y="710" on="0"/>
        <pt x="509" y="710" on="1"/>
        <pt x="589" y="710" on="1"/>
        <pt x="669" y="710" on="0"/>
      </contour>
      <contour>
        <pt x="378" y="397" on="1"/>
        <pt x="332" y="306" on="1"/>
        <pt x="328" y="297" on="0"/>
        <pt x="328" y="290" on="1"/>
        <pt x="328" y="264" on="0"/>
        <pt x="353" y="264" on="1"/>
        <pt x="444" y="264" on="1"/>
        <pt x="465" y="264" on="0"/>
        <pt x="481" y="285" on="0"/>
        <pt x="481" y="301" on="0"/>
        <pt x="478" y="309" on="1"/>
        <pt x="440" y="395" on="1"/>
        <pt x="428" y="421" on="0"/>
        <pt x="390" y="421" on="0"/>
      </contour>
    </TTGlyph>
    <TTGlyph name="AE" xMin="35" yMin="0" xMax="1198" yMax="701">
      <contour>
        <pt x="828" y="701" on="1"/>
        <pt x="1121" y="700" on="1"/>
        <pt x="1180" y="700" on="0"/>
        <pt x="1180" y="625" on="1"/>
        <pt x="1180" y="566" on="0"/>
        <pt x="1128" y="566" on="1"/>
        <pt x="908" y="566" on="1"/>
        <pt x="887" y="566" on="0"/>
        <pt x="862" y="538" on="0"/>
        <pt x="862" y="516" on="1"/>
        <pt x="862" y="444" on="1"/>
        <pt x="862" y="414" on="0"/>
        <pt x="889" y="414" on="1"/>
        <pt x="1071" y="414" on="1"/>
        <pt x="1087" y="414" on="0"/>
        <pt x="1104" y="408" on="0"/>
        <pt x="1118" y="379" on="0"/>
        <pt x="1118" y="313" on="0"/>
        <pt x="1095" y="291" on="0"/>
        <pt x="1069" y="291" on="1"/>
        <pt x="906" y="291" on="1"/>
        <pt x="881" y="291" on="0"/>
        <pt x="862" y="266" on="0"/>
        <pt x="862" y="240" on="1"/>
        <pt x="862" y="191" on="1"/>
        <pt x="862" y="148" on="0"/>
        <pt x="903" y="148" on="1"/>
        <pt x="1152" y="148" on="1"/>
        <pt x="1170" y="148" on="0"/>
        <pt x="1198" y="127" on="0"/>
        <pt x="1198" y="56" on="0"/>
        <pt x="1164" y="0" on="0"/>
        <pt x="1141" y="0" on="1"/>
        <pt x="553" y="0" on="1"/>
        <pt x="525" y="0" on="0"/>
        <pt x="486" y="37" on="0"/>
        <pt x="479" y="100" on="0"/>
        <pt x="478" y="111" on="0"/>
        <pt x="475" y="122" on="0"/>
        <pt x="459" y="134" on="0"/>
        <pt x="445" y="134" on="1"/>
        <pt x="326" y="134" on="1"/>
        <pt x="292" y="134" on="0"/>
        <pt x="278" y="112" on="1"/>
        <pt x="229" y="31" on="1"/>
        <pt x="218" y="13" on="0"/>
        <pt x="198" y="0" on="0"/>
        <pt x="176" y="0" on="1"/>
        <pt x="86" y="0" on="1"/>
        <pt x="47" y="0" on="0"/>
        <pt x="38" y="29" on="1"/>
        <pt x="35" y="39" on="0"/>
        <pt x="35" y="65" on="0"/>
        <pt x="47" y="80" on="1"/>
        <pt x="407" y="619" on="1"/>
        <pt x="460" y="697" on="0"/>
        <pt x="542" y="697" on="1"/>
      </contour>
      <contour>
        <pt x="345" y="285" on="1"/>
        <pt x="345" y="264" on="0"/>
        <pt x="372" y="264" on="1"/>
        <pt x="441" y="264" on="1"/>
        <pt x="475" y="264" on="0"/>
        <pt x="475" y="302" on="1"/>
        <pt x="474" y="393" on="1"/>
        <pt x="474" y="408" on="0"/>
        <pt x="459" y="424" on="0"/>
        <pt x="432" y="424" on="0"/>
        <pt x="418" y="404" on="1"/>
        <pt x="353" y="306" on="1"/>
        <pt x="345" y="296" on="0"/>
      </contour>
    </TTGlyph>
    <TTGlyph name="Aacute" xMin="35" yMin="0" xMax="1049" yMax="905">
      <contour>
        <pt x="702" y="653" on="1"/>
        <pt x="1029" y="100" on="1"/>
        <pt x="1049" y="67" on="0"/>
        <pt x="1049" y="22" on="0"/>
        <pt x="1013" y="0" on="0"/>
        <pt x="989" y="0" on="1"/>
        <pt x="667" y="0" on="1"/>
        <pt x="618" y="0" on="0"/>
        <pt x="604" y="18" on="1"/>
        <pt x="600" y="24" on="0"/>
        <pt x="593" y="39" on="1"/>
        <pt x="564" y="101" on="1"/>
        <pt x="551" y="130" on="0"/>
        <pt x="503" y="134" on="1"/>
        <pt x="314" y="134" on="1"/>
        <pt x="293" y="134" on="0"/>
        <pt x="271" y="126" on="0"/>
        <pt x="264" y="112" on="1"/>
        <pt x="225" y="31" on="1"/>
        <pt x="215" y="13" on="0"/>
        <pt x="191" y="0" on="0"/>
        <pt x="168" y="0" on="1"/>
        <pt x="78" y="0" on="1"/>
        <pt x="39" y="0" on="0"/>
        <pt x="36" y="28" on="1"/>
        <pt x="35" y="32" on="0"/>
        <pt x="35" y="36" on="1"/>
        <pt x="35" y="59" on="0"/>
        <pt x="50" y="80" on="1"/>
        <pt x="363" y="632" on="1"/>
        <pt x="408" y="710" on="0"/>
        <pt x="509" y="710" on="1"/>
        <pt x="589" y="710" on="1"/>
        <pt x="669" y="710" on="0"/>
      </contour>
      <contour>
        <pt x="378" y="397" on="1"/>
        <pt x="332" y="306" on="1"/>
        <pt x="328" y="297" on="0"/>
        <pt x="328" y="290" on="1"/>
        <pt x="328" y="264" on="0"/>
        <pt x="353" y="264" on="1"/>
        <pt x="444" y="264" on="1"/>
        <pt x="465" y="264" on="0"/>
        <pt x="481" y="285" on="0"/>
        <pt x="481" y="301" on="0"/>
        <pt x="478" y="309" on="1"/>
        <pt x="440" y="395" on="1"/>
        <pt x="428" y="421" on="0"/>
        <pt x="390" y="421" on="0"/>
      </contour>
      <contour>
        <pt x="705" y="758" on="1"/>
        <pt x="434" y="758" on="1"/>
        <pt x="409" y="758" on="0"/>
        <pt x="409" y="812" on="0"/>
        <pt x="438" y="823" on="0"/>
        <pt x="521" y="855" on="0"/>
        <pt x="548" y="865" on="1"/>
        <pt x="655" y="905" on="0"/>
        <pt x="700" y="905" on="0"/>
        <pt x="712" y="883" on="1"/>
        <pt x="752" y="802" on="0"/>
        <pt x="752" y="787" on="1"/>
        <pt x="752" y="758" on="0"/>
      </contour>
    </TTGlyph>
    <TTGlyph name="Acircumflex" xMin="35" yMin="0" xMax="1049" yMax="942">
      <contour>
        <pt x="702" y="653" on="1"/>
        <pt x="1029" y="100" on="1"/>
        <pt x="1049" y="67" on="0"/>
        <pt x="1049" y="22" on="0"/>
        <pt x="1013" y="0" on="0"/>
        <pt x="989" y="0" on="1"/>
        <pt x="667" y="0" on="1"/>
        <pt x="618" y="0" on="0"/>
        <pt x="604" y="18" on="1"/>
        <pt x="600" y="24" on="0"/>
        <pt x="593" y="39" on="1"/>
        <pt x="564" y="101" on="1"/>
        <pt x="551" y="130" on="0"/>
        <pt x="503" y="134" on="1"/>
        <pt x="314" y="134" on="1"/>
        <pt x="293" y="134" on="0"/>
        <pt x="271" y="126" on="0"/>
        <pt x="264" y="112" on="1"/>
        <pt x="225" y="31" on="1"/>
        <pt x="215" y="13" on="0"/>
        <pt x="191" y="0" on="0"/>
        <pt x="168" y="0" on="1"/>
        <pt x="78" y="0" on="1"/>
        <pt x="39" y="0" on="0"/>
        <pt x="36" y="28" on="1"/>
        <pt x="35" y="32" on="0"/>
        <pt x="35" y="36" on="1"/>
        <pt x="35" y="59" on="0"/>
        <pt x="50" y="80" on="1"/>
        <pt x="363" y="632" on="1"/>
        <pt x="408" y="710" on="0"/>
        <pt x="509" y="710" on="1"/>
        <pt x="589" y="710" on="1"/>
        <pt x="669" y="710" on="0"/>
      </contour>
      <contour>
        <pt x="378" y="397" on="1"/>
        <pt x="332" y="306" on="1"/>
        <pt x="328" y="297" on="0"/>
        <pt x="328" y="290" on="1"/>
        <pt x="328" y="264" on="0"/>
        <pt x="353" y="264" on="1"/>
        <pt x="444" y="264" on="1"/>
        <pt x="465" y="264" on="0"/>
        <pt x="481" y="285" on="0"/>
        <pt x="481" y="301" on="0"/>
        <pt x="478" y="309" on="1"/>
        <pt x="440" y="395" on="1"/>
        <pt x="428" y="421" on="0"/>
        <pt x="390" y="421" on="0"/>
      </contour>
      <contour>
        <pt x="509" y="942" on="1"/>
        <pt x="575" y="942" on="1"/>
        <pt x="595" y="942" on="0"/>
        <pt x="630" y="912" on="1"/>
        <pt x="747" y="810" on="1"/>
        <pt x="752" y="802" on="0"/>
        <pt x="752" y="794" on="1"/>
        <pt x="752" y="764" on="0"/>
        <pt x="729" y="737" on="0"/>
        <pt x="712" y="737" on="0"/>
        <pt x="706" y="740" on="1"/>
        <pt x="542" y="814" on="1"/>
        <pt x="378" y="740" on="1"/>
        <pt x="372" y="737" on="0"/>
        <pt x="355" y="737" on="0"/>
        <pt x="333" y="763" on="0"/>
        <pt x="332" y="785" on="0"/>
        <pt x="332" y="802" on="0"/>
        <pt x="337" y="810" on="1"/>
        <pt x="454" y="912" on="1"/>
        <pt x="489" y="942" on="0"/>
      </contour>
    </TTGlyph>
    <TTGlyph name="Adieresis" xMin="35" yMin="0" xMax="1049" yMax="917">
      <contour>
        <pt x="702" y="653" on="1"/>
        <pt x="1029" y="100" on="1"/>
        <pt x="1049" y="67" on="0"/>
        <pt x="1049" y="22" on="0"/>
        <pt x="1013" y="0" on="0"/>
        <pt x="989" y="0" on="1"/>
        <pt x="667" y="0" on="1"/>
        <pt x="618" y="0" on="0"/>
        <pt x="604" y="18" on="1"/>
        <pt x="600" y="24" on="0"/>
        <pt x="593" y="39" on="1"/>
        <pt x="564" y="101" on="1"/>
        <pt x="551" y="130" on="0"/>
        <pt x="503" y="134" on="1"/>
        <pt x="314" y="134" on="1"/>
        <pt x="293" y="134" on="0"/>
        <pt x="271" y="126" on="0"/>
        <pt x="264" y="112" on="1"/>
        <pt x="225" y="31" on="1"/>
        <pt x="215" y="13" on="0"/>
        <pt x="191" y="0" on="0"/>
        <pt x="168" y="0" on="1"/>
        <pt x="78" y="0" on="1"/>
        <pt x="39" y="0" on="0"/>
        <pt x="36" y="28" on="1"/>
        <pt x="35" y="32" on="0"/>
        <pt x="35" y="36" on="1"/>
        <pt x="35" y="59" on="0"/>
        <pt x="50" y="80" on="1"/>
        <pt x="363" y="632" on="1"/>
        <pt x="408" y="710" on="0"/>
        <pt x="509" y="710" on="1"/>
        <pt x="589" y="710" on="1"/>
        <pt x="669" y="710" on="0"/>
      </contour>
      <contour>
        <pt x="378" y="397" on="1"/>
        <pt x="332" y="306" on="1"/>
        <pt x="325" y="290" on="0"/>
        <pt x="337" y="264" on="0"/>
        <pt x="353" y="264" on="1"/>
        <pt x="444" y="264" on="1"/>
        <pt x="465" y="264" on="0"/>
        <pt x="481" y="285" on="0"/>
        <pt x="481" y="301" on="0"/>
        <pt x="478" y="309" on="1"/>
        <pt x="440" y="395" on="1"/>
        <pt x="428" y="421" on="0"/>
        <pt x="390" y="421" on="0"/>
      </contour>
      <contour>
        <pt x="310" y="864" on="0"/>
        <pt x="368" y="917" on="0"/>
        <pt x="463" y="917" on="0"/>
        <pt x="509" y="866" on="0"/>
        <pt x="509" y="798" on="0"/>
        <pt x="453" y="743" on="0"/>
        <pt x="369" y="743" on="0"/>
        <pt x="310" y="789" on="0"/>
      </contour>
      <contour>
        <pt x="576" y="864" on="0"/>
        <pt x="634" y="917" on="0"/>
        <pt x="729" y="917" on="0"/>
        <pt x="775" y="866" on="0"/>
        <pt x="775" y="798" on="0"/>
        <pt x="719" y="743" on="0"/>
        <pt x="635" y="743" on="0"/>
        <pt x="576" y="789" on="0"/>
      </contour>
    </TTGlyph>
    <TTGlyph name="Agrave" xMin="35" yMin="0" xMax="1049" yMax="905">
      <contour>
        <pt x="702" y="653" on="1"/>
        <pt x="1029" y="100" on="1"/>
        <pt x="1049" y="67" on="0"/>
        <pt x="1049" y="22" on="0"/>
        <pt x="1013" y="0" on="0"/>
        <pt x="989" y="0" on="1"/>
        <pt x="667" y="0" on="1"/>
        <pt x="618" y="0" on="0"/>
        <pt x="604" y="18" on="1"/>
        <pt x="600" y="24" on="0"/>
        <pt x="593" y="39" on="1"/>
        <pt x="564" y="101" on="1"/>
        <pt x="551" y="130" on="0"/>
        <pt x="503" y="134" on="1"/>
        <pt x="314" y="134" on="1"/>
        <pt x="293" y="134" on="0"/>
        <pt x="271" y="126" on="0"/>
        <pt x="264" y="112" on="1"/>
        <pt x="225" y="31" on="1"/>
        <pt x="215" y="13" on="0"/>
        <pt x="191" y="0" on="0"/>
        <pt x="168" y="0" on="1"/>
        <pt x="78" y="0" on="1"/>
        <pt x="39" y="0" on="0"/>
        <pt x="36" y="28" on="1"/>
        <pt x="35" y="32" on="0"/>
        <pt x="35" y="36" on="1"/>
        <pt x="35" y="59" on="0"/>
        <pt x="50" y="80" on="1"/>
        <pt x="363" y="632" on="1"/>
        <pt x="408" y="710" on="0"/>
        <pt x="509" y="710" on="1"/>
        <pt x="589" y="710" on="1"/>
        <pt x="669" y="710" on="0"/>
      </contour>
      <contour>
        <pt x="378" y="397" on="1"/>
        <pt x="332" y="306" on="1"/>
        <pt x="328" y="297" on="0"/>
        <pt x="328" y="290" on="1"/>
        <pt x="328" y="264" on="0"/>
        <pt x="353" y="264" on="1"/>
        <pt x="444" y="264" on="1"/>
        <pt x="465" y="264" on="0"/>
        <pt x="481" y="285" on="0"/>
        <pt x="481" y="301" on="0"/>
        <pt x="478" y="309" on="1"/>
        <pt x="440" y="395" on="1"/>
        <pt x="428" y="421" on="0"/>
        <pt x="390" y="421" on="0"/>
      </contour>
      <contour>
        <pt x="689" y="758" on="1"/>
        <pt x="418" y="758" on="1"/>
        <pt x="371" y="758" on="0"/>
        <pt x="371" y="787" on="1"/>
        <pt x="371" y="802" on="0"/>
        <pt x="411" y="883" on="1"/>
        <pt x="423" y="905" on="0"/>
        <pt x="444" y="905" on="1"/>
        <pt x="468" y="905" on="0"/>
        <pt x="602" y="855" on="0"/>
        <pt x="685" y="823" on="0"/>
        <pt x="714" y="812" on="0"/>
        <pt x="714" y="758" on="0"/>
      </contour>
    </TTGlyph>
    <TTGlyph name="Aring" xMin="35" yMin="0" xMax="1049" yMax="992">
      <contour>
        <pt x="702" y="653" on="1"/>
        <pt x="1029" y="100" on="1"/>
        <pt x="1049" y="67" on="0"/>
        <pt x="1049" y="22" on="0"/>
        <pt x="1013" y="0" on="0"/>
        <pt x="989" y="0" on="1"/>
        <pt x="667" y="0" on="1"/>
        <pt x="618" y="0" on="0"/>
        <pt x="604" y="18" on="1"/>
        <pt x="600" y="24" on="0"/>
        <pt x="593" y="39" on="1"/>
        <pt x="564" y="101" on="1"/>
        <pt x="551" y="130" on="0"/>
        <pt x="503" y="134" on="1"/>
        <pt x="314" y="134" on="1"/>
        <pt x="293" y="134" on="0"/>
        <pt x="271" y="126" on="0"/>
        <pt x="264" y="112" on="1"/>
        <pt x="225" y="31" on="1"/>
        <pt x="215" y="13" on="0"/>
        <pt x="191" y="0" on="0"/>
        <pt x="168" y="0" on="1"/>
        <pt x="78" y="0" on="1"/>
        <pt x="39" y="0" on="0"/>
        <pt x="36" y="28" on="1"/>
        <pt x="35" y="32" on="0"/>
        <pt x="35" y="36" on="1"/>
        <pt x="35" y="59" on="0"/>
        <pt x="50" y="80" on="1"/>
        <pt x="363" y="632" on="1"/>
        <pt x="408" y="710" on="0"/>
        <pt x="509" y="710" on="1"/>
        <pt x="589" y="710" on="1"/>
        <pt x="669" y="710" on="0"/>
      </contour>
      <contour>
        <pt x="378" y="397" on="1"/>
        <pt x="332" y="306" on="1"/>
        <pt x="328" y="297" on="0"/>
        <pt x="328" y="290" on="1"/>
        <pt x="328" y="264" on="0"/>
        <pt x="353" y="264" on="1"/>
        <pt x="444" y="264" on="1"/>
        <pt x="465" y="264" on="0"/>
        <pt x="481" y="285" on="0"/>
        <pt x="481" y="301" on="0"/>
        <pt x="478" y="309" on="1"/>
        <pt x="440" y="395" on="1"/>
        <pt x="428" y="421" on="0"/>
        <pt x="390" y="421" on="0"/>
      </contour>
      <contour>
        <pt x="558" y="893" on="0"/>
        <pt x="522" y="893" on="0"/>
        <pt x="503" y="871" on="0"/>
        <pt x="503" y="841" on="0"/>
        <pt x="522" y="819" on="0"/>
        <pt x="557" y="819" on="0"/>
        <pt x="578" y="843" on="0"/>
        <pt x="578" y="873" on="0"/>
      </contour>
      <contour>
        <pt x="678" y="815" on="0"/>
        <pt x="603" y="728" on="0"/>
        <pt x="472" y="728" on="0"/>
        <pt x="401" y="813" on="0"/>
        <pt x="402" y="912" on="0"/>
        <pt x="474" y="992" on="0"/>
        <pt x="603" y="992" on="0"/>
        <pt x="677" y="916" on="0"/>
      </contour>
    </TTGlyph>
    <TTGlyph name="Atilde" xMin="35" yMin="0" xMax="1049" yMax="988">
      <contour>
        <pt x="702" y="653" on="1"/>
        <pt x="1029" y="100" on="1"/>
        <pt x="1049" y="67" on="0"/>
        <pt x="1049" y="22" on="0"/>
        <pt x="1013" y="0" on="0"/>
        <pt x="989" y="0" on="1"/>
        <pt x="667" y="0" on="1"/>
        <pt x="618" y="0" on="0"/>
        <pt x="604" y="18" on="1"/>
        <pt x="600" y="24" on="0"/>
        <pt x="593" y="39" on="1"/>
        <pt x="564" y="101" on="1"/>
        <pt x="551" y="130" on="0"/>
        <pt x="503" y="134" on="1"/>
        <pt x="314" y="134" on="1"/>
        <pt x="293" y="134" on="0"/>
        <pt x="271" y="126" on="0"/>
        <pt x="264" y="112" on="1"/>
        <pt x="225" y="31" on="1"/>
        <pt x="215" y="13" on="0"/>
        <pt x="191" y="0" on="0"/>
        <pt x="168" y="0" on="1"/>
        <pt x="78" y="0" on="1"/>
        <pt x="39" y="0" on="0"/>
        <pt x="36" y="28" on="1"/>
        <pt x="35" y="32" on="0"/>
        <pt x="35" y="36" on="1"/>
        <pt x="35" y="59" on="0"/>
        <pt x="50" y="80" on="1"/>
        <pt x="363" y="632" on="1"/>
        <pt x="408" y="710" on="0"/>
        <pt x="509" y="710" on="1"/>
        <pt x="589" y="710" on="1"/>
        <pt x="669" y="710" on="0"/>
      </contour>
      <contour>
        <pt x="378" y="397" on="1"/>
        <pt x="332" y="306" on="1"/>
        <pt x="325" y="290" on="0"/>
        <pt x="337" y="264" on="0"/>
        <pt x="353" y="264" on="1"/>
        <pt x="444" y="264" on="1"/>
        <pt x="465" y="264" on="0"/>
        <pt x="481" y="285" on="0"/>
        <pt x="481" y="301" on="0"/>
        <pt x="478" y="309" on="1"/>
        <pt x="440" y="395" on="1"/>
        <pt x="428" y="421" on="0"/>
        <pt x="390" y="421" on="0"/>
      </contour>
      <contour>
        <pt x="620" y="745" on="1"/>
        <pt x="575" y="745" on="0"/>
        <pt x="457" y="816" on="0"/>
        <pt x="406" y="816" on="0"/>
        <pt x="376" y="791" on="0"/>
        <pt x="363" y="760" on="1"/>
        <pt x="358" y="749" on="0"/>
        <pt x="347" y="749" on="1"/>
        <pt x="294" y="752" on="1"/>
        <pt x="284" y="755" on="0"/>
        <pt x="279" y="765" on="0"/>
        <pt x="279" y="778" on="1"/>
        <pt x="279" y="877" on="0"/>
        <pt x="375" y="988" on="0"/>
        <pt x="456" y="988" on="1"/>
        <pt x="501" y="988" on="0"/>
        <pt x="619" y="917" on="0"/>
        <pt x="670" y="917" on="0"/>
        <pt x="700" y="942" on="0"/>
        <pt x="713" y="973" on="1"/>
        <pt x="718" y="984" on="0"/>
        <pt x="729" y="984" on="1"/>
        <pt x="782" y="981" on="1"/>
        <pt x="792" y="978" on="0"/>
        <pt x="797" y="968" on="0"/>
        <pt x="797" y="955" on="1"/>
        <pt x="797" y="856" on="0"/>
        <pt x="701" y="745" on="0"/>
      </contour>
    </TTGlyph>
    <TTGlyph name="B" xMin="56" yMin="-2" xMax="936" yMax="703">
      <contour>
        <pt x="464" y="290" on="1"/>
        <pt x="463" y="160" on="1"/>
        <pt x="463" y="151" on="0"/>
        <pt x="475" y="138" on="0"/>
        <pt x="485" y="138" on="1"/>
        <pt x="546" y="138" on="0"/>
        <pt x="625" y="186" on="0"/>
        <pt x="625" y="289" on="0"/>
        <pt x="584" y="309" on="1"/>
        <pt x="551" y="325" on="0"/>
        <pt x="512" y="325" on="1"/>
        <pt x="502" y="325" on="0"/>
        <pt x="492" y="324" on="1"/>
        <pt x="464" y="322" on="0"/>
      </contour>
      <contour>
        <pt x="463" y="565" on="1"/>
        <pt x="464" y="483" on="1"/>
        <pt x="464" y="464" on="0"/>
        <pt x="487" y="464" on="1"/>
        <pt x="588" y="464" on="0"/>
        <pt x="588" y="521" on="1"/>
        <pt x="588" y="587" on="0"/>
        <pt x="498" y="587" on="1"/>
        <pt x="492" y="587" on="0"/>
        <pt x="487" y="587" on="1"/>
        <pt x="463" y="587" on="0"/>
      </contour>
      <contour>
        <pt x="136" y="699" on="1"/>
        <pt x="260" y="703" on="0"/>
        <pt x="632" y="703" on="0"/>
        <pt x="775" y="696" on="0"/>
        <pt x="885" y="592" on="0"/>
        <pt x="885" y="524" on="1"/>
        <pt x="885" y="441" on="0"/>
        <pt x="813" y="402" on="1"/>
        <pt x="806" y="398" on="0"/>
        <pt x="806" y="387" on="0"/>
        <pt x="813" y="385" on="1"/>
        <pt x="865" y="371" on="0"/>
        <pt x="936" y="279" on="0"/>
        <pt x="936" y="216" on="1"/>
        <pt x="936" y="137" on="0"/>
        <pt x="814" y="9" on="0"/>
        <pt x="562" y="-2" on="0"/>
        <pt x="450" y="-2" on="0"/>
        <pt x="132" y="1" on="1"/>
        <pt x="103" y="1" on="0"/>
        <pt x="67" y="38" on="0"/>
        <pt x="64" y="62" on="1"/>
        <pt x="56" y="150" on="0"/>
        <pt x="56" y="487" on="0"/>
        <pt x="63" y="606" on="1"/>
        <pt x="66" y="655" on="0"/>
        <pt x="94" y="698" on="0"/>
      </contour>
    </TTGlyph>
    <TTGlyph name="C" xMin="24" yMin="-20" xMax="788" yMax="723">
      <contour>
        <pt x="413" y="-20" on="1"/>
        <pt x="233" y="-20" on="0"/>
        <pt x="24" y="163" on="0"/>
        <pt x="24" y="330" on="1"/>
        <pt x="24" y="432" on="0"/>
        <pt x="91" y="586" on="0"/>
        <pt x="152" y="632" on="1"/>
        <pt x="273" y="723" on="0"/>
        <pt x="471" y="723" on="1"/>
        <pt x="599" y="723" on="0"/>
        <pt x="727" y="688" on="1"/>
        <pt x="776" y="672" on="0"/>
        <pt x="776" y="609" on="1"/>
        <pt x="776" y="523" on="0"/>
        <pt x="722" y="523" on="1"/>
        <pt x="713" y="523" on="0"/>
        <pt x="613" y="539" on="0"/>
        <pt x="593" y="539" on="1"/>
        <pt x="522" y="539" on="0"/>
        <pt x="445" y="440" on="0"/>
        <pt x="445" y="303" on="0"/>
        <pt x="517" y="199" on="0"/>
        <pt x="579" y="197" on="1"/>
        <pt x="621" y="195" on="0"/>
        <pt x="728" y="195" on="1"/>
        <pt x="780" y="195" on="0"/>
        <pt x="785" y="146" on="1"/>
        <pt x="788" y="128" on="0"/>
        <pt x="788" y="91" on="0"/>
        <pt x="785" y="72" on="1"/>
        <pt x="779" y="36" on="0"/>
        <pt x="679" y="3" on="0"/>
        <pt x="491" y="-20" on="0"/>
      </contour>
    </TTGlyph>
    <TTGlyph name="Ccedilla" xMin="24" yMin="-174" xMax="788" yMax="723">
      <contour>
        <pt x="326" y="-105" on="1"/>
        <pt x="340" y="-106" on="1"/>
        <pt x="377" y="-106" on="0"/>
        <pt x="377" y="-88" on="1"/>
        <pt x="377" y="-74" on="0"/>
        <pt x="328" y="-55" on="0"/>
        <pt x="328" y="-39" on="1"/>
        <pt x="328" y="-33" on="0"/>
        <pt x="332" y="-25" on="1"/>
        <pt x="335" y="-17" on="0"/>
        <pt x="324" y="-13" on="1"/>
        <pt x="183" y="8" on="0"/>
        <pt x="24" y="185" on="0"/>
        <pt x="24" y="330" on="1"/>
        <pt x="24" y="432" on="0"/>
        <pt x="91" y="586" on="0"/>
        <pt x="152" y="632" on="1"/>
        <pt x="273" y="723" on="0"/>
        <pt x="471" y="723" on="1"/>
        <pt x="599" y="723" on="0"/>
        <pt x="727" y="688" on="1"/>
        <pt x="776" y="672" on="0"/>
        <pt x="776" y="609" on="1"/>
        <pt x="776" y="523" on="0"/>
        <pt x="722" y="523" on="1"/>
        <pt x="713" y="523" on="0"/>
        <pt x="613" y="539" on="0"/>
        <pt x="593" y="539" on="1"/>
        <pt x="522" y="539" on="0"/>
        <pt x="445" y="440" on="0"/>
        <pt x="445" y="303" on="0"/>
        <pt x="517" y="199" on="0"/>
        <pt x="579" y="197" on="1"/>
        <pt x="621" y="195" on="0"/>
        <pt x="728" y="195" on="1"/>
        <pt x="780" y="195" on="0"/>
        <pt x="785" y="146" on="1"/>
        <pt x="788" y="128" on="0"/>
        <pt x="788" y="91" on="0"/>
        <pt x="785" y="72" on="1"/>
        <pt x="779" y="36" on="0"/>
        <pt x="734" y="21" on="1"/>
        <pt x="633" y="-12" on="0"/>
        <pt x="460" y="-19" on="1"/>
        <pt x="456" y="-19" on="0"/>
        <pt x="458" y="-23" on="1"/>
        <pt x="462" y="-25" on="1"/>
        <pt x="510" y="-42" on="0"/>
        <pt x="510" y="-98" on="1"/>
        <pt x="510" y="-126" on="0"/>
        <pt x="454" y="-172" on="0"/>
        <pt x="402" y="-174" on="1"/>
        <pt x="390" y="-174" on="1"/>
        <pt x="311" y="-174" on="0"/>
        <pt x="311" y="-154" on="1"/>
        <pt x="311" y="-106" on="0"/>
      </contour>
    </TTGlyph>
    <TTGlyph name="D" xMin="58" yMin="-4" xMax="863" yMax="703">
      <contour>
        <pt x="520" y="2" on="1"/>
        <pt x="453" y="-4" on="0"/>
        <pt x="203" y="-4" on="0"/>
        <pt x="112" y="3" on="0"/>
        <pt x="66" y="29" on="0"/>
        <pt x="64" y="57" on="1"/>
        <pt x="58" y="165" on="0"/>
        <pt x="58" y="442" on="0"/>
        <pt x="62" y="597" on="1"/>
        <pt x="64" y="693" on="0"/>
        <pt x="151" y="699" on="1"/>
        <pt x="212" y="703" on="0"/>
        <pt x="464" y="703" on="0"/>
        <pt x="607" y="696" on="0"/>
        <pt x="740" y="637" on="0"/>
        <pt x="780" y="590" on="1"/>
        <pt x="863" y="493" on="0"/>
        <pt x="863" y="365" on="1"/>
        <pt x="863" y="230" on="0"/>
        <pt x="776" y="124" on="1"/>
        <pt x="734" y="73" on="0"/>
        <pt x="601" y="7" on="0"/>
      </contour>
      <contour>
        <pt x="475" y="484" on="1"/>
        <pt x="475" y="242" on="1"/>
        <pt x="475" y="234" on="0"/>
        <pt x="487" y="220" on="0"/>
        <pt x="497" y="220" on="1"/>
        <pt x="561" y="220" on="0"/>
        <pt x="630" y="308" on="0"/>
        <pt x="630" y="428" on="0"/>
        <pt x="567" y="517" on="0"/>
        <pt x="514" y="517" on="1"/>
        <pt x="501" y="517" on="0"/>
        <pt x="494" y="516" on="1"/>
        <pt x="475" y="511" on="0"/>
      </contour>
    </TTGlyph>
    <TTGlyph name="Delta" xMin="32" yMin="-18" xMax="921" yMax="701">
      <contour>
        <pt x="309" y="629" on="1"/>
        <pt x="327" y="663" on="0"/>
        <pt x="416" y="701" on="0"/>
        <pt x="520" y="701" on="0"/>
        <pt x="606" y="665" on="0"/>
        <pt x="625" y="631" on="1"/>
        <pt x="772" y="359" on="0"/>
        <pt x="912" y="67" on="1"/>
        <pt x="921" y="48" on="0"/>
        <pt x="921" y="18" on="0"/>
        <pt x="914" y="7" on="1"/>
        <pt x="901" y="-18" on="0"/>
        <pt x="866" y="-18" on="1"/>
        <pt x="84" y="-18" on="1"/>
        <pt x="49" y="-18" on="0"/>
        <pt x="37" y="8" on="1"/>
        <pt x="32" y="19" on="0"/>
        <pt x="32" y="47" on="0"/>
        <pt x="41" y="65" on="1"/>
        <pt x="234" y="485" on="0"/>
      </contour>
      <contour>
        <pt x="297" y="136" on="1"/>
        <pt x="432" y="136" on="1"/>
        <pt x="443" y="136" on="0"/>
        <pt x="448" y="148" on="0"/>
        <pt x="448" y="155" on="0"/>
        <pt x="446" y="158" on="1"/>
        <pt x="393" y="295" on="1"/>
        <pt x="387" y="311" on="0"/>
        <pt x="355" y="311" on="0"/>
        <pt x="347" y="295" on="1"/>
        <pt x="283" y="158" on="1"/>
        <pt x="281" y="155" on="0"/>
        <pt x="281" y="148" on="0"/>
        <pt x="286" y="136" on="0"/>
      </contour>
    </TTGlyph>
    <TTGlyph name="E" xMin="56" yMin="0" xMax="808" yMax="700">
      <contour>
        <pt x="106" y="0" on="0"/>
        <pt x="67" y="37" on="0"/>
        <pt x="56" y="122" on="0"/>
        <pt x="56" y="547" on="0"/>
        <pt x="63" y="612" on="1"/>
        <pt x="71" y="696" on="0"/>
        <pt x="134" y="698" on="1"/>
        <pt x="206" y="700" on="0"/>
        <pt x="731" y="700" on="1"/>
        <pt x="790" y="700" on="0"/>
        <pt x="790" y="625" on="1"/>
        <pt x="790" y="566" on="0"/>
        <pt x="738" y="566" on="1"/>
        <pt x="518" y="566" on="1"/>
        <pt x="497" y="566" on="0"/>
        <pt x="472" y="538" on="0"/>
        <pt x="472" y="516" on="1"/>
        <pt x="472" y="444" on="1"/>
        <pt x="472" y="414" on="0"/>
        <pt x="499" y="414" on="1"/>
        <pt x="681" y="414" on="1"/>
        <pt x="697" y="414" on="0"/>
        <pt x="714" y="408" on="0"/>
        <pt x="728" y="379" on="0"/>
        <pt x="728" y="313" on="0"/>
        <pt x="705" y="291" on="0"/>
        <pt x="679" y="291" on="1"/>
        <pt x="516" y="291" on="1"/>
        <pt x="491" y="291" on="0"/>
        <pt x="472" y="266" on="0"/>
        <pt x="472" y="240" on="1"/>
        <pt x="472" y="191" on="1"/>
        <pt x="472" y="148" on="0"/>
        <pt x="513" y="148" on="1"/>
        <pt x="762" y="148" on="1"/>
        <pt x="780" y="148" on="0"/>
        <pt x="808" y="127" on="0"/>
        <pt x="808" y="56" on="0"/>
        <pt x="774" y="0" on="0"/>
        <pt x="751" y="0" on="1"/>
        <pt x="134" y="0" on="1"/>
      </contour>
    </TTGlyph>
    <TTGlyph name="Eacute" xMin="56" yMin="0" xMax="808" yMax="905">
      <contour>
        <pt x="106" y="0" on="0"/>
        <pt x="67" y="37" on="0"/>
        <pt x="56" y="122" on="0"/>
        <pt x="56" y="547" on="0"/>
        <pt x="63" y="612" on="1"/>
        <pt x="71" y="696" on="0"/>
        <pt x="134" y="698" on="1"/>
        <pt x="206" y="700" on="0"/>
        <pt x="731" y="700" on="1"/>
        <pt x="790" y="700" on="0"/>
        <pt x="790" y="625" on="1"/>
        <pt x="790" y="566" on="0"/>
        <pt x="738" y="566" on="1"/>
        <pt x="518" y="566" on="1"/>
        <pt x="497" y="566" on="0"/>
        <pt x="472" y="538" on="0"/>
        <pt x="472" y="516" on="1"/>
        <pt x="472" y="444" on="1"/>
        <pt x="472" y="414" on="0"/>
        <pt x="499" y="414" on="1"/>
        <pt x="681" y="414" on="1"/>
        <pt x="697" y="414" on="0"/>
        <pt x="714" y="408" on="0"/>
        <pt x="728" y="379" on="0"/>
        <pt x="728" y="313" on="0"/>
        <pt x="705" y="291" on="0"/>
        <pt x="679" y="291" on="1"/>
        <pt x="516" y="291" on="1"/>
        <pt x="491" y="291" on="0"/>
        <pt x="472" y="266" on="0"/>
        <pt x="472" y="240" on="1"/>
        <pt x="472" y="191" on="1"/>
        <pt x="472" y="148" on="0"/>
        <pt x="513" y="148" on="1"/>
        <pt x="762" y="148" on="1"/>
        <pt x="780" y="148" on="0"/>
        <pt x="808" y="127" on="0"/>
        <pt x="808" y="56" on="0"/>
        <pt x="774" y="0" on="0"/>
        <pt x="751" y="0" on="1"/>
        <pt x="134" y="0" on="1"/>
      </contour>
      <contour>
        <pt x="596" y="758" on="1"/>
        <pt x="325" y="758" on="1"/>
        <pt x="300" y="758" on="0"/>
        <pt x="300" y="812" on="0"/>
        <pt x="329" y="823" on="0"/>
        <pt x="412" y="855" on="0"/>
        <pt x="439" y="865" on="1"/>
        <pt x="546" y="905" on="0"/>
        <pt x="591" y="905" on="0"/>
        <pt x="603" y="883" on="1"/>
        <pt x="643" y="802" on="0"/>
        <pt x="643" y="787" on="1"/>
        <pt x="643" y="758" on="0"/>
      </contour>
    </TTGlyph>
    <TTGlyph name="Ecircumflex" xMin="56" yMin="0" xMax="808" yMax="942">
      <contour>
        <pt x="106" y="0" on="0"/>
        <pt x="67" y="37" on="0"/>
        <pt x="56" y="122" on="0"/>
        <pt x="56" y="547" on="0"/>
        <pt x="63" y="612" on="1"/>
        <pt x="71" y="696" on="0"/>
        <pt x="134" y="698" on="1"/>
        <pt x="206" y="700" on="0"/>
        <pt x="731" y="700" on="1"/>
        <pt x="790" y="700" on="0"/>
        <pt x="790" y="625" on="1"/>
        <pt x="790" y="566" on="0"/>
        <pt x="738" y="566" on="1"/>
        <pt x="518" y="566" on="1"/>
        <pt x="497" y="566" on="0"/>
        <pt x="472" y="538" on="0"/>
        <pt x="472" y="516" on="1"/>
        <pt x="472" y="444" on="1"/>
        <pt x="472" y="414" on="0"/>
        <pt x="499" y="414" on="1"/>
        <pt x="681" y="414" on="1"/>
        <pt x="697" y="414" on="0"/>
        <pt x="714" y="408" on="0"/>
        <pt x="728" y="379" on="0"/>
        <pt x="728" y="313" on="0"/>
        <pt x="705" y="291" on="0"/>
        <pt x="679" y="291" on="1"/>
        <pt x="516" y="291" on="1"/>
        <pt x="491" y="291" on="0"/>
        <pt x="472" y="266" on="0"/>
        <pt x="472" y="240" on="1"/>
        <pt x="472" y="191" on="1"/>
        <pt x="472" y="148" on="0"/>
        <pt x="513" y="148" on="1"/>
        <pt x="762" y="148" on="1"/>
        <pt x="780" y="148" on="0"/>
        <pt x="808" y="127" on="0"/>
        <pt x="808" y="56" on="0"/>
        <pt x="774" y="0" on="0"/>
        <pt x="751" y="0" on="1"/>
        <pt x="134" y="0" on="1"/>
      </contour>
      <contour>
        <pt x="389" y="942" on="1"/>
        <pt x="455" y="942" on="1"/>
        <pt x="475" y="942" on="0"/>
        <pt x="510" y="912" on="1"/>
        <pt x="627" y="810" on="1"/>
        <pt x="632" y="802" on="0"/>
        <pt x="632" y="794" on="1"/>
        <pt x="632" y="764" on="0"/>
        <pt x="609" y="737" on="0"/>
        <pt x="592" y="737" on="0"/>
        <pt x="586" y="740" on="1"/>
        <pt x="422" y="814" on="1"/>
        <pt x="258" y="740" on="1"/>
        <pt x="252" y="737" on="0"/>
        <pt x="235" y="737" on="0"/>
        <pt x="213" y="763" on="0"/>
        <pt x="212" y="785" on="0"/>
        <pt x="212" y="802" on="0"/>
        <pt x="217" y="810" on="1"/>
        <pt x="334" y="912" on="1"/>
        <pt x="369" y="942" on="0"/>
      </contour>
    </TTGlyph>
    <TTGlyph name="Edieresis" xMin="56" yMin="0" xMax="808" yMax="917">
      <contour>
        <pt x="106" y="0" on="0"/>
        <pt x="67" y="37" on="0"/>
        <pt x="56" y="122" on="0"/>
        <pt x="56" y="547" on="0"/>
        <pt x="63" y="612" on="1"/>
        <pt x="71" y="696" on="0"/>
        <pt x="134" y="698" on="1"/>
        <pt x="206" y="700" on="0"/>
        <pt x="731" y="700" on="1"/>
        <pt x="790" y="700" on="0"/>
        <pt x="790" y="625" on="1"/>
        <pt x="790" y="566" on="0"/>
        <pt x="738" y="566" on="1"/>
        <pt x="518" y="566" on="1"/>
        <pt x="497" y="566" on="0"/>
        <pt x="472" y="538" on="0"/>
        <pt x="472" y="516" on="1"/>
        <pt x="472" y="444" on="1"/>
        <pt x="472" y="414" on="0"/>
        <pt x="499" y="414" on="1"/>
        <pt x="681" y="414" on="1"/>
        <pt x="697" y="414" on="0"/>
        <pt x="714" y="408" on="0"/>
        <pt x="728" y="379" on="0"/>
        <pt x="728" y="313" on="0"/>
        <pt x="705" y="291" on="0"/>
        <pt x="679" y="291" on="1"/>
        <pt x="516" y="291" on="1"/>
        <pt x="491" y="291" on="0"/>
        <pt x="472" y="266" on="0"/>
        <pt x="472" y="240" on="1"/>
        <pt x="472" y="191" on="1"/>
        <pt x="472" y="148" on="0"/>
        <pt x="513" y="148" on="1"/>
        <pt x="762" y="148" on="1"/>
        <pt x="780" y="148" on="0"/>
        <pt x="808" y="127" on="0"/>
        <pt x="808" y="56" on="0"/>
        <pt x="774" y="0" on="0"/>
        <pt x="751" y="0" on="1"/>
        <pt x="134" y="0" on="1"/>
      </contour>
      <contour>
        <pt x="189" y="864" on="0"/>
        <pt x="247" y="917" on="0"/>
        <pt x="342" y="917" on="0"/>
        <pt x="388" y="866" on="0"/>
        <pt x="388" y="798" on="0"/>
        <pt x="332" y="743" on="0"/>
        <pt x="248" y="743" on="0"/>
        <pt x="189" y="789" on="0"/>
      </contour>
      <contour>
        <pt x="455" y="864" on="0"/>
        <pt x="513" y="917" on="0"/>
        <pt x="608" y="917" on="0"/>
        <pt x="654" y="866" on="0"/>
        <pt x="654" y="798" on="0"/>
        <pt x="598" y="743" on="0"/>
        <pt x="514" y="743" on="0"/>
        <pt x="455" y="789" on="0"/>
      </contour>
    </TTGlyph>
    <TTGlyph name="Egrave" xMin="56" yMin="0" xMax="808" yMax="905">
      <contour>
        <pt x="106" y="0" on="0"/>
        <pt x="67" y="37" on="0"/>
        <pt x="56" y="122" on="0"/>
        <pt x="56" y="547" on="0"/>
        <pt x="63" y="612" on="1"/>
        <pt x="71" y="696" on="0"/>
        <pt x="134" y="698" on="1"/>
        <pt x="206" y="700" on="0"/>
        <pt x="731" y="700" on="1"/>
        <pt x="790" y="700" on="0"/>
        <pt x="790" y="625" on="1"/>
        <pt x="790" y="566" on="0"/>
        <pt x="738" y="566" on="1"/>
        <pt x="518" y="566" on="1"/>
        <pt x="497" y="566" on="0"/>
        <pt x="472" y="538" on="0"/>
        <pt x="472" y="516" on="1"/>
        <pt x="472" y="444" on="1"/>
        <pt x="472" y="414" on="0"/>
        <pt x="499" y="414" on="1"/>
        <pt x="681" y="414" on="1"/>
        <pt x="697" y="414" on="0"/>
        <pt x="714" y="408" on="0"/>
        <pt x="728" y="379" on="0"/>
        <pt x="728" y="313" on="0"/>
        <pt x="705" y="291" on="0"/>
        <pt x="679" y="291" on="1"/>
        <pt x="516" y="291" on="1"/>
        <pt x="491" y="291" on="0"/>
        <pt x="472" y="266" on="0"/>
        <pt x="472" y="240" on="1"/>
        <pt x="472" y="191" on="1"/>
        <pt x="472" y="148" on="0"/>
        <pt x="513" y="148" on="1"/>
        <pt x="762" y="148" on="1"/>
        <pt x="780" y="148" on="0"/>
        <pt x="808" y="127" on="0"/>
        <pt x="808" y="56" on="0"/>
        <pt x="774" y="0" on="0"/>
        <pt x="751" y="0" on="1"/>
        <pt x="134" y="0" on="1"/>
      </contour>
      <contour>
        <pt x="569" y="758" on="1"/>
        <pt x="298" y="758" on="1"/>
        <pt x="251" y="758" on="0"/>
        <pt x="251" y="787" on="1"/>
        <pt x="251" y="802" on="0"/>
        <pt x="291" y="883" on="1"/>
        <pt x="303" y="905" on="0"/>
        <pt x="324" y="905" on="1"/>
        <pt x="348" y="905" on="0"/>
        <pt x="482" y="855" on="0"/>
        <pt x="565" y="823" on="0"/>
        <pt x="594" y="812" on="0"/>
        <pt x="594" y="758" on="0"/>
      </contour>
    </TTGlyph>
    <TTGlyph name="Eth" xMin="-9" yMin="-4" xMax="873" yMax="703">
      <contour>
        <pt x="530" y="2" on="1"/>
        <pt x="463" y="-4" on="0"/>
        <pt x="213" y="-4" on="0"/>
        <pt x="122" y="3" on="0"/>
        <pt x="76" y="29" on="0"/>
        <pt x="74" y="57" on="1"/>
        <pt x="67" y="179" on="0"/>
        <pt x="67" y="306" on="1"/>
        <pt x="38" y="306" on="1"/>
        <pt x="22" y="306" on="0"/>
        <pt x="5" y="312" on="0"/>
        <pt x="-9" y="341" on="0"/>
        <pt x="-9" y="407" on="0"/>
        <pt x="14" y="429" on="0"/>
        <pt x="40" y="429" on="1"/>
        <pt x="68" y="429" on="1"/>
        <pt x="70" y="541" on="0"/>
        <pt x="72" y="597" on="1"/>
        <pt x="74" y="693" on="0"/>
        <pt x="161" y="699" on="1"/>
        <pt x="222" y="703" on="0"/>
        <pt x="474" y="703" on="0"/>
        <pt x="617" y="696" on="0"/>
        <pt x="750" y="637" on="0"/>
        <pt x="790" y="590" on="1"/>
        <pt x="873" y="493" on="0"/>
        <pt x="873" y="365" on="1"/>
        <pt x="873" y="230" on="0"/>
        <pt x="786" y="124" on="1"/>
        <pt x="744" y="73" on="0"/>
        <pt x="611" y="7" on="0"/>
      </contour>
      <contour>
        <pt x="485" y="484" on="1"/>
        <pt x="485" y="429" on="1"/>
        <pt x="544" y="429" on="1"/>
        <pt x="560" y="429" on="0"/>
        <pt x="577" y="423" on="0"/>
        <pt x="591" y="394" on="0"/>
        <pt x="591" y="328" on="0"/>
        <pt x="568" y="306" on="0"/>
        <pt x="542" y="306" on="1"/>
        <pt x="485" y="306" on="1"/>
        <pt x="485" y="242" on="1"/>
        <pt x="485" y="234" on="0"/>
        <pt x="497" y="220" on="0"/>
        <pt x="507" y="220" on="1"/>
        <pt x="571" y="220" on="0"/>
        <pt x="640" y="308" on="0"/>
        <pt x="640" y="428" on="0"/>
        <pt x="577" y="517" on="0"/>
        <pt x="524" y="517" on="1"/>
        <pt x="511" y="517" on="0"/>
        <pt x="504" y="516" on="1"/>
        <pt x="485" y="511" on="0"/>
      </contour>
    </TTGlyph>
    <TTGlyph name="Euro" xMin="10" yMin="-13" xMax="786" yMax="711">
      <contour>
        <pt x="692" y="452" on="0"/>
        <pt x="692" y="390" on="0"/>
        <pt x="667" y="371" on="0"/>
        <pt x="644" y="371" on="1"/>
        <pt x="456" y="371" on="1"/>
        <pt x="455" y="364" on="0"/>
        <pt x="455" y="336" on="0"/>
        <pt x="456" y="329" on="1"/>
        <pt x="646" y="329" on="1"/>
        <pt x="669" y="329" on="0"/>
        <pt x="692" y="310" on="0"/>
        <pt x="692" y="248" on="0"/>
        <pt x="667" y="229" on="0"/>
        <pt x="644" y="229" on="1"/>
        <pt x="486" y="229" on="1"/>
        <pt x="527" y="159" on="0"/>
        <pt x="603" y="159" on="1"/>
        <pt x="623" y="159" on="0"/>
        <pt x="669" y="166" on="1"/>
        <pt x="723" y="175" on="0"/>
        <pt x="732" y="175" on="1"/>
        <pt x="786" y="175" on="0"/>
        <pt x="786" y="89" on="1"/>
        <pt x="786" y="24" on="0"/>
        <pt x="737" y="10" on="1"/>
        <pt x="658" y="-13" on="0"/>
        <pt x="495" y="-13" on="1"/>
        <pt x="157" y="-13" on="0"/>
        <pt x="91" y="229" on="1"/>
        <pt x="56" y="229" on="1"/>
        <pt x="33" y="229" on="0"/>
        <pt x="11" y="248" on="0"/>
        <pt x="10" y="279" on="1"/>
        <pt x="10" y="310" on="0"/>
        <pt x="35" y="329" on="0"/>
        <pt x="58" y="329" on="1"/>
        <pt x="77" y="329" on="1"/>
        <pt x="77" y="371" on="1"/>
        <pt x="56" y="371" on="1"/>
        <pt x="33" y="371" on="0"/>
        <pt x="11" y="390" on="0"/>
        <pt x="10" y="421" on="1"/>
        <pt x="10" y="452" on="0"/>
        <pt x="35" y="471" on="0"/>
        <pt x="58" y="471" on="1"/>
        <pt x="92" y="471" on="1"/>
        <pt x="126" y="595" on="0"/>
        <pt x="333" y="711" on="0"/>
        <pt x="658" y="711" on="0"/>
        <pt x="737" y="688" on="1"/>
        <pt x="786" y="674" on="0"/>
        <pt x="786" y="609" on="1"/>
        <pt x="786" y="523" on="0"/>
        <pt x="732" y="523" on="1"/>
        <pt x="723" y="523" on="0"/>
        <pt x="623" y="539" on="0"/>
        <pt x="603" y="539" on="1"/>
        <pt x="529" y="539" on="0"/>
        <pt x="487" y="471" on="1"/>
        <pt x="646" y="471" on="1"/>
        <pt x="669" y="471" on="0"/>
      </contour>
    </TTGlyph>
    <TTGlyph name="F" xMin="56" yMin="0" xMax="786" yMax="701">
      <contour>
        <pt x="57" y="70" on="1"/>
        <pt x="56" y="613" on="1"/>
        <pt x="64" y="696" on="0"/>
        <pt x="127" y="700" on="1"/>
        <pt x="172" y="701" on="0"/>
        <pt x="726" y="701" on="1"/>
        <pt x="786" y="701" on="0"/>
        <pt x="786" y="612" on="1"/>
        <pt x="786" y="567" on="0"/>
        <pt x="733" y="567" on="1"/>
        <pt x="515" y="567" on="1"/>
        <pt x="494" y="567" on="0"/>
        <pt x="469" y="539" on="0"/>
        <pt x="469" y="516" on="1"/>
        <pt x="469" y="445" on="1"/>
        <pt x="469" y="414" on="0"/>
        <pt x="495" y="414" on="1"/>
        <pt x="661" y="414" on="1"/>
        <pt x="685" y="414" on="0"/>
        <pt x="709" y="392" on="0"/>
        <pt x="709" y="313" on="0"/>
        <pt x="686" y="291" on="0"/>
        <pt x="660" y="291" on="1"/>
        <pt x="511" y="291" on="1"/>
        <pt x="486" y="291" on="0"/>
        <pt x="467" y="267" on="0"/>
        <pt x="467" y="241" on="1"/>
        <pt x="467" y="69" on="1"/>
        <pt x="467" y="34" on="0"/>
        <pt x="437" y="0" on="0"/>
        <pt x="413" y="0" on="1"/>
        <pt x="129" y="0" on="1"/>
        <pt x="101" y="0" on="0"/>
        <pt x="61" y="37" on="0"/>
      </contour>
    </TTGlyph>
    <TTGlyph name="G" xMin="40" yMin="-10" xMax="821" yMax="714">
      <contour>
        <pt x="631" y="538" on="1"/>
        <pt x="541" y="538" on="0"/>
        <pt x="468" y="445" on="0"/>
        <pt x="468" y="344" on="1"/>
        <pt x="468" y="185" on="0"/>
        <pt x="561" y="185" on="1"/>
        <pt x="580" y="185" on="0"/>
        <pt x="586" y="186" on="1"/>
        <pt x="574" y="186" on="0"/>
        <pt x="559" y="270" on="0"/>
        <pt x="559" y="362" on="0"/>
        <pt x="609" y="389" on="0"/>
        <pt x="698" y="389" on="0"/>
        <pt x="733" y="388" on="0"/>
        <pt x="778" y="381" on="0"/>
        <pt x="790" y="374" on="1"/>
        <pt x="818" y="358" on="0"/>
        <pt x="818" y="326" on="1"/>
        <pt x="818" y="180" on="1"/>
        <pt x="818" y="102" on="0"/>
        <pt x="762" y="9" on="0"/>
        <pt x="685" y="1" on="1"/>
        <pt x="577" y="-10" on="0"/>
        <pt x="355" y="-10" on="1"/>
        <pt x="266" y="-10" on="0"/>
        <pt x="139" y="46" on="0"/>
        <pt x="104" y="96" on="1"/>
        <pt x="40" y="189" on="0"/>
        <pt x="40" y="476" on="0"/>
        <pt x="224" y="700" on="0"/>
        <pt x="377" y="708" on="1"/>
        <pt x="482" y="714" on="0"/>
        <pt x="529" y="714" on="1"/>
        <pt x="700" y="714" on="0"/>
        <pt x="772" y="693" on="1"/>
        <pt x="821" y="679" on="0"/>
        <pt x="821" y="614" on="1"/>
        <pt x="821" y="527" on="0"/>
        <pt x="770" y="527" on="1"/>
        <pt x="754" y="528" on="0"/>
        <pt x="658" y="538" on="0"/>
      </contour>
    </TTGlyph>
    <TTGlyph name="H" xMin="60" yMin="-3" xMax="1032" yMax="701">
      <contour>
        <pt x="1024" y="63" on="1"/>
        <pt x="1022" y="40" on="0"/>
        <pt x="987" y="4" on="0"/>
        <pt x="957" y="2" on="1"/>
        <pt x="875" y="-3" on="0"/>
        <pt x="769" y="-3" on="0"/>
        <pt x="697" y="2" on="1"/>
        <pt x="642" y="7" on="0"/>
        <pt x="639" y="50" on="1"/>
        <pt x="638" y="67" on="0"/>
        <pt x="636" y="122" on="0"/>
        <pt x="633" y="164" on="0"/>
        <pt x="614" y="188" on="0"/>
        <pt x="590" y="188" on="1"/>
        <pt x="515" y="188" on="1"/>
        <pt x="491" y="188" on="0"/>
        <pt x="472" y="164" on="0"/>
        <pt x="469" y="122" on="0"/>
        <pt x="467" y="67" on="0"/>
        <pt x="466" y="50" on="1"/>
        <pt x="463" y="7" on="0"/>
        <pt x="408" y="2" on="1"/>
        <pt x="336" y="-3" on="0"/>
        <pt x="217" y="-3" on="0"/>
        <pt x="135" y="2" on="1"/>
        <pt x="105" y="4" on="0"/>
        <pt x="70" y="40" on="0"/>
        <pt x="68" y="63" on="1"/>
        <pt x="60" y="151" on="0"/>
        <pt x="60" y="541" on="0"/>
        <pt x="68" y="658" on="0"/>
        <pt x="96" y="701" on="0"/>
        <pt x="138" y="701" on="1"/>
        <pt x="382" y="701" on="1"/>
        <pt x="417" y="701" on="0"/>
        <pt x="466" y="653" on="0"/>
        <pt x="466" y="615" on="1"/>
        <pt x="466" y="405" on="1"/>
        <pt x="466" y="369" on="0"/>
        <pt x="497" y="369" on="1"/>
        <pt x="608" y="369" on="1"/>
        <pt x="639" y="369" on="0"/>
        <pt x="639" y="405" on="1"/>
        <pt x="639" y="615" on="1"/>
        <pt x="639" y="653" on="0"/>
        <pt x="688" y="701" on="0"/>
        <pt x="723" y="701" on="1"/>
        <pt x="954" y="701" on="1"/>
        <pt x="996" y="701" on="0"/>
        <pt x="1024" y="658" on="0"/>
        <pt x="1032" y="541" on="0"/>
        <pt x="1032" y="151" on="0"/>
      </contour>
    </TTGlyph>
    <TTGlyph name="I" xMin="60" yMin="-3" xMax="484" yMax="700">
      <contour>
        <pt x="138" y="700" on="1"/>
        <pt x="406" y="700" on="1"/>
        <pt x="448" y="700" on="0"/>
        <pt x="475" y="658" on="0"/>
        <pt x="484" y="527" on="0"/>
        <pt x="484" y="150" on="0"/>
        <pt x="476" y="62" on="1"/>
        <pt x="473" y="39" on="0"/>
        <pt x="438" y="3" on="0"/>
        <pt x="409" y="1" on="1"/>
        <pt x="352" y="-3" on="0"/>
        <pt x="202" y="-3" on="0"/>
        <pt x="135" y="1" on="1"/>
        <pt x="106" y="3" on="0"/>
        <pt x="71" y="39" on="0"/>
        <pt x="68" y="62" on="1"/>
        <pt x="60" y="150" on="0"/>
        <pt x="60" y="527" on="0"/>
        <pt x="69" y="658" on="0"/>
        <pt x="96" y="700" on="0"/>
      </contour>
    </TTGlyph>
    <TTGlyph name="IJ" xMin="60" yMin="-20" xMax="1124" yMax="700">
      <contour>
        <pt x="138" y="700" on="1"/>
        <pt x="406" y="700" on="1"/>
        <pt x="448" y="700" on="0"/>
        <pt x="475" y="658" on="0"/>
        <pt x="484" y="527" on="0"/>
        <pt x="484" y="150" on="0"/>
        <pt x="476" y="62" on="1"/>
        <pt x="473" y="39" on="0"/>
        <pt x="438" y="3" on="0"/>
        <pt x="409" y="1" on="1"/>
        <pt x="352" y="-3" on="0"/>
        <pt x="202" y="-3" on="0"/>
        <pt x="135" y="1" on="1"/>
        <pt x="106" y="3" on="0"/>
        <pt x="71" y="39" on="0"/>
        <pt x="68" y="62" on="1"/>
        <pt x="60" y="150" on="0"/>
        <pt x="60" y="527" on="0"/>
        <pt x="69" y="658" on="0"/>
        <pt x="96" y="700" on="0"/>
      </contour>
      <contour>
        <pt x="712" y="273" on="1"/>
        <pt x="709" y="581" on="1"/>
        <pt x="709" y="626" on="0"/>
        <pt x="710" y="639" on="1"/>
        <pt x="711" y="671" on="0"/>
        <pt x="740" y="700" on="0"/>
        <pt x="782" y="700" on="1"/>
        <pt x="1050" y="700" on="1"/>
        <pt x="1092" y="700" on="0"/>
        <pt x="1121" y="671" on="0"/>
        <pt x="1122" y="639" on="1"/>
        <pt x="1124" y="576" on="0"/>
        <pt x="1124" y="399" on="0"/>
        <pt x="1120" y="273" on="1"/>
        <pt x="1117" y="78" on="0"/>
        <pt x="920" y="16" on="1"/>
        <pt x="805" y="-20" on="0"/>
        <pt x="627" y="-20" on="1"/>
        <pt x="587" y="-20" on="0"/>
        <pt x="561" y="28" on="0"/>
        <pt x="561" y="147" on="0"/>
        <pt x="607" y="152" on="1"/>
        <pt x="663" y="159" on="0"/>
        <pt x="712" y="240" on="0"/>
      </contour>
    </TTGlyph>
    <TTGlyph name="Iacute" xMin="60" yMin="-3" xMax="484" yMax="905">
      <contour>
        <pt x="138" y="700" on="1"/>
        <pt x="406" y="700" on="1"/>
        <pt x="448" y="700" on="0"/>
        <pt x="475" y="658" on="0"/>
        <pt x="484" y="527" on="0"/>
        <pt x="484" y="150" on="0"/>
        <pt x="476" y="62" on="1"/>
        <pt x="473" y="39" on="0"/>
        <pt x="438" y="3" on="0"/>
        <pt x="409" y="1" on="1"/>
        <pt x="352" y="-3" on="0"/>
        <pt x="202" y="-3" on="0"/>
        <pt x="135" y="1" on="1"/>
        <pt x="106" y="3" on="0"/>
        <pt x="71" y="39" on="0"/>
        <pt x="68" y="62" on="1"/>
        <pt x="60" y="150" on="0"/>
        <pt x="60" y="527" on="0"/>
        <pt x="69" y="658" on="0"/>
        <pt x="96" y="700" on="0"/>
      </contour>
      <contour>
        <pt x="404" y="758" on="1"/>
        <pt x="133" y="758" on="1"/>
        <pt x="108" y="758" on="0"/>
        <pt x="108" y="812" on="0"/>
        <pt x="137" y="823" on="0"/>
        <pt x="220" y="855" on="0"/>
        <pt x="247" y="865" on="1"/>
        <pt x="354" y="905" on="0"/>
        <pt x="399" y="905" on="0"/>
        <pt x="411" y="883" on="1"/>
        <pt x="451" y="802" on="0"/>
        <pt x="451" y="787" on="1"/>
        <pt x="451" y="758" on="0"/>
      </contour>
    </TTGlyph>
    <TTGlyph name="Icircumflex" xMin="60" yMin="-3" xMax="484" yMax="942">
      <contour>
        <pt x="138" y="700" on="1"/>
        <pt x="406" y="700" on="1"/>
        <pt x="448" y="700" on="0"/>
        <pt x="475" y="658" on="0"/>
        <pt x="484" y="527" on="0"/>
        <pt x="484" y="150" on="0"/>
        <pt x="476" y="62" on="1"/>
        <pt x="473" y="39" on="0"/>
        <pt x="438" y="3" on="0"/>
        <pt x="409" y="1" on="1"/>
        <pt x="352" y="-3" on="0"/>
        <pt x="202" y="-3" on="0"/>
        <pt x="135" y="1" on="1"/>
        <pt x="106" y="3" on="0"/>
        <pt x="71" y="39" on="0"/>
        <pt x="68" y="62" on="1"/>
        <pt x="60" y="150" on="0"/>
        <pt x="60" y="527" on="0"/>
        <pt x="69" y="658" on="0"/>
        <pt x="96" y="700" on="0"/>
      </contour>
      <contour>
        <pt x="239" y="942" on="1"/>
        <pt x="305" y="942" on="1"/>
        <pt x="325" y="942" on="0"/>
        <pt x="360" y="912" on="1"/>
        <pt x="477" y="810" on="1"/>
        <pt x="482" y="802" on="0"/>
        <pt x="482" y="794" on="1"/>
        <pt x="482" y="764" on="0"/>
        <pt x="459" y="737" on="0"/>
        <pt x="442" y="737" on="0"/>
        <pt x="436" y="740" on="1"/>
        <pt x="272" y="814" on="1"/>
        <pt x="108" y="740" on="1"/>
        <pt x="102" y="737" on="0"/>
        <pt x="85" y="737" on="0"/>
        <pt x="63" y="763" on="0"/>
        <pt x="62" y="785" on="0"/>
        <pt x="62" y="802" on="0"/>
        <pt x="67" y="810" on="1"/>
        <pt x="184" y="912" on="1"/>
        <pt x="219" y="942" on="0"/>
      </contour>
    </TTGlyph>
    <TTGlyph name="Idieresis" xMin="40" yMin="-3" xMax="505" yMax="917">
      <contour>
        <pt x="138" y="700" on="1"/>
        <pt x="406" y="700" on="1"/>
        <pt x="448" y="700" on="0"/>
        <pt x="475" y="658" on="0"/>
        <pt x="484" y="527" on="0"/>
        <pt x="484" y="150" on="0"/>
        <pt x="476" y="62" on="1"/>
        <pt x="473" y="39" on="0"/>
        <pt x="438" y="3" on="0"/>
        <pt x="409" y="1" on="1"/>
        <pt x="352" y="-3" on="0"/>
        <pt x="202" y="-3" on="0"/>
        <pt x="135" y="1" on="1"/>
        <pt x="106" y="3" on="0"/>
        <pt x="71" y="39" on="0"/>
        <pt x="68" y="62" on="1"/>
        <pt x="60" y="150" on="0"/>
        <pt x="60" y="527" on="0"/>
        <pt x="69" y="658" on="0"/>
        <pt x="96" y="700" on="0"/>
      </contour>
      <contour>
        <pt x="40" y="864" on="0"/>
        <pt x="98" y="917" on="0"/>
        <pt x="193" y="917" on="0"/>
        <pt x="239" y="866" on="0"/>
        <pt x="239" y="798" on="0"/>
        <pt x="183" y="743" on="0"/>
        <pt x="99" y="743" on="0"/>
        <pt x="40" y="789" on="0"/>
      </contour>
      <contour>
        <pt x="306" y="864" on="0"/>
        <pt x="364" y="917" on="0"/>
        <pt x="459" y="917" on="0"/>
        <pt x="505" y="866" on="0"/>
        <pt x="505" y="798" on="0"/>
        <pt x="449" y="743" on="0"/>
        <pt x="365" y="743" on="0"/>
        <pt x="306" y="789" on="0"/>
      </contour>
    </TTGlyph>
    <TTGlyph name="Igrave" xMin="60" yMin="-3" xMax="484" yMax="905">
      <contour>
        <pt x="138" y="700" on="1"/>
        <pt x="406" y="700" on="1"/>
        <pt x="448" y="700" on="0"/>
        <pt x="475" y="658" on="0"/>
        <pt x="484" y="527" on="0"/>
        <pt x="484" y="150" on="0"/>
        <pt x="476" y="62" on="1"/>
        <pt x="473" y="39" on="0"/>
        <pt x="438" y="3" on="0"/>
        <pt x="409" y="1" on="1"/>
        <pt x="352" y="-3" on="0"/>
        <pt x="202" y="-3" on="0"/>
        <pt x="135" y="1" on="1"/>
        <pt x="106" y="3" on="0"/>
        <pt x="71" y="39" on="0"/>
        <pt x="68" y="62" on="1"/>
        <pt x="60" y="150" on="0"/>
        <pt x="60" y="527" on="0"/>
        <pt x="69" y="658" on="0"/>
        <pt x="96" y="700" on="0"/>
      </contour>
      <contour>
        <pt x="419" y="758" on="1"/>
        <pt x="148" y="758" on="1"/>
        <pt x="101" y="758" on="0"/>
        <pt x="101" y="787" on="1"/>
        <pt x="101" y="802" on="0"/>
        <pt x="141" y="883" on="1"/>
        <pt x="153" y="905" on="0"/>
        <pt x="174" y="905" on="1"/>
        <pt x="198" y="905" on="0"/>
        <pt x="332" y="855" on="0"/>
        <pt x="415" y="823" on="0"/>
        <pt x="444" y="812" on="0"/>
        <pt x="444" y="758" on="0"/>
      </contour>
    </TTGlyph>
    <TTGlyph name="Itilde" xMin="14" yMin="-3" xMax="532" yMax="988">
      <contour>
        <pt x="355" y="745" on="1"/>
        <pt x="310" y="745" on="0"/>
        <pt x="192" y="816" on="0"/>
        <pt x="141" y="816" on="0"/>
        <pt x="111" y="791" on="0"/>
        <pt x="98" y="760" on="1"/>
        <pt x="92" y="749" on="0"/>
        <pt x="82" y="749" on="1"/>
        <pt x="29" y="752" on="1"/>
        <pt x="19" y="755" on="0"/>
        <pt x="14" y="765" on="0"/>
        <pt x="14" y="778" on="1"/>
        <pt x="14" y="877" on="0"/>
        <pt x="110" y="988" on="0"/>
        <pt x="191" y="988" on="1"/>
        <pt x="236" y="988" on="0"/>
        <pt x="354" y="917" on="0"/>
        <pt x="405" y="917" on="0"/>
        <pt x="435" y="942" on="0"/>
        <pt x="448" y="973" on="1"/>
        <pt x="454" y="984" on="0"/>
        <pt x="464" y="984" on="1"/>
        <pt x="517" y="981" on="1"/>
        <pt x="527" y="978" on="0"/>
        <pt x="532" y="968" on="0"/>
        <pt x="532" y="955" on="1"/>
        <pt x="532" y="856" on="0"/>
        <pt x="436" y="745" on="0"/>
      </contour>
      <contour>
        <pt x="138" y="700" on="1"/>
        <pt x="406" y="700" on="1"/>
        <pt x="448" y="700" on="0"/>
        <pt x="475" y="658" on="0"/>
        <pt x="484" y="527" on="0"/>
        <pt x="484" y="150" on="0"/>
        <pt x="476" y="62" on="1"/>
        <pt x="473" y="39" on="0"/>
        <pt x="438" y="3" on="0"/>
        <pt x="409" y="1" on="1"/>
        <pt x="352" y="-3" on="0"/>
        <pt x="202" y="-3" on="0"/>
        <pt x="135" y="1" on="1"/>
        <pt x="106" y="3" on="0"/>
        <pt x="71" y="39" on="0"/>
        <pt x="68" y="62" on="1"/>
        <pt x="60" y="150" on="0"/>
        <pt x="60" y="527" on="0"/>
        <pt x="69" y="658" on="0"/>
        <pt x="96" y="700" on="0"/>
      </contour>
    </TTGlyph>
    <TTGlyph name="J" xMin="34" yMin="-20" xMax="597" yMax="700">
      <contour>
        <pt x="185" y="273" on="1"/>
        <pt x="182" y="581" on="1"/>
        <pt x="182" y="626" on="0"/>
        <pt x="183" y="639" on="1"/>
        <pt x="184" y="671" on="0"/>
        <pt x="213" y="700" on="0"/>
        <pt x="255" y="700" on="1"/>
        <pt x="523" y="700" on="1"/>
        <pt x="565" y="700" on="0"/>
        <pt x="594" y="671" on="0"/>
        <pt x="595" y="639" on="1"/>
        <pt x="597" y="576" on="0"/>
        <pt x="597" y="399" on="0"/>
        <pt x="593" y="273" on="1"/>
        <pt x="590" y="78" on="0"/>
        <pt x="392" y="16" on="1"/>
        <pt x="278" y="-20" on="0"/>
        <pt x="100" y="-20" on="1"/>
        <pt x="60" y="-20" on="0"/>
        <pt x="34" y="28" on="0"/>
        <pt x="34" y="147" on="0"/>
        <pt x="80" y="152" on="1"/>
        <pt x="136" y="159" on="0"/>
        <pt x="185" y="240" on="0"/>
      </contour>
    </TTGlyph>
    <TTGlyph name="Jcircumflex" xMin="34" yMin="-20" xMax="600" yMax="942">
      <contour>
        <pt x="357" y="942" on="1"/>
        <pt x="423" y="942" on="1"/>
        <pt x="443" y="942" on="0"/>
        <pt x="478" y="912" on="1"/>
        <pt x="595" y="810" on="1"/>
        <pt x="600" y="802" on="0"/>
        <pt x="600" y="794" on="1"/>
        <pt x="600" y="764" on="0"/>
        <pt x="577" y="737" on="0"/>
        <pt x="560" y="737" on="0"/>
        <pt x="554" y="740" on="1"/>
        <pt x="390" y="814" on="1"/>
        <pt x="226" y="740" on="1"/>
        <pt x="220" y="737" on="0"/>
        <pt x="203" y="737" on="0"/>
        <pt x="181" y="763" on="0"/>
        <pt x="179" y="801" on="0"/>
        <pt x="185" y="810" on="1"/>
        <pt x="302" y="912" on="1"/>
        <pt x="337" y="942" on="0"/>
      </contour>
      <contour>
        <pt x="185" y="273" on="1"/>
        <pt x="182" y="581" on="1"/>
        <pt x="182" y="626" on="0"/>
        <pt x="183" y="639" on="1"/>
        <pt x="184" y="671" on="0"/>
        <pt x="213" y="700" on="0"/>
        <pt x="255" y="700" on="1"/>
        <pt x="523" y="700" on="1"/>
        <pt x="565" y="700" on="0"/>
        <pt x="594" y="671" on="0"/>
        <pt x="595" y="639" on="1"/>
        <pt x="597" y="576" on="0"/>
        <pt x="597" y="399" on="0"/>
        <pt x="593" y="273" on="1"/>
        <pt x="590" y="78" on="0"/>
        <pt x="392" y="16" on="1"/>
        <pt x="278" y="-20" on="0"/>
        <pt x="100" y="-20" on="1"/>
        <pt x="60" y="-20" on="0"/>
        <pt x="34" y="28" on="0"/>
        <pt x="34" y="147" on="0"/>
        <pt x="80" y="152" on="1"/>
        <pt x="136" y="159" on="0"/>
        <pt x="185" y="240" on="0"/>
      </contour>
    </TTGlyph>
    <TTGlyph name="K" xMin="56" yMin="0" xMax="1022" yMax="701">
      <contour>
        <pt x="656" y="17" on="1"/>
        <pt x="539" y="157" on="1"/>
        <pt x="521" y="179" on="0"/>
        <pt x="502" y="179" on="1"/>
        <pt x="479" y="179" on="0"/>
        <pt x="479" y="141" on="1"/>
        <pt x="479" y="46" on="1"/>
        <pt x="479" y="28" on="0"/>
        <pt x="447" y="6" on="0"/>
        <pt x="425" y="4" on="1"/>
        <pt x="362" y="0" on="0"/>
        <pt x="203" y="0" on="0"/>
        <pt x="132" y="4" on="1"/>
        <pt x="102" y="6" on="0"/>
        <pt x="66" y="43" on="0"/>
        <pt x="64" y="66" on="1"/>
        <pt x="56" y="154" on="0"/>
        <pt x="56" y="525" on="0"/>
        <pt x="65" y="657" on="0"/>
        <pt x="92" y="700" on="0"/>
        <pt x="134" y="700" on="1"/>
        <pt x="402" y="700" on="1"/>
        <pt x="435" y="700" on="0"/>
        <pt x="479" y="648" on="0"/>
        <pt x="479" y="610" on="1"/>
        <pt x="480" y="498" on="1"/>
        <pt x="480" y="477" on="0"/>
        <pt x="491" y="477" on="1"/>
        <pt x="498" y="477" on="0"/>
        <pt x="519" y="494" on="1"/>
        <pt x="715" y="677" on="1"/>
        <pt x="739" y="700" on="0"/>
        <pt x="806" y="701" on="0"/>
        <pt x="844" y="701" on="1"/>
        <pt x="921" y="700" on="1"/>
        <pt x="937" y="700" on="0"/>
        <pt x="949" y="670" on="0"/>
        <pt x="937" y="658" on="1"/>
        <pt x="822" y="543" on="0"/>
        <pt x="707" y="445" on="1"/>
        <pt x="697" y="436" on="0"/>
        <pt x="697" y="417" on="0"/>
        <pt x="708" y="406" on="1"/>
        <pt x="762" y="352" on="1"/>
        <pt x="803" y="311" on="0"/>
        <pt x="856" y="259" on="0"/>
        <pt x="892" y="222" on="1"/>
        <pt x="964" y="148" on="0"/>
        <pt x="1002" y="102" on="1"/>
        <pt x="1022" y="78" on="0"/>
        <pt x="1022" y="53" on="1"/>
        <pt x="1022" y="44" on="0"/>
        <pt x="1019" y="34" on="1"/>
        <pt x="1008" y="0" on="0"/>
        <pt x="971" y="0" on="1"/>
        <pt x="702" y="0" on="1"/>
        <pt x="671" y="0" on="0"/>
      </contour>
    </TTGlyph>
    <TTGlyph name="L" xMin="56" yMin="-4" xMax="845" yMax="700">
      <contour>
        <pt x="477" y="459" on="1"/>
        <pt x="476" y="259" on="1"/>
        <pt x="476" y="215" on="0"/>
        <pt x="503" y="172" on="0"/>
        <pt x="546" y="172" on="1"/>
        <pt x="799" y="172" on="1"/>
        <pt x="845" y="171" on="0"/>
        <pt x="845" y="102" on="1"/>
        <pt x="845" y="49" on="0"/>
        <pt x="819" y="1" on="0"/>
        <pt x="779" y="0" on="1"/>
        <pt x="638" y="-4" on="0"/>
        <pt x="362" y="-4" on="0"/>
        <pt x="148" y="-2" on="1"/>
        <pt x="112" y="-2" on="0"/>
        <pt x="67" y="33" on="0"/>
        <pt x="64" y="64" on="1"/>
        <pt x="56" y="151" on="0"/>
        <pt x="56" y="526" on="0"/>
        <pt x="65" y="657" on="0"/>
        <pt x="93" y="700" on="0"/>
        <pt x="134" y="700" on="1"/>
        <pt x="402" y="700" on="1"/>
        <pt x="444" y="700" on="0"/>
        <pt x="471" y="656" on="0"/>
        <pt x="477" y="558" on="0"/>
      </contour>
    </TTGlyph>
    <TTGlyph name="Ldotaccent" xMin="56" yMin="-4" xMax="845" yMax="700">
      <contour>
        <pt x="596" y="412" on="0"/>
        <pt x="667" y="480" on="0"/>
        <pt x="787" y="480" on="0"/>
        <pt x="845" y="414" on="0"/>
        <pt x="845" y="327" on="0"/>
        <pt x="775" y="256" on="0"/>
        <pt x="670" y="256" on="0"/>
        <pt x="596" y="315" on="0"/>
      </contour>
      <contour>
        <pt x="477" y="459" on="1"/>
        <pt x="476" y="259" on="1"/>
        <pt x="476" y="215" on="0"/>
        <pt x="503" y="172" on="0"/>
        <pt x="546" y="172" on="1"/>
        <pt x="799" y="172" on="1"/>
        <pt x="845" y="171" on="0"/>
        <pt x="845" y="102" on="1"/>
        <pt x="845" y="49" on="0"/>
        <pt x="819" y="1" on="0"/>
        <pt x="779" y="0" on="1"/>
        <pt x="638" y="-4" on="0"/>
        <pt x="362" y="-4" on="0"/>
        <pt x="148" y="-2" on="1"/>
        <pt x="112" y="-2" on="0"/>
        <pt x="67" y="33" on="0"/>
        <pt x="64" y="64" on="1"/>
        <pt x="56" y="151" on="0"/>
        <pt x="56" y="526" on="0"/>
        <pt x="65" y="657" on="0"/>
        <pt x="93" y="700" on="0"/>
        <pt x="134" y="700" on="1"/>
        <pt x="402" y="700" on="1"/>
        <pt x="444" y="700" on="0"/>
        <pt x="471" y="656" on="0"/>
        <pt x="477" y="558" on="0"/>
      </contour>
    </TTGlyph>
    <TTGlyph name="Lslash" xMin="-9" yMin="-4" xMax="845" yMax="700">
      <contour>
        <pt x="14" y="255" on="1"/>
        <pt x="-9" y="255" on="0"/>
        <pt x="-9" y="348" on="0"/>
        <pt x="14" y="375" on="0"/>
        <pt x="40" y="380" on="1"/>
        <pt x="56" y="383" on="1"/>
        <pt x="56" y="537" on="0"/>
        <pt x="65" y="657" on="0"/>
        <pt x="93" y="700" on="0"/>
        <pt x="134" y="700" on="1"/>
        <pt x="402" y="700" on="1"/>
        <pt x="444" y="700" on="0"/>
        <pt x="471" y="656" on="0"/>
        <pt x="477" y="561" on="0"/>
        <pt x="477" y="470" on="1"/>
        <pt x="501" y="475" on="1"/>
        <pt x="514" y="477" on="0"/>
        <pt x="524" y="476" on="1"/>
        <pt x="548" y="475" on="0"/>
        <pt x="548" y="383" on="0"/>
        <pt x="525" y="356" on="0"/>
        <pt x="499" y="351" on="1"/>
        <pt x="476" y="346" on="1"/>
        <pt x="476" y="259" on="1"/>
        <pt x="476" y="215" on="0"/>
        <pt x="503" y="172" on="0"/>
        <pt x="546" y="172" on="1"/>
        <pt x="799" y="172" on="1"/>
        <pt x="845" y="171" on="0"/>
        <pt x="845" y="102" on="1"/>
        <pt x="845" y="49" on="0"/>
        <pt x="819" y="1" on="0"/>
        <pt x="779" y="0" on="1"/>
        <pt x="638" y="-4" on="0"/>
        <pt x="362" y="-4" on="0"/>
        <pt x="148" y="-2" on="1"/>
        <pt x="112" y="-2" on="0"/>
        <pt x="67" y="33" on="0"/>
        <pt x="64" y="64" on="1"/>
        <pt x="56" y="152" on="0"/>
        <pt x="56" y="260" on="1"/>
        <pt x="38" y="257" on="1"/>
        <pt x="25" y="255" on="0"/>
      </contour>
    </TTGlyph>
    <TTGlyph name="M" xMin="48" yMin="-17" xMax="1058" yMax="702">
      <contour>
        <pt x="447" y="602" on="0"/>
        <pt x="543" y="457" on="0"/>
        <pt x="581" y="409" on="0"/>
        <pt x="604" y="409" on="0"/>
        <pt x="622" y="435" on="0"/>
        <pt x="736" y="609" on="0"/>
        <pt x="810" y="700" on="0"/>
        <pt x="854" y="702" on="0"/>
        <pt x="924" y="702" on="0"/>
        <pt x="1018" y="698" on="0"/>
        <pt x="1049" y="653" on="0"/>
        <pt x="1052" y="612" on="1"/>
        <pt x="1058" y="507" on="0"/>
        <pt x="1058" y="160" on="0"/>
        <pt x="1049" y="60" on="1"/>
        <pt x="1047" y="36" on="0"/>
        <pt x="1015" y="-2" on="0"/>
        <pt x="987" y="-2" on="1"/>
        <pt x="926" y="-3" on="0"/>
        <pt x="777" y="-3" on="0"/>
        <pt x="733" y="0" on="1"/>
        <pt x="717" y="1" on="0"/>
        <pt x="692" y="24" on="0"/>
        <pt x="691" y="43" on="1"/>
        <pt x="685" y="208" on="1"/>
        <pt x="684" y="232" on="0"/>
        <pt x="665" y="238" on="0"/>
        <pt x="657" y="222" on="1"/>
        <pt x="604" y="128" on="0"/>
        <pt x="525" y="12" on="1"/>
        <pt x="506" y="-17" on="0"/>
        <pt x="444" y="-17" on="0"/>
        <pt x="424" y="12" on="1"/>
        <pt x="389" y="62" on="0"/>
        <pt x="305" y="224" on="1"/>
        <pt x="300" y="234" on="0"/>
        <pt x="287" y="238" on="0"/>
        <pt x="277" y="224" on="0"/>
        <pt x="277" y="208" on="1"/>
        <pt x="272" y="43" on="1"/>
        <pt x="271" y="24" on="0"/>
        <pt x="239" y="1" on="0"/>
        <pt x="218" y="0" on="1"/>
        <pt x="119" y="0" on="1"/>
        <pt x="92" y="1" on="0"/>
        <pt x="59" y="37" on="0"/>
        <pt x="56" y="60" on="1"/>
        <pt x="48" y="149" on="0"/>
        <pt x="48" y="524" on="0"/>
        <pt x="53" y="612" on="1"/>
        <pt x="56" y="654" on="0"/>
        <pt x="88" y="700" on="0"/>
        <pt x="129" y="700" on="1"/>
        <pt x="339" y="700" on="0"/>
        <pt x="373" y="694" on="0"/>
      </contour>
    </TTGlyph>
    <TTGlyph name="N" xMin="60" yMin="-1" xMax="913" yMax="700">
      <contour>
        <pt x="738" y="700" on="1"/>
        <pt x="845" y="700" on="1"/>
        <pt x="879" y="700" on="0"/>
        <pt x="906" y="678" on="0"/>
        <pt x="907" y="644" on="1"/>
        <pt x="913" y="492" on="0"/>
        <pt x="913" y="142" on="0"/>
        <pt x="906" y="61" on="1"/>
        <pt x="904" y="38" on="0"/>
        <pt x="873" y="0" on="0"/>
        <pt x="848" y="0" on="1"/>
        <pt x="681" y="0" on="1"/>
        <pt x="646" y="0" on="0"/>
        <pt x="604" y="25" on="1"/>
        <pt x="372" y="162" on="0"/>
        <pt x="312" y="192" on="1"/>
        <pt x="300" y="197" on="0"/>
        <pt x="285" y="180" on="0"/>
        <pt x="285" y="157" on="1"/>
        <pt x="285" y="46" on="1"/>
        <pt x="285" y="27" on="0"/>
        <pt x="271" y="16" on="1"/>
        <pt x="250" y="-1" on="0"/>
        <pt x="163" y="-1" on="1"/>
        <pt x="139" y="-1" on="0"/>
        <pt x="93" y="2" on="0"/>
        <pt x="64" y="40" on="0"/>
        <pt x="63" y="62" on="1"/>
        <pt x="60" y="182" on="0"/>
        <pt x="60" y="545" on="0"/>
        <pt x="62" y="655" on="0"/>
        <pt x="86" y="700" on="0"/>
        <pt x="120" y="700" on="1"/>
        <pt x="230" y="700" on="1"/>
        <pt x="264" y="700" on="0"/>
        <pt x="300" y="681" on="1"/>
        <pt x="610" y="520" on="0"/>
        <pt x="662" y="494" on="1"/>
        <pt x="679" y="486" on="0"/>
        <pt x="699" y="498" on="0"/>
        <pt x="699" y="514" on="1"/>
        <pt x="699" y="654" on="1"/>
        <pt x="699" y="674" on="0"/>
        <pt x="720" y="700" on="0"/>
      </contour>
    </TTGlyph>
    <TTGlyph name="Nacute" xMin="60" yMin="-1" xMax="913" yMax="905">
      <contour>
        <pt x="628" y="758" on="1"/>
        <pt x="357" y="758" on="1"/>
        <pt x="332" y="758" on="0"/>
        <pt x="332" y="812" on="0"/>
        <pt x="361" y="823" on="0"/>
        <pt x="444" y="855" on="0"/>
        <pt x="471" y="865" on="1"/>
        <pt x="578" y="905" on="0"/>
        <pt x="623" y="905" on="0"/>
        <pt x="635" y="883" on="1"/>
        <pt x="675" y="802" on="0"/>
        <pt x="675" y="787" on="1"/>
        <pt x="675" y="758" on="0"/>
      </contour>
      <contour>
        <pt x="738" y="700" on="1"/>
        <pt x="845" y="700" on="1"/>
        <pt x="879" y="700" on="0"/>
        <pt x="906" y="678" on="0"/>
        <pt x="907" y="644" on="1"/>
        <pt x="913" y="492" on="0"/>
        <pt x="913" y="142" on="0"/>
        <pt x="906" y="61" on="1"/>
        <pt x="904" y="38" on="0"/>
        <pt x="873" y="0" on="0"/>
        <pt x="848" y="0" on="1"/>
        <pt x="681" y="0" on="1"/>
        <pt x="646" y="0" on="0"/>
        <pt x="604" y="25" on="1"/>
        <pt x="372" y="162" on="0"/>
        <pt x="312" y="192" on="1"/>
        <pt x="300" y="197" on="0"/>
        <pt x="285" y="180" on="0"/>
        <pt x="285" y="157" on="1"/>
        <pt x="285" y="46" on="1"/>
        <pt x="285" y="27" on="0"/>
        <pt x="271" y="16" on="1"/>
        <pt x="250" y="-1" on="0"/>
        <pt x="163" y="-1" on="1"/>
        <pt x="139" y="-1" on="0"/>
        <pt x="93" y="2" on="0"/>
        <pt x="64" y="40" on="0"/>
        <pt x="63" y="62" on="1"/>
        <pt x="60" y="182" on="0"/>
        <pt x="60" y="545" on="0"/>
        <pt x="62" y="655" on="0"/>
        <pt x="86" y="700" on="0"/>
        <pt x="120" y="700" on="1"/>
        <pt x="230" y="700" on="1"/>
        <pt x="264" y="700" on="0"/>
        <pt x="300" y="681" on="1"/>
        <pt x="610" y="520" on="0"/>
        <pt x="662" y="494" on="1"/>
        <pt x="679" y="486" on="0"/>
        <pt x="699" y="498" on="0"/>
        <pt x="699" y="514" on="1"/>
        <pt x="699" y="654" on="1"/>
        <pt x="699" y="674" on="0"/>
        <pt x="720" y="700" on="0"/>
      </contour>
    </TTGlyph>
    <TTGlyph name="Ntilde" xMin="56" yMin="-1" xMax="913" yMax="983">
      <contour>
        <pt x="738" y="700" on="1"/>
        <pt x="845" y="700" on="1"/>
        <pt x="879" y="700" on="0"/>
        <pt x="906" y="678" on="0"/>
        <pt x="907" y="644" on="1"/>
        <pt x="913" y="492" on="0"/>
        <pt x="913" y="142" on="0"/>
        <pt x="906" y="61" on="1"/>
        <pt x="904" y="38" on="0"/>
        <pt x="873" y="0" on="0"/>
        <pt x="848" y="0" on="1"/>
        <pt x="681" y="0" on="1"/>
        <pt x="646" y="0" on="0"/>
        <pt x="604" y="25" on="1"/>
        <pt x="372" y="162" on="0"/>
        <pt x="312" y="192" on="1"/>
        <pt x="300" y="197" on="0"/>
        <pt x="285" y="180" on="0"/>
        <pt x="285" y="157" on="1"/>
        <pt x="285" y="46" on="1"/>
        <pt x="285" y="27" on="0"/>
        <pt x="271" y="16" on="1"/>
        <pt x="250" y="-1" on="0"/>
        <pt x="163" y="-1" on="1"/>
        <pt x="139" y="-1" on="0"/>
        <pt x="94" y="2" on="0"/>
        <pt x="65" y="39" on="0"/>
        <pt x="63" y="62" on="1"/>
        <pt x="56" y="152" on="0"/>
        <pt x="56" y="523" on="0"/>
        <pt x="64" y="657" on="0"/>
        <pt x="86" y="700" on="0"/>
        <pt x="120" y="700" on="1"/>
        <pt x="230" y="700" on="1"/>
        <pt x="264" y="700" on="0"/>
        <pt x="300" y="681" on="1"/>
        <pt x="610" y="520" on="0"/>
        <pt x="662" y="494" on="1"/>
        <pt x="679" y="486" on="0"/>
        <pt x="699" y="498" on="0"/>
        <pt x="699" y="514" on="1"/>
        <pt x="699" y="654" on="1"/>
        <pt x="699" y="674" on="0"/>
        <pt x="720" y="700" on="0"/>
      </contour>
      <contour>
        <pt x="573" y="740" on="1"/>
        <pt x="528" y="740" on="0"/>
        <pt x="410" y="811" on="0"/>
        <pt x="359" y="811" on="0"/>
        <pt x="329" y="786" on="0"/>
        <pt x="316" y="755" on="1"/>
        <pt x="310" y="744" on="0"/>
        <pt x="300" y="744" on="1"/>
        <pt x="247" y="747" on="1"/>
        <pt x="237" y="750" on="0"/>
        <pt x="232" y="760" on="0"/>
        <pt x="232" y="773" on="1"/>
        <pt x="232" y="872" on="0"/>
        <pt x="328" y="983" on="0"/>
        <pt x="409" y="983" on="1"/>
        <pt x="454" y="983" on="0"/>
        <pt x="572" y="912" on="0"/>
        <pt x="623" y="912" on="0"/>
        <pt x="653" y="937" on="0"/>
        <pt x="666" y="968" on="1"/>
        <pt x="672" y="979" on="0"/>
        <pt x="682" y="979" on="1"/>
        <pt x="735" y="976" on="1"/>
        <pt x="745" y="973" on="0"/>
        <pt x="750" y="963" on="0"/>
        <pt x="750" y="950" on="1"/>
        <pt x="750" y="851" on="0"/>
        <pt x="654" y="740" on="0"/>
      </contour>
    </TTGlyph>
    <TTGlyph name="O" xMin="40" yMin="-20" xMax="1003" yMax="723">
      <contour>
        <pt x="543" y="-20" on="1"/>
        <pt x="422" y="-20" on="0"/>
        <pt x="226" y="43" on="0"/>
        <pt x="104" y="149" on="0"/>
        <pt x="40" y="280" on="0"/>
        <pt x="40" y="422" on="0"/>
        <pt x="105" y="553" on="0"/>
        <pt x="226" y="659" on="0"/>
        <pt x="422" y="723" on="0"/>
        <pt x="656" y="723" on="0"/>
        <pt x="836" y="665" on="0"/>
        <pt x="891" y="615" on="1"/>
        <pt x="1003" y="513" on="0"/>
        <pt x="1003" y="373" on="1"/>
        <pt x="1003" y="302" on="0"/>
        <pt x="942" y="166" on="0"/>
        <pt x="829" y="55" on="0"/>
        <pt x="651" y="-16" on="0"/>
      </contour>
      <contour>
        <pt x="741" y="416" on="0"/>
        <pt x="673" y="487" on="0"/>
        <pt x="534" y="487" on="0"/>
        <pt x="452" y="413" on="0"/>
        <pt x="452" y="307" on="0"/>
        <pt x="538" y="243" on="0"/>
        <pt x="659" y="243" on="0"/>
        <pt x="741" y="321" on="0"/>
      </contour>
    </TTGlyph>
    <TTGlyph name="OE" xMin="40" yMin="-20" xMax="1392" yMax="723">
      <contour>
        <pt x="543" y="-20" on="1"/>
        <pt x="422" y="-20" on="0"/>
        <pt x="226" y="43" on="0"/>
        <pt x="104" y="149" on="0"/>
        <pt x="40" y="280" on="0"/>
        <pt x="40" y="422" on="0"/>
        <pt x="105" y="553" on="0"/>
        <pt x="226" y="659" on="0"/>
        <pt x="422" y="723" on="0"/>
        <pt x="647" y="723" on="0"/>
        <pt x="731" y="698" on="1"/>
        <pt x="802" y="700" on="0"/>
        <pt x="1315" y="700" on="1"/>
        <pt x="1374" y="700" on="0"/>
        <pt x="1374" y="625" on="1"/>
        <pt x="1374" y="566" on="0"/>
        <pt x="1322" y="566" on="1"/>
        <pt x="1102" y="566" on="1"/>
        <pt x="1081" y="566" on="0"/>
        <pt x="1056" y="538" on="0"/>
        <pt x="1056" y="516" on="1"/>
        <pt x="1056" y="444" on="1"/>
        <pt x="1056" y="414" on="0"/>
        <pt x="1083" y="414" on="1"/>
        <pt x="1265" y="414" on="1"/>
        <pt x="1281" y="414" on="0"/>
        <pt x="1298" y="408" on="0"/>
        <pt x="1312" y="379" on="0"/>
        <pt x="1312" y="313" on="0"/>
        <pt x="1289" y="291" on="0"/>
        <pt x="1263" y="291" on="1"/>
        <pt x="1100" y="291" on="1"/>
        <pt x="1075" y="291" on="0"/>
        <pt x="1056" y="266" on="0"/>
        <pt x="1056" y="240" on="1"/>
        <pt x="1056" y="191" on="1"/>
        <pt x="1056" y="148" on="0"/>
        <pt x="1097" y="148" on="1"/>
        <pt x="1346" y="148" on="1"/>
        <pt x="1364" y="148" on="0"/>
        <pt x="1392" y="127" on="0"/>
        <pt x="1392" y="56" on="0"/>
        <pt x="1358" y="0" on="0"/>
        <pt x="1335" y="0" on="1"/>
        <pt x="718" y="0" on="1"/>
        <pt x="706" y="0" on="0"/>
        <pt x="694" y="3" on="1"/>
        <pt x="625" y="-17" on="0"/>
      </contour>
      <contour>
        <pt x="640" y="278" on="1"/>
        <pt x="641" y="453" on="1"/>
        <pt x="641" y="472" on="0"/>
        <pt x="626" y="487" on="0"/>
        <pt x="603" y="487" on="1"/>
        <pt x="532" y="487" on="0"/>
        <pt x="452" y="412" on="0"/>
        <pt x="452" y="307" on="0"/>
        <pt x="539" y="243" on="0"/>
        <pt x="598" y="243" on="1"/>
        <pt x="640" y="243" on="0"/>
      </contour>
    </TTGlyph>
    <TTGlyph name="Oacute" xMin="40" yMin="-20" xMax="1003" yMax="905">
      <contour>
        <pt x="543" y="-20" on="1"/>
        <pt x="422" y="-20" on="0"/>
        <pt x="226" y="43" on="0"/>
        <pt x="104" y="149" on="0"/>
        <pt x="40" y="280" on="0"/>
        <pt x="40" y="422" on="0"/>
        <pt x="105" y="553" on="0"/>
        <pt x="226" y="659" on="0"/>
        <pt x="422" y="723" on="0"/>
        <pt x="656" y="723" on="0"/>
        <pt x="836" y="665" on="0"/>
        <pt x="891" y="615" on="1"/>
        <pt x="1003" y="513" on="0"/>
        <pt x="1003" y="373" on="1"/>
        <pt x="1003" y="302" on="0"/>
        <pt x="942" y="166" on="0"/>
        <pt x="829" y="55" on="0"/>
        <pt x="651" y="-16" on="0"/>
      </contour>
      <contour>
        <pt x="741" y="416" on="0"/>
        <pt x="673" y="487" on="0"/>
        <pt x="534" y="487" on="0"/>
        <pt x="452" y="413" on="0"/>
        <pt x="452" y="307" on="0"/>
        <pt x="538" y="243" on="0"/>
        <pt x="659" y="243" on="0"/>
        <pt x="741" y="321" on="0"/>
      </contour>
      <contour>
        <pt x="703" y="758" on="1"/>
        <pt x="432" y="758" on="1"/>
        <pt x="407" y="758" on="0"/>
        <pt x="407" y="812" on="0"/>
        <pt x="436" y="823" on="0"/>
        <pt x="519" y="855" on="0"/>
        <pt x="546" y="865" on="1"/>
        <pt x="653" y="905" on="0"/>
        <pt x="698" y="905" on="0"/>
        <pt x="710" y="883" on="1"/>
        <pt x="750" y="802" on="0"/>
        <pt x="750" y="787" on="1"/>
        <pt x="750" y="758" on="0"/>
      </contour>
    </TTGlyph>
    <TTGlyph name="Ocircumflex" xMin="40" yMin="-20" xMax="1003" yMax="942">
      <contour>
        <pt x="543" y="-20" on="1"/>
        <pt x="422" y="-20" on="0"/>
        <pt x="226" y="43" on="0"/>
        <pt x="104" y="149" on="0"/>
        <pt x="40" y="280" on="0"/>
        <pt x="40" y="422" on="0"/>
        <pt x="105" y="553" on="0"/>
        <pt x="226" y="659" on="0"/>
        <pt x="422" y="723" on="0"/>
        <pt x="656" y="723" on="0"/>
        <pt x="836" y="665" on="0"/>
        <pt x="891" y="615" on="1"/>
        <pt x="1003" y="513" on="0"/>
        <pt x="1003" y="373" on="1"/>
        <pt x="1003" y="302" on="0"/>
        <pt x="942" y="166" on="0"/>
        <pt x="829" y="55" on="0"/>
        <pt x="651" y="-16" on="0"/>
      </contour>
      <contour>
        <pt x="741" y="416" on="0"/>
        <pt x="673" y="487" on="0"/>
        <pt x="534" y="487" on="0"/>
        <pt x="452" y="413" on="0"/>
        <pt x="452" y="307" on="0"/>
        <pt x="538" y="243" on="0"/>
        <pt x="659" y="243" on="0"/>
        <pt x="741" y="321" on="0"/>
      </contour>
      <contour>
        <pt x="501" y="942" on="1"/>
        <pt x="567" y="942" on="1"/>
        <pt x="587" y="942" on="0"/>
        <pt x="622" y="912" on="1"/>
        <pt x="739" y="810" on="1"/>
        <pt x="744" y="802" on="0"/>
        <pt x="744" y="794" on="1"/>
        <pt x="744" y="764" on="0"/>
        <pt x="721" y="737" on="0"/>
        <pt x="704" y="737" on="0"/>
        <pt x="698" y="740" on="1"/>
        <pt x="534" y="814" on="1"/>
        <pt x="370" y="740" on="1"/>
        <pt x="364" y="737" on="0"/>
        <pt x="347" y="737" on="0"/>
        <pt x="325" y="763" on="0"/>
        <pt x="324" y="785" on="0"/>
        <pt x="324" y="802" on="0"/>
        <pt x="329" y="810" on="1"/>
        <pt x="446" y="912" on="1"/>
        <pt x="481" y="942" on="0"/>
      </contour>
    </TTGlyph>
    <TTGlyph name="Odieresis" xMin="40" yMin="-20" xMax="1003" yMax="917">
      <contour>
        <pt x="543" y="-20" on="1"/>
        <pt x="422" y="-20" on="0"/>
        <pt x="226" y="43" on="0"/>
        <pt x="104" y="149" on="0"/>
        <pt x="40" y="280" on="0"/>
        <pt x="40" y="422" on="0"/>
        <pt x="105" y="553" on="0"/>
        <pt x="226" y="659" on="0"/>
        <pt x="422" y="723" on="0"/>
        <pt x="656" y="723" on="0"/>
        <pt x="836" y="665" on="0"/>
        <pt x="891" y="615" on="1"/>
        <pt x="1003" y="513" on="0"/>
        <pt x="1003" y="373" on="1"/>
        <pt x="1003" y="302" on="0"/>
        <pt x="942" y="166" on="0"/>
        <pt x="829" y="55" on="0"/>
        <pt x="651" y="-16" on="0"/>
      </contour>
      <contour>
        <pt x="741" y="416" on="0"/>
        <pt x="673" y="487" on="0"/>
        <pt x="534" y="487" on="0"/>
        <pt x="452" y="413" on="0"/>
        <pt x="452" y="307" on="0"/>
        <pt x="538" y="243" on="0"/>
        <pt x="659" y="243" on="0"/>
        <pt x="741" y="321" on="0"/>
      </contour>
      <contour>
        <pt x="302" y="864" on="0"/>
        <pt x="360" y="917" on="0"/>
        <pt x="455" y="917" on="0"/>
        <pt x="501" y="866" on="0"/>
        <pt x="501" y="798" on="0"/>
        <pt x="445" y="743" on="0"/>
        <pt x="361" y="743" on="0"/>
        <pt x="302" y="789" on="0"/>
      </contour>
      <contour>
        <pt x="568" y="864" on="0"/>
        <pt x="626" y="917" on="0"/>
        <pt x="721" y="917" on="0"/>
        <pt x="767" y="866" on="0"/>
        <pt x="767" y="798" on="0"/>
        <pt x="711" y="743" on="0"/>
        <pt x="627" y="743" on="0"/>
        <pt x="568" y="789" on="0"/>
      </contour>
    </TTGlyph>
    <TTGlyph name="Ograve" xMin="40" yMin="-20" xMax="1003" yMax="905">
      <contour>
        <pt x="543" y="-20" on="1"/>
        <pt x="422" y="-20" on="0"/>
        <pt x="226" y="43" on="0"/>
        <pt x="104" y="149" on="0"/>
        <pt x="40" y="280" on="0"/>
        <pt x="40" y="422" on="0"/>
        <pt x="105" y="553" on="0"/>
        <pt x="226" y="659" on="0"/>
        <pt x="422" y="723" on="0"/>
        <pt x="656" y="723" on="0"/>
        <pt x="836" y="665" on="0"/>
        <pt x="891" y="615" on="1"/>
        <pt x="1003" y="513" on="0"/>
        <pt x="1003" y="373" on="1"/>
        <pt x="1003" y="302" on="0"/>
        <pt x="942" y="166" on="0"/>
        <pt x="829" y="55" on="0"/>
        <pt x="651" y="-16" on="0"/>
      </contour>
      <contour>
        <pt x="741" y="416" on="0"/>
        <pt x="673" y="487" on="0"/>
        <pt x="534" y="487" on="0"/>
        <pt x="452" y="413" on="0"/>
        <pt x="452" y="307" on="0"/>
        <pt x="538" y="243" on="0"/>
        <pt x="659" y="243" on="0"/>
        <pt x="741" y="321" on="0"/>
      </contour>
      <contour>
        <pt x="669" y="758" on="1"/>
        <pt x="398" y="758" on="1"/>
        <pt x="351" y="758" on="0"/>
        <pt x="351" y="787" on="1"/>
        <pt x="351" y="802" on="0"/>
        <pt x="391" y="883" on="1"/>
        <pt x="403" y="905" on="0"/>
        <pt x="424" y="905" on="1"/>
        <pt x="448" y="905" on="0"/>
        <pt x="582" y="855" on="0"/>
        <pt x="665" y="823" on="0"/>
        <pt x="694" y="812" on="0"/>
        <pt x="694" y="758" on="0"/>
      </contour>
    </TTGlyph>
    <TTGlyph name="Omega" xMin="60" yMin="-3" xMax="1006" yMax="721">
      <contour>
        <pt x="630" y="444" on="0"/>
        <pt x="583" y="534" on="0"/>
        <pt x="482" y="534" on="0"/>
        <pt x="436" y="444" on="0"/>
        <pt x="436" y="314" on="0"/>
        <pt x="461" y="196" on="0"/>
        <pt x="484" y="155" on="0"/>
        <pt x="493" y="143" on="1"/>
        <pt x="511" y="119" on="0"/>
        <pt x="511" y="101" on="1"/>
        <pt x="511" y="97" on="0"/>
        <pt x="505" y="38" on="0"/>
        <pt x="495" y="14" on="0"/>
        <pt x="486" y="8" on="1"/>
        <pt x="473" y="0" on="0"/>
        <pt x="395" y="-3" on="0"/>
        <pt x="178" y="-3" on="0"/>
        <pt x="85" y="1" on="0"/>
        <pt x="60" y="56" on="0"/>
        <pt x="60" y="135" on="0"/>
        <pt x="63" y="158" on="0"/>
        <pt x="79" y="178" on="0"/>
        <pt x="102" y="178" on="0"/>
        <pt x="127" y="174" on="0"/>
        <pt x="206" y="144" on="0"/>
        <pt x="222" y="144" on="0"/>
        <pt x="222" y="160" on="0"/>
        <pt x="214" y="167" on="1"/>
        <pt x="153" y="210" on="0"/>
        <pt x="92" y="349" on="0"/>
        <pt x="92" y="475" on="0"/>
        <pt x="143" y="585" on="0"/>
        <pt x="227" y="655" on="0"/>
        <pt x="343" y="702" on="0"/>
        <pt x="465" y="721" on="0"/>
        <pt x="601" y="721" on="0"/>
        <pt x="723" y="702" on="0"/>
        <pt x="839" y="655" on="0"/>
        <pt x="923" y="585" on="0"/>
        <pt x="974" y="475" on="0"/>
        <pt x="974" y="349" on="0"/>
        <pt x="913" y="210" on="0"/>
        <pt x="852" y="167" on="1"/>
        <pt x="844" y="160" on="0"/>
        <pt x="844" y="144" on="0"/>
        <pt x="860" y="144" on="0"/>
        <pt x="900" y="159" on="1"/>
        <pt x="950" y="178" on="0"/>
        <pt x="987" y="178" on="0"/>
        <pt x="1003" y="158" on="0"/>
        <pt x="1006" y="135" on="0"/>
        <pt x="1006" y="56" on="0"/>
        <pt x="981" y="1" on="0"/>
        <pt x="888" y="-3" on="0"/>
        <pt x="671" y="-3" on="0"/>
        <pt x="602" y="0" on="0"/>
        <pt x="588" y="3" on="0"/>
        <pt x="580" y="8" on="1"/>
        <pt x="563" y="19" on="0"/>
        <pt x="555" y="97" on="0"/>
        <pt x="555" y="113" on="0"/>
        <pt x="564" y="131" on="0"/>
        <pt x="582" y="155" on="0"/>
        <pt x="605" y="196" on="0"/>
        <pt x="630" y="314" on="0"/>
      </contour>
    </TTGlyph>
    <TTGlyph name="Oslash" xMin="40" yMin="-23" xMax="1003" yMax="726">
      <contour>
        <pt x="543" y="-20" on="1"/>
        <pt x="375" y="-20" on="0"/>
        <pt x="254" y="39" on="1"/>
        <pt x="226" y="14" on="1"/>
        <pt x="201" y="-23" on="0"/>
        <pt x="166" y="-23" on="1"/>
        <pt x="102" y="-23" on="1"/>
        <pt x="86" y="-23" on="0"/>
        <pt x="71" y="-1" on="0"/>
        <pt x="71" y="16" on="0"/>
        <pt x="78" y="26" on="1"/>
        <pt x="161" y="99" on="1"/>
        <pt x="40" y="202" on="0"/>
        <pt x="40" y="351" on="1"/>
        <pt x="40" y="422" on="0"/>
        <pt x="105" y="553" on="0"/>
        <pt x="226" y="659" on="0"/>
        <pt x="422" y="723" on="0"/>
        <pt x="696" y="723" on="0"/>
        <pt x="808" y="668" on="1"/>
        <pt x="831" y="689" on="1"/>
        <pt x="857" y="726" on="0"/>
        <pt x="892" y="726" on="1"/>
        <pt x="956" y="726" on="1"/>
        <pt x="971" y="726" on="0"/>
        <pt x="985" y="704" on="0"/>
        <pt x="985" y="688" on="0"/>
        <pt x="980" y="678" on="1"/>
        <pt x="899" y="607" on="1"/>
        <pt x="1003" y="512" on="0"/>
        <pt x="1003" y="373" on="1"/>
        <pt x="1003" y="302" on="0"/>
        <pt x="942" y="166" on="0"/>
        <pt x="829" y="55" on="0"/>
        <pt x="651" y="-16" on="0"/>
      </contour>
      <contour>
        <pt x="741" y="416" on="0"/>
        <pt x="673" y="487" on="0"/>
        <pt x="534" y="487" on="0"/>
        <pt x="452" y="413" on="0"/>
        <pt x="452" y="307" on="0"/>
        <pt x="538" y="243" on="0"/>
        <pt x="659" y="243" on="0"/>
        <pt x="741" y="321" on="0"/>
      </contour>
    </TTGlyph>
    <TTGlyph name="Otilde" xMin="40" yMin="-20" xMax="1003" yMax="995">
      <contour>
        <pt x="543" y="-20" on="1"/>
        <pt x="422" y="-20" on="0"/>
        <pt x="226" y="43" on="0"/>
        <pt x="104" y="149" on="0"/>
        <pt x="40" y="280" on="0"/>
        <pt x="40" y="422" on="0"/>
        <pt x="105" y="553" on="0"/>
        <pt x="226" y="659" on="0"/>
        <pt x="422" y="723" on="0"/>
        <pt x="656" y="723" on="0"/>
        <pt x="836" y="665" on="0"/>
        <pt x="891" y="615" on="1"/>
        <pt x="1003" y="513" on="0"/>
        <pt x="1003" y="373" on="1"/>
        <pt x="1003" y="302" on="0"/>
        <pt x="942" y="166" on="0"/>
        <pt x="829" y="55" on="0"/>
        <pt x="651" y="-16" on="0"/>
      </contour>
      <contour>
        <pt x="741" y="416" on="0"/>
        <pt x="673" y="487" on="0"/>
        <pt x="534" y="487" on="0"/>
        <pt x="452" y="413" on="0"/>
        <pt x="452" y="307" on="0"/>
        <pt x="538" y="243" on="0"/>
        <pt x="659" y="243" on="0"/>
        <pt x="741" y="321" on="0"/>
      </contour>
      <contour>
        <pt x="635" y="752" on="1"/>
        <pt x="590" y="752" on="0"/>
        <pt x="472" y="823" on="0"/>
        <pt x="421" y="823" on="0"/>
        <pt x="391" y="798" on="0"/>
        <pt x="378" y="767" on="1"/>
        <pt x="372" y="756" on="0"/>
        <pt x="362" y="756" on="1"/>
        <pt x="309" y="759" on="1"/>
        <pt x="299" y="762" on="0"/>
        <pt x="294" y="772" on="0"/>
        <pt x="294" y="785" on="1"/>
        <pt x="294" y="884" on="0"/>
        <pt x="390" y="995" on="0"/>
        <pt x="471" y="995" on="1"/>
        <pt x="516" y="995" on="0"/>
        <pt x="634" y="924" on="0"/>
        <pt x="685" y="924" on="0"/>
        <pt x="715" y="949" on="0"/>
        <pt x="728" y="980" on="1"/>
        <pt x="734" y="991" on="0"/>
        <pt x="744" y="991" on="1"/>
        <pt x="797" y="988" on="1"/>
        <pt x="807" y="985" on="0"/>
        <pt x="812" y="975" on="0"/>
        <pt x="812" y="962" on="1"/>
        <pt x="812" y="863" on="0"/>
        <pt x="716" y="752" on="0"/>
      </contour>
    </TTGlyph>
    <TTGlyph name="P" xMin="56" yMin="-4" xMax="857" yMax="702">
      <contour>
        <pt x="473" y="129" on="1"/>
        <pt x="473" y="45" on="1"/>
        <pt x="473" y="2" on="0"/>
        <pt x="356" y="-4" on="0"/>
        <pt x="219" y="-4" on="0"/>
        <pt x="131" y="1" on="1"/>
        <pt x="102" y="3" on="0"/>
        <pt x="67" y="39" on="0"/>
        <pt x="64" y="62" on="1"/>
        <pt x="56" y="150" on="0"/>
        <pt x="56" y="527" on="0"/>
        <pt x="68" y="699" on="0"/>
        <pt x="149" y="700" on="1"/>
        <pt x="242" y="702" on="0"/>
        <pt x="454" y="702" on="0"/>
        <pt x="701" y="696" on="0"/>
        <pt x="857" y="516" on="0"/>
        <pt x="857" y="300" on="0"/>
        <pt x="719" y="160" on="0"/>
        <pt x="586" y="160" on="1"/>
        <pt x="508" y="160" on="1"/>
        <pt x="495" y="160" on="0"/>
        <pt x="473" y="142" on="0"/>
      </contour>
      <contour>
        <pt x="472" y="491" on="1"/>
        <pt x="474" y="306" on="1"/>
        <pt x="474" y="287" on="0"/>
        <pt x="495" y="287" on="1"/>
        <pt x="557" y="287" on="0"/>
        <pt x="628" y="356" on="0"/>
        <pt x="628" y="450" on="0"/>
        <pt x="561" y="518" on="0"/>
        <pt x="496" y="518" on="1"/>
        <pt x="472" y="518" on="0"/>
      </contour>
    </TTGlyph>
    <TTGlyph name="Q" xMin="36" yMin="-22" xMax="1041" yMax="723">
      <contour>
        <pt x="756" y="23" on="1"/>
        <pt x="657" y="-20" on="0"/>
        <pt x="418" y="-20" on="0"/>
        <pt x="222" y="43" on="0"/>
        <pt x="100" y="149" on="0"/>
        <pt x="36" y="280" on="0"/>
        <pt x="36" y="422" on="0"/>
        <pt x="101" y="553" on="0"/>
        <pt x="222" y="659" on="0"/>
        <pt x="418" y="723" on="0"/>
        <pt x="652" y="723" on="0"/>
        <pt x="832" y="665" on="0"/>
        <pt x="887" y="615" on="1"/>
        <pt x="999" y="513" on="0"/>
        <pt x="999" y="373" on="1"/>
        <pt x="999" y="256" on="0"/>
        <pt x="923" y="154" on="1"/>
        <pt x="1018" y="145" on="1"/>
        <pt x="1041" y="142" on="0"/>
        <pt x="1041" y="88" on="0"/>
        <pt x="1018" y="14" on="0"/>
        <pt x="997" y="-22" on="0"/>
        <pt x="969" y="-22" on="1"/>
        <pt x="935" y="-22" on="0"/>
      </contour>
      <contour>
        <pt x="737" y="416" on="0"/>
        <pt x="669" y="487" on="0"/>
        <pt x="530" y="487" on="0"/>
        <pt x="448" y="413" on="0"/>
        <pt x="448" y="307" on="0"/>
        <pt x="534" y="243" on="0"/>
        <pt x="655" y="243" on="0"/>
        <pt x="737" y="321" on="0"/>
      </contour>
    </TTGlyph>
    <TTGlyph name="R" xMin="56" yMin="-4" xMax="876" yMax="701">
      <contour>
        <pt x="472" y="491" on="1"/>
        <pt x="474" y="306" on="1"/>
        <pt x="474" y="287" on="0"/>
        <pt x="495" y="287" on="1"/>
        <pt x="557" y="287" on="0"/>
        <pt x="628" y="356" on="0"/>
        <pt x="628" y="450" on="0"/>
        <pt x="561" y="518" on="0"/>
        <pt x="496" y="518" on="1"/>
        <pt x="472" y="518" on="0"/>
      </contour>
      <contour>
        <pt x="734" y="192" on="1"/>
        <pt x="753" y="172" on="0"/>
        <pt x="869" y="41" on="1"/>
        <pt x="876" y="32" on="0"/>
        <pt x="876" y="25" on="1"/>
        <pt x="876" y="-1" on="0"/>
        <pt x="853" y="-1" on="1"/>
        <pt x="800" y="-2" on="0"/>
        <pt x="693" y="-2" on="0"/>
        <pt x="640" y="-1" on="1"/>
        <pt x="611" y="-1" on="0"/>
        <pt x="587" y="22" on="1"/>
        <pt x="501" y="152" on="1"/>
        <pt x="496" y="158" on="0"/>
        <pt x="489" y="160" on="1"/>
        <pt x="473" y="166" on="0"/>
        <pt x="473" y="147" on="1"/>
        <pt x="473" y="45" on="1"/>
        <pt x="473" y="2" on="0"/>
        <pt x="360" y="-4" on="0"/>
        <pt x="226" y="-4" on="0"/>
        <pt x="131" y="1" on="1"/>
        <pt x="102" y="3" on="0"/>
        <pt x="67" y="39" on="0"/>
        <pt x="64" y="62" on="1"/>
        <pt x="56" y="150" on="0"/>
        <pt x="56" y="527" on="0"/>
        <pt x="68" y="699" on="0"/>
        <pt x="149" y="700" on="1"/>
        <pt x="225" y="701" on="0"/>
        <pt x="487" y="701" on="0"/>
        <pt x="573" y="699" on="1"/>
        <pt x="697" y="697" on="0"/>
        <pt x="855" y="517" on="0"/>
        <pt x="855" y="404" on="1"/>
        <pt x="855" y="338" on="0"/>
        <pt x="794" y="226" on="0"/>
      </contour>
    </TTGlyph>
    <TTGlyph name="Racute" xMin="56" yMin="-4" xMax="876" yMax="905">
      <contour>
        <pt x="596" y="758" on="1"/>
        <pt x="325" y="758" on="1"/>
        <pt x="300" y="758" on="0"/>
        <pt x="300" y="812" on="0"/>
        <pt x="329" y="823" on="0"/>
        <pt x="412" y="855" on="0"/>
        <pt x="439" y="865" on="1"/>
        <pt x="546" y="905" on="0"/>
        <pt x="591" y="905" on="0"/>
        <pt x="603" y="883" on="1"/>
        <pt x="643" y="802" on="0"/>
        <pt x="643" y="787" on="1"/>
        <pt x="643" y="758" on="0"/>
      </contour>
      <contour>
        <pt x="472" y="491" on="1"/>
        <pt x="474" y="306" on="1"/>
        <pt x="474" y="287" on="0"/>
        <pt x="495" y="287" on="1"/>
        <pt x="557" y="287" on="0"/>
        <pt x="628" y="356" on="0"/>
        <pt x="628" y="450" on="0"/>
        <pt x="561" y="518" on="0"/>
        <pt x="496" y="518" on="1"/>
        <pt x="472" y="518" on="0"/>
      </contour>
      <contour>
        <pt x="734" y="192" on="1"/>
        <pt x="753" y="172" on="0"/>
        <pt x="869" y="41" on="1"/>
        <pt x="876" y="32" on="0"/>
        <pt x="876" y="25" on="1"/>
        <pt x="876" y="-1" on="0"/>
        <pt x="853" y="-1" on="1"/>
        <pt x="800" y="-2" on="0"/>
        <pt x="693" y="-2" on="0"/>
        <pt x="640" y="-1" on="1"/>
        <pt x="611" y="-1" on="0"/>
        <pt x="587" y="22" on="1"/>
        <pt x="501" y="152" on="1"/>
        <pt x="496" y="158" on="0"/>
        <pt x="489" y="160" on="1"/>
        <pt x="473" y="166" on="0"/>
        <pt x="473" y="147" on="1"/>
        <pt x="473" y="45" on="1"/>
        <pt x="473" y="2" on="0"/>
        <pt x="360" y="-4" on="0"/>
        <pt x="226" y="-4" on="0"/>
        <pt x="131" y="1" on="1"/>
        <pt x="102" y="3" on="0"/>
        <pt x="67" y="39" on="0"/>
        <pt x="64" y="62" on="1"/>
        <pt x="56" y="150" on="0"/>
        <pt x="56" y="527" on="0"/>
        <pt x="68" y="699" on="0"/>
        <pt x="149" y="700" on="1"/>
        <pt x="225" y="701" on="0"/>
        <pt x="487" y="701" on="0"/>
        <pt x="573" y="699" on="1"/>
        <pt x="697" y="697" on="0"/>
        <pt x="855" y="517" on="0"/>
        <pt x="855" y="404" on="1"/>
        <pt x="855" y="338" on="0"/>
        <pt x="794" y="226" on="0"/>
      </contour>
    </TTGlyph>
    <TTGlyph name="Rcaron" xMin="64" yMin="-4" xMax="884" yMax="964">
      <contour>
        <pt x="508" y="759" on="1"/>
        <pt x="442" y="759" on="1"/>
        <pt x="422" y="759" on="0"/>
        <pt x="387" y="789" on="1"/>
        <pt x="270" y="891" on="1"/>
        <pt x="264" y="900" on="0"/>
        <pt x="266" y="938" on="0"/>
        <pt x="288" y="964" on="0"/>
        <pt x="305" y="964" on="0"/>
        <pt x="311" y="961" on="1"/>
        <pt x="475" y="887" on="1"/>
        <pt x="639" y="961" on="1"/>
        <pt x="645" y="964" on="0"/>
        <pt x="662" y="964" on="0"/>
        <pt x="684" y="938" on="0"/>
        <pt x="686" y="900" on="0"/>
        <pt x="680" y="891" on="1"/>
        <pt x="563" y="789" on="1"/>
        <pt x="528" y="759" on="0"/>
      </contour>
      <contour>
        <pt x="480" y="491" on="1"/>
        <pt x="482" y="306" on="1"/>
        <pt x="482" y="287" on="0"/>
        <pt x="503" y="287" on="1"/>
        <pt x="565" y="287" on="0"/>
        <pt x="636" y="356" on="0"/>
        <pt x="636" y="450" on="0"/>
        <pt x="569" y="518" on="0"/>
        <pt x="504" y="518" on="1"/>
        <pt x="480" y="518" on="0"/>
      </contour>
      <contour>
        <pt x="742" y="192" on="1"/>
        <pt x="761" y="172" on="0"/>
        <pt x="877" y="41" on="1"/>
        <pt x="884" y="32" on="0"/>
        <pt x="884" y="25" on="1"/>
        <pt x="884" y="-1" on="0"/>
        <pt x="861" y="-1" on="1"/>
        <pt x="808" y="-2" on="0"/>
        <pt x="701" y="-2" on="0"/>
        <pt x="648" y="-1" on="1"/>
        <pt x="619" y="-1" on="0"/>
        <pt x="595" y="22" on="1"/>
        <pt x="509" y="152" on="1"/>
        <pt x="504" y="158" on="0"/>
        <pt x="497" y="160" on="1"/>
        <pt x="481" y="166" on="0"/>
        <pt x="481" y="147" on="1"/>
        <pt x="481" y="45" on="1"/>
        <pt x="481" y="2" on="0"/>
        <pt x="368" y="-4" on="0"/>
        <pt x="234" y="-4" on="0"/>
        <pt x="139" y="1" on="1"/>
        <pt x="110" y="3" on="0"/>
        <pt x="75" y="39" on="0"/>
        <pt x="72" y="62" on="1"/>
        <pt x="64" y="150" on="0"/>
        <pt x="64" y="527" on="0"/>
        <pt x="76" y="699" on="0"/>
        <pt x="157" y="700" on="1"/>
        <pt x="233" y="701" on="0"/>
        <pt x="495" y="701" on="0"/>
        <pt x="581" y="699" on="1"/>
        <pt x="705" y="697" on="0"/>
        <pt x="863" y="517" on="0"/>
        <pt x="863" y="404" on="1"/>
        <pt x="863" y="338" on="0"/>
        <pt x="802" y="226" on="0"/>
      </contour>
    </TTGlyph>
    <TTGlyph name="Rcommaaccent" xMin="56" yMin="-215" xMax="876" yMax="701">
      <contour>
        <pt x="472" y="491" on="1"/>
        <pt x="474" y="306" on="1"/>
        <pt x="474" y="287" on="0"/>
        <pt x="495" y="287" on="1"/>
        <pt x="557" y="287" on="0"/>
        <pt x="628" y="356" on="0"/>
        <pt x="628" y="450" on="0"/>
        <pt x="561" y="518" on="0"/>
        <pt x="496" y="518" on="1"/>
        <pt x="472" y="518" on="0"/>
      </contour>
      <contour>
        <pt x="734" y="192" on="1"/>
        <pt x="753" y="172" on="0"/>
        <pt x="869" y="41" on="1"/>
        <pt x="876" y="32" on="0"/>
        <pt x="876" y="25" on="1"/>
        <pt x="876" y="-1" on="0"/>
        <pt x="853" y="-1" on="1"/>
        <pt x="800" y="-2" on="0"/>
        <pt x="693" y="-2" on="0"/>
        <pt x="640" y="-1" on="1"/>
        <pt x="611" y="-1" on="0"/>
        <pt x="587" y="22" on="1"/>
        <pt x="501" y="152" on="1"/>
        <pt x="496" y="158" on="0"/>
        <pt x="489" y="160" on="1"/>
        <pt x="473" y="166" on="0"/>
        <pt x="473" y="147" on="1"/>
        <pt x="473" y="45" on="1"/>
        <pt x="473" y="2" on="0"/>
        <pt x="360" y="-4" on="0"/>
        <pt x="226" y="-4" on="0"/>
        <pt x="131" y="1" on="1"/>
        <pt x="102" y="3" on="0"/>
        <pt x="67" y="39" on="0"/>
        <pt x="64" y="62" on="1"/>
        <pt x="56" y="150" on="0"/>
        <pt x="56" y="527" on="0"/>
        <pt x="68" y="699" on="0"/>
        <pt x="149" y="700" on="1"/>
        <pt x="225" y="701" on="0"/>
        <pt x="487" y="701" on="0"/>
        <pt x="573" y="699" on="1"/>
        <pt x="697" y="697" on="0"/>
        <pt x="855" y="517" on="0"/>
        <pt x="855" y="404" on="1"/>
        <pt x="855" y="338" on="0"/>
        <pt x="794" y="226" on="0"/>
      </contour>
      <contour>
        <pt x="387" y="-215" on="0"/>
        <pt x="364" y="-183" on="0"/>
        <pt x="364" y="-159" on="0"/>
        <pt x="375" y="-155" on="1"/>
        <pt x="440" y="-133" on="0"/>
        <pt x="449" y="-82" on="1"/>
        <pt x="453" y="-60" on="0"/>
        <pt x="457" y="-54" on="1"/>
        <pt x="470" y="-35" on="0"/>
        <pt x="514" y="-35" on="1"/>
        <pt x="563" y="-35" on="1"/>
        <pt x="606" y="-35" on="0"/>
        <pt x="606" y="-73" on="1"/>
        <pt x="606" y="-101" on="0"/>
        <pt x="557" y="-167" on="0"/>
        <pt x="441" y="-215" on="0"/>
        <pt x="397" y="-215" on="1"/>
      </contour>
    </TTGlyph>
    <TTGlyph name="S" xMin="38" yMin="-20" xMax="779" yMax="723">
      <contour>
        <pt x="284" y="-20" on="0"/>
        <pt x="135" y="18" on="0"/>
        <pt x="74" y="56" on="0"/>
        <pt x="64" y="64" on="1"/>
        <pt x="38" y="85" on="0"/>
        <pt x="38" y="122" on="1"/>
        <pt x="38" y="151" on="0"/>
        <pt x="45" y="177" on="1"/>
        <pt x="58" y="226" on="0"/>
        <pt x="92" y="226" on="1"/>
        <pt x="103" y="225" on="0"/>
        <pt x="222" y="181" on="0"/>
        <pt x="256" y="181" on="1"/>
        <pt x="307" y="181" on="0"/>
        <pt x="307" y="221" on="1"/>
        <pt x="307" y="245" on="0"/>
        <pt x="257" y="286" on="0"/>
        <pt x="186" y="324" on="0"/>
        <pt x="114" y="373" on="0"/>
        <pt x="64" y="460" on="0"/>
        <pt x="64" y="518" on="1"/>
        <pt x="64" y="614" on="0"/>
        <pt x="252" y="723" on="0"/>
        <pt x="550" y="723" on="0"/>
        <pt x="725" y="662" on="0"/>
        <pt x="725" y="608" on="1"/>
        <pt x="725" y="569" on="0"/>
        <pt x="689" y="510" on="0"/>
        <pt x="669" y="510" on="1"/>
        <pt x="662" y="510" on="0"/>
        <pt x="583" y="541" on="0"/>
        <pt x="551" y="541" on="1"/>
        <pt x="488" y="541" on="0"/>
        <pt x="488" y="492" on="1"/>
        <pt x="488" y="468" on="0"/>
        <pt x="548" y="428" on="0"/>
        <pt x="633" y="391" on="0"/>
        <pt x="719" y="345" on="0"/>
        <pt x="779" y="265" on="0"/>
        <pt x="779" y="151" on="0"/>
        <pt x="706" y="57" on="0"/>
        <pt x="646" y="31" on="1"/>
        <pt x="527" y="-20" on="0"/>
        <pt x="370" y="-20" on="1"/>
      </contour>
    </TTGlyph>
    <TTGlyph name="Scaron" xMin="38" yMin="-20" xMax="779" yMax="964">
      <contour>
        <pt x="284" y="-20" on="0"/>
        <pt x="135" y="18" on="0"/>
        <pt x="74" y="56" on="0"/>
        <pt x="64" y="64" on="1"/>
        <pt x="38" y="85" on="0"/>
        <pt x="38" y="122" on="1"/>
        <pt x="38" y="151" on="0"/>
        <pt x="45" y="177" on="1"/>
        <pt x="58" y="226" on="0"/>
        <pt x="92" y="226" on="1"/>
        <pt x="103" y="225" on="0"/>
        <pt x="222" y="181" on="0"/>
        <pt x="256" y="181" on="1"/>
        <pt x="307" y="181" on="0"/>
        <pt x="307" y="221" on="1"/>
        <pt x="307" y="245" on="0"/>
        <pt x="257" y="286" on="0"/>
        <pt x="186" y="324" on="0"/>
        <pt x="114" y="373" on="0"/>
        <pt x="64" y="460" on="0"/>
        <pt x="64" y="518" on="1"/>
        <pt x="64" y="614" on="0"/>
        <pt x="252" y="723" on="0"/>
        <pt x="550" y="723" on="0"/>
        <pt x="725" y="662" on="0"/>
        <pt x="725" y="608" on="1"/>
        <pt x="725" y="569" on="0"/>
        <pt x="689" y="510" on="0"/>
        <pt x="669" y="510" on="1"/>
        <pt x="662" y="510" on="0"/>
        <pt x="583" y="541" on="0"/>
        <pt x="551" y="541" on="1"/>
        <pt x="488" y="541" on="0"/>
        <pt x="488" y="492" on="1"/>
        <pt x="488" y="468" on="0"/>
        <pt x="548" y="428" on="0"/>
        <pt x="633" y="391" on="0"/>
        <pt x="719" y="345" on="0"/>
        <pt x="779" y="265" on="0"/>
        <pt x="779" y="151" on="0"/>
        <pt x="706" y="57" on="0"/>
        <pt x="646" y="31" on="1"/>
        <pt x="527" y="-20" on="0"/>
        <pt x="370" y="-20" on="1"/>
      </contour>
      <contour>
        <pt x="427" y="759" on="1"/>
        <pt x="361" y="759" on="1"/>
        <pt x="341" y="759" on="0"/>
        <pt x="306" y="789" on="1"/>
        <pt x="189" y="891" on="1"/>
        <pt x="184" y="899" on="0"/>
        <pt x="184" y="908" on="1"/>
        <pt x="184" y="937" on="0"/>
        <pt x="207" y="964" on="0"/>
        <pt x="224" y="964" on="0"/>
        <pt x="230" y="961" on="1"/>
        <pt x="394" y="887" on="1"/>
        <pt x="558" y="961" on="1"/>
        <pt x="564" y="964" on="0"/>
        <pt x="581" y="964" on="0"/>
        <pt x="603" y="938" on="0"/>
        <pt x="604" y="916" on="0"/>
        <pt x="604" y="899" on="0"/>
        <pt x="599" y="891" on="1"/>
        <pt x="482" y="789" on="1"/>
        <pt x="447" y="759" on="0"/>
      </contour>
    </TTGlyph>
    <TTGlyph name="T" xMin="35" yMin="-4" xMax="803" yMax="702">
      <contour>
        <pt x="629" y="61" on="1"/>
        <pt x="628" y="39" on="0"/>
        <pt x="592" y="2" on="0"/>
        <pt x="562" y="0" on="1"/>
        <pt x="505" y="-4" on="0"/>
        <pt x="345" y="-4" on="0"/>
        <pt x="278" y="0" on="1"/>
        <pt x="248" y="2" on="0"/>
        <pt x="212" y="39" on="0"/>
        <pt x="211" y="61" on="1"/>
        <pt x="208" y="213" on="0"/>
        <pt x="208" y="428" on="0"/>
        <pt x="209" y="478" on="1"/>
        <pt x="209" y="516" on="0"/>
        <pt x="175" y="516" on="1"/>
        <pt x="85" y="516" on="1"/>
        <pt x="64" y="516" on="0"/>
        <pt x="38" y="536" on="0"/>
        <pt x="35" y="586" on="0"/>
        <pt x="35" y="640" on="0"/>
        <pt x="38" y="679" on="0"/>
        <pt x="67" y="700" on="0"/>
        <pt x="84" y="700" on="1"/>
        <pt x="214" y="702" on="0"/>
        <pt x="658" y="702" on="0"/>
        <pt x="754" y="700" on="1"/>
        <pt x="771" y="699" on="0"/>
        <pt x="800" y="679" on="0"/>
        <pt x="803" y="640" on="0"/>
        <pt x="803" y="588" on="0"/>
        <pt x="802" y="564" on="1"/>
        <pt x="799" y="519" on="0"/>
        <pt x="753" y="519" on="1"/>
        <pt x="663" y="519" on="1"/>
        <pt x="629" y="519" on="0"/>
        <pt x="629" y="484" on="1"/>
        <pt x="632" y="358" on="0"/>
        <pt x="632" y="154" on="0"/>
      </contour>
    </TTGlyph>
    <TTGlyph name="Thorn" xMin="60" yMin="-3" xMax="869" yMax="700">
      <contour>
        <pt x="138" y="700" on="1"/>
        <pt x="406" y="700" on="1"/>
        <pt x="448" y="700" on="0"/>
        <pt x="475" y="658" on="0"/>
        <pt x="478" y="609" on="1"/>
        <pt x="478" y="604" on="0"/>
        <pt x="479" y="600" on="1"/>
        <pt x="508" y="600" on="0"/>
        <pt x="588" y="598" on="1"/>
        <pt x="715" y="596" on="0"/>
        <pt x="869" y="447" on="0"/>
        <pt x="869" y="246" on="0"/>
        <pt x="731" y="106" on="0"/>
        <pt x="598" y="106" on="1"/>
        <pt x="479" y="106" on="1"/>
        <pt x="476" y="62" on="1"/>
        <pt x="474" y="40" on="0"/>
        <pt x="439" y="3" on="0"/>
        <pt x="409" y="1" on="1"/>
        <pt x="352" y="-3" on="0"/>
        <pt x="202" y="-3" on="0"/>
        <pt x="135" y="1" on="1"/>
        <pt x="106" y="3" on="0"/>
        <pt x="71" y="39" on="0"/>
        <pt x="68" y="62" on="1"/>
        <pt x="60" y="150" on="0"/>
        <pt x="60" y="527" on="0"/>
        <pt x="69" y="658" on="0"/>
        <pt x="96" y="700" on="0"/>
      </contour>
      <contour>
        <pt x="484" y="452" on="1"/>
        <pt x="486" y="252" on="1"/>
        <pt x="486" y="231" on="0"/>
        <pt x="507" y="231" on="1"/>
        <pt x="570" y="231" on="0"/>
        <pt x="641" y="306" on="0"/>
        <pt x="641" y="408" on="0"/>
        <pt x="574" y="481" on="0"/>
        <pt x="509" y="481" on="1"/>
        <pt x="484" y="481" on="0"/>
      </contour>
    </TTGlyph>
    <TTGlyph name="U" xMin="38" yMin="-20" xMax="845" yMax="700">
      <contour>
        <pt x="448" y="595" on="1"/>
        <pt x="446" y="504" on="1"/>
        <pt x="446" y="311" on="1"/>
        <pt x="446" y="269" on="0"/>
        <pt x="498" y="223" on="0"/>
        <pt x="568" y="223" on="0"/>
        <pt x="619" y="269" on="0"/>
        <pt x="619" y="311" on="1"/>
        <pt x="619" y="609" on="1"/>
        <pt x="619" y="656" on="0"/>
        <pt x="644" y="700" on="0"/>
        <pt x="686" y="700" on="1"/>
        <pt x="778" y="700" on="1"/>
        <pt x="810" y="700" on="0"/>
        <pt x="822" y="681" on="1"/>
        <pt x="845" y="647" on="0"/>
        <pt x="845" y="418" on="1"/>
        <pt x="845" y="343" on="0"/>
        <pt x="843" y="303" on="1"/>
        <pt x="840" y="222" on="0"/>
        <pt x="771" y="95" on="0"/>
        <pt x="717" y="57" on="1"/>
        <pt x="608" y="-20" on="0"/>
        <pt x="470" y="-20" on="1"/>
        <pt x="288" y="-20" on="0"/>
        <pt x="169" y="65" on="1"/>
        <pt x="109" y="108" on="0"/>
        <pt x="40" y="251" on="0"/>
        <pt x="39" y="346" on="1"/>
        <pt x="38" y="393" on="0"/>
        <pt x="38" y="576" on="0"/>
        <pt x="43" y="657" on="0"/>
        <pt x="70" y="700" on="0"/>
        <pt x="111" y="700" on="1"/>
        <pt x="378" y="700" on="1"/>
        <pt x="418" y="700" on="0"/>
        <pt x="431" y="679" on="1"/>
        <pt x="448" y="652" on="0"/>
      </contour>
    </TTGlyph>
    <TTGlyph name="Uacute" xMin="38" yMin="-20" xMax="845" yMax="905">
      <contour>
        <pt x="448" y="595" on="1"/>
        <pt x="446" y="504" on="1"/>
        <pt x="446" y="311" on="1"/>
        <pt x="446" y="269" on="0"/>
        <pt x="498" y="223" on="0"/>
        <pt x="568" y="223" on="0"/>
        <pt x="619" y="269" on="0"/>
        <pt x="619" y="311" on="1"/>
        <pt x="619" y="609" on="1"/>
        <pt x="619" y="656" on="0"/>
        <pt x="644" y="700" on="0"/>
        <pt x="686" y="700" on="1"/>
        <pt x="778" y="700" on="1"/>
        <pt x="810" y="700" on="0"/>
        <pt x="822" y="681" on="1"/>
        <pt x="845" y="647" on="0"/>
        <pt x="845" y="418" on="1"/>
        <pt x="845" y="343" on="0"/>
        <pt x="843" y="303" on="1"/>
        <pt x="840" y="222" on="0"/>
        <pt x="771" y="95" on="0"/>
        <pt x="717" y="57" on="1"/>
        <pt x="608" y="-20" on="0"/>
        <pt x="470" y="-20" on="1"/>
        <pt x="288" y="-20" on="0"/>
        <pt x="169" y="65" on="1"/>
        <pt x="109" y="108" on="0"/>
        <pt x="40" y="251" on="0"/>
        <pt x="39" y="346" on="1"/>
        <pt x="38" y="393" on="0"/>
        <pt x="38" y="576" on="0"/>
        <pt x="43" y="657" on="0"/>
        <pt x="70" y="700" on="0"/>
        <pt x="111" y="700" on="1"/>
        <pt x="378" y="700" on="1"/>
        <pt x="418" y="700" on="0"/>
        <pt x="431" y="679" on="1"/>
        <pt x="448" y="652" on="0"/>
      </contour>
      <contour>
        <pt x="679" y="758" on="1"/>
        <pt x="408" y="758" on="1"/>
        <pt x="383" y="758" on="0"/>
        <pt x="383" y="812" on="0"/>
        <pt x="412" y="823" on="0"/>
        <pt x="495" y="855" on="0"/>
        <pt x="522" y="865" on="1"/>
        <pt x="629" y="905" on="0"/>
        <pt x="674" y="905" on="0"/>
        <pt x="686" y="883" on="1"/>
        <pt x="726" y="802" on="0"/>
        <pt x="726" y="787" on="1"/>
        <pt x="726" y="758" on="0"/>
      </contour>
    </TTGlyph>
    <TTGlyph name="Ucircumflex" xMin="38" yMin="-20" xMax="845" yMax="942">
      <contour>
        <pt x="448" y="595" on="1"/>
        <pt x="446" y="504" on="1"/>
        <pt x="446" y="311" on="1"/>
        <pt x="446" y="269" on="0"/>
        <pt x="498" y="223" on="0"/>
        <pt x="568" y="223" on="0"/>
        <pt x="619" y="269" on="0"/>
        <pt x="619" y="311" on="1"/>
        <pt x="619" y="609" on="1"/>
        <pt x="619" y="656" on="0"/>
        <pt x="644" y="700" on="0"/>
        <pt x="686" y="700" on="1"/>
        <pt x="778" y="700" on="1"/>
        <pt x="810" y="700" on="0"/>
        <pt x="822" y="681" on="1"/>
        <pt x="845" y="647" on="0"/>
        <pt x="845" y="418" on="1"/>
        <pt x="845" y="343" on="0"/>
        <pt x="843" y="303" on="1"/>
        <pt x="840" y="222" on="0"/>
        <pt x="771" y="95" on="0"/>
        <pt x="717" y="57" on="1"/>
        <pt x="608" y="-20" on="0"/>
        <pt x="470" y="-20" on="1"/>
        <pt x="288" y="-20" on="0"/>
        <pt x="169" y="65" on="1"/>
        <pt x="109" y="108" on="0"/>
        <pt x="40" y="251" on="0"/>
        <pt x="39" y="346" on="1"/>
        <pt x="38" y="393" on="0"/>
        <pt x="38" y="576" on="0"/>
        <pt x="43" y="657" on="0"/>
        <pt x="70" y="700" on="0"/>
        <pt x="111" y="700" on="1"/>
        <pt x="378" y="700" on="1"/>
        <pt x="418" y="700" on="0"/>
        <pt x="431" y="679" on="1"/>
        <pt x="448" y="652" on="0"/>
      </contour>
      <contour>
        <pt x="499" y="942" on="1"/>
        <pt x="565" y="942" on="1"/>
        <pt x="585" y="942" on="0"/>
        <pt x="620" y="912" on="1"/>
        <pt x="737" y="810" on="1"/>
        <pt x="742" y="802" on="0"/>
        <pt x="742" y="794" on="1"/>
        <pt x="742" y="764" on="0"/>
        <pt x="719" y="737" on="0"/>
        <pt x="702" y="737" on="0"/>
        <pt x="696" y="740" on="1"/>
        <pt x="532" y="814" on="1"/>
        <pt x="368" y="740" on="1"/>
        <pt x="362" y="737" on="0"/>
        <pt x="345" y="737" on="0"/>
        <pt x="323" y="763" on="0"/>
        <pt x="322" y="785" on="0"/>
        <pt x="322" y="802" on="0"/>
        <pt x="327" y="810" on="1"/>
        <pt x="444" y="912" on="1"/>
        <pt x="479" y="942" on="0"/>
      </contour>
    </TTGlyph>
    <TTGlyph name="Udieresis" xMin="38" yMin="-20" xMax="845" yMax="917">
      <contour>
        <pt x="448" y="595" on="1"/>
        <pt x="446" y="504" on="1"/>
        <pt x="446" y="311" on="1"/>
        <pt x="446" y="269" on="0"/>
        <pt x="498" y="223" on="0"/>
        <pt x="568" y="223" on="0"/>
        <pt x="619" y="269" on="0"/>
        <pt x="619" y="311" on="1"/>
        <pt x="619" y="609" on="1"/>
        <pt x="619" y="656" on="0"/>
        <pt x="644" y="700" on="0"/>
        <pt x="686" y="700" on="1"/>
        <pt x="778" y="700" on="1"/>
        <pt x="810" y="700" on="0"/>
        <pt x="822" y="681" on="1"/>
        <pt x="845" y="647" on="0"/>
        <pt x="845" y="418" on="1"/>
        <pt x="845" y="343" on="0"/>
        <pt x="843" y="303" on="1"/>
        <pt x="840" y="222" on="0"/>
        <pt x="771" y="95" on="0"/>
        <pt x="717" y="57" on="1"/>
        <pt x="608" y="-20" on="0"/>
        <pt x="470" y="-20" on="1"/>
        <pt x="288" y="-20" on="0"/>
        <pt x="169" y="65" on="1"/>
        <pt x="109" y="108" on="0"/>
        <pt x="40" y="251" on="0"/>
        <pt x="39" y="346" on="1"/>
        <pt x="38" y="393" on="0"/>
        <pt x="38" y="576" on="0"/>
        <pt x="43" y="657" on="0"/>
        <pt x="70" y="700" on="0"/>
        <pt x="111" y="700" on="1"/>
        <pt x="378" y="700" on="1"/>
        <pt x="418" y="700" on="0"/>
        <pt x="431" y="679" on="1"/>
        <pt x="448" y="652" on="0"/>
      </contour>
      <contour>
        <pt x="297" y="864" on="0"/>
        <pt x="355" y="917" on="0"/>
        <pt x="450" y="917" on="0"/>
        <pt x="496" y="866" on="0"/>
        <pt x="496" y="798" on="0"/>
        <pt x="440" y="743" on="0"/>
        <pt x="356" y="743" on="0"/>
        <pt x="297" y="789" on="0"/>
      </contour>
      <contour>
        <pt x="563" y="864" on="0"/>
        <pt x="621" y="917" on="0"/>
        <pt x="716" y="917" on="0"/>
        <pt x="762" y="866" on="0"/>
        <pt x="762" y="798" on="0"/>
        <pt x="706" y="743" on="0"/>
        <pt x="622" y="743" on="0"/>
        <pt x="563" y="789" on="0"/>
      </contour>
    </TTGlyph>
    <TTGlyph name="Ugrave" xMin="38" yMin="-20" xMax="845" yMax="905">
      <contour>
        <pt x="448" y="595" on="1"/>
        <pt x="446" y="504" on="1"/>
        <pt x="446" y="311" on="1"/>
        <pt x="446" y="269" on="0"/>
        <pt x="498" y="223" on="0"/>
        <pt x="568" y="223" on="0"/>
        <pt x="619" y="269" on="0"/>
        <pt x="619" y="311" on="1"/>
        <pt x="619" y="609" on="1"/>
        <pt x="619" y="656" on="0"/>
        <pt x="644" y="700" on="0"/>
        <pt x="686" y="700" on="1"/>
        <pt x="778" y="700" on="1"/>
        <pt x="810" y="700" on="0"/>
        <pt x="822" y="681" on="1"/>
        <pt x="845" y="647" on="0"/>
        <pt x="845" y="418" on="1"/>
        <pt x="845" y="343" on="0"/>
        <pt x="843" y="303" on="1"/>
        <pt x="840" y="222" on="0"/>
        <pt x="771" y="95" on="0"/>
        <pt x="717" y="57" on="1"/>
        <pt x="608" y="-20" on="0"/>
        <pt x="470" y="-20" on="1"/>
        <pt x="288" y="-20" on="0"/>
        <pt x="169" y="65" on="1"/>
        <pt x="109" y="108" on="0"/>
        <pt x="40" y="251" on="0"/>
        <pt x="39" y="346" on="1"/>
        <pt x="38" y="393" on="0"/>
        <pt x="38" y="576" on="0"/>
        <pt x="43" y="657" on="0"/>
        <pt x="70" y="700" on="0"/>
        <pt x="111" y="700" on="1"/>
        <pt x="378" y="700" on="1"/>
        <pt x="418" y="700" on="0"/>
        <pt x="431" y="679" on="1"/>
        <pt x="448" y="652" on="0"/>
      </contour>
      <contour>
        <pt x="609" y="758" on="1"/>
        <pt x="338" y="758" on="1"/>
        <pt x="291" y="758" on="0"/>
        <pt x="291" y="787" on="1"/>
        <pt x="291" y="802" on="0"/>
        <pt x="331" y="883" on="1"/>
        <pt x="343" y="905" on="0"/>
        <pt x="364" y="905" on="1"/>
        <pt x="388" y="905" on="0"/>
        <pt x="522" y="855" on="0"/>
        <pt x="605" y="823" on="0"/>
        <pt x="634" y="812" on="0"/>
        <pt x="634" y="758" on="0"/>
      </contour>
    </TTGlyph>
    <TTGlyph name="V" xMin="30" yMin="-20" xMax="927" yMax="701">
      <contour>
        <pt x="640" y="52" on="1"/>
        <pt x="622" y="18" on="0"/>
        <pt x="533" y="-20" on="0"/>
        <pt x="429" y="-20" on="0"/>
        <pt x="343" y="16" on="0"/>
        <pt x="324" y="50" on="1"/>
        <pt x="174" y="327" on="0"/>
        <pt x="45" y="594" on="1"/>
        <pt x="30" y="626" on="0"/>
        <pt x="30" y="643" on="1"/>
        <pt x="30" y="697" on="0"/>
        <pt x="79" y="697" on="1"/>
        <pt x="368" y="699" on="1"/>
        <pt x="405" y="699" on="0"/>
        <pt x="444" y="673" on="0"/>
        <pt x="459" y="634" on="1"/>
        <pt x="556" y="386" on="1"/>
        <pt x="562" y="370" on="0"/>
        <pt x="594" y="370" on="0"/>
        <pt x="602" y="386" on="1"/>
        <pt x="733" y="670" on="1"/>
        <pt x="746" y="697" on="0"/>
        <pt x="761" y="700" on="1"/>
        <pt x="767" y="701" on="0"/>
        <pt x="782" y="701" on="1"/>
        <pt x="897" y="699" on="1"/>
        <pt x="916" y="699" on="0"/>
        <pt x="924" y="681" on="1"/>
        <pt x="927" y="674" on="0"/>
        <pt x="927" y="654" on="0"/>
        <pt x="882" y="564" on="0"/>
        <pt x="693" y="154" on="0"/>
      </contour>
    </TTGlyph>
    <TTGlyph name="W" xMin="33" yMin="-21" xMax="1366" yMax="702">
      <contour>
        <pt x="783" y="647" on="1"/>
        <pt x="922" y="645" on="1"/>
        <pt x="953" y="645" on="0"/>
        <pt x="987" y="621" on="0"/>
        <pt x="995" y="593" on="1"/>
        <pt x="1056" y="391" on="1"/>
        <pt x="1058" y="383" on="0"/>
        <pt x="1068" y="377" on="0"/>
        <pt x="1078" y="383" on="0"/>
        <pt x="1080" y="390" on="1"/>
        <pt x="1164" y="662" on="1"/>
        <pt x="1170" y="682" on="0"/>
        <pt x="1195" y="698" on="0"/>
        <pt x="1222" y="698" on="1"/>
        <pt x="1335" y="698" on="1"/>
        <pt x="1354" y="698" on="0"/>
        <pt x="1362" y="680" on="1"/>
        <pt x="1366" y="672" on="0"/>
        <pt x="1366" y="652" on="0"/>
        <pt x="1329" y="559" on="0"/>
        <pt x="1201" y="165" on="0"/>
        <pt x="1154" y="63" on="1"/>
        <pt x="1114" y="-21" on="0"/>
        <pt x="999" y="-21" on="1"/>
        <pt x="937" y="-21" on="0"/>
        <pt x="827" y="36" on="0"/>
        <pt x="790" y="121" on="0"/>
        <pt x="729" y="285" on="0"/>
        <pt x="717" y="317" on="1"/>
        <pt x="665" y="153" on="0"/>
        <pt x="624" y="64" on="1"/>
        <pt x="605" y="24" on="0"/>
        <pt x="504" y="-20" on="0"/>
        <pt x="443" y="-20" on="1"/>
        <pt x="297" y="-20" on="0"/>
        <pt x="249" y="88" on="1"/>
        <pt x="96" y="436" on="0"/>
        <pt x="41" y="599" on="1"/>
        <pt x="33" y="625" on="0"/>
        <pt x="33" y="643" on="1"/>
        <pt x="33" y="699" on="0"/>
        <pt x="86" y="699" on="1"/>
        <pt x="372" y="702" on="1"/>
        <pt x="409" y="702" on="0"/>
        <pt x="445" y="676" on="0"/>
        <pt x="456" y="639" on="1"/>
        <pt x="526" y="393" on="1"/>
        <pt x="528" y="384" on="0"/>
        <pt x="533" y="381" on="1"/>
        <pt x="544" y="375" on="0"/>
        <pt x="550" y="392" on="1"/>
        <pt x="617" y="596" on="1"/>
        <pt x="632" y="644" on="0"/>
        <pt x="679" y="645" on="1"/>
        <pt x="741" y="647" on="0"/>
      </contour>
    </TTGlyph>
    <TTGlyph name="X" xMin="35" yMin="0" xMax="992" yMax="700">
      <contour>
        <pt x="55" y="0" on="1"/>
        <pt x="35" y="0" on="0"/>
        <pt x="35" y="15" on="1"/>
        <pt x="35" y="24" on="0"/>
        <pt x="46" y="36" on="1"/>
        <pt x="312" y="317" on="1"/>
        <pt x="69" y="600" on="1"/>
        <pt x="48" y="626" on="0"/>
        <pt x="48" y="659" on="0"/>
        <pt x="53" y="669" on="1"/>
        <pt x="68" y="699" on="0"/>
        <pt x="106" y="699" on="1"/>
        <pt x="484" y="700" on="1"/>
        <pt x="513" y="700" on="0"/>
        <pt x="542" y="682" on="0"/>
        <pt x="562" y="654" on="1"/>
        <pt x="615" y="578" on="1"/>
        <pt x="630" y="555" on="0"/>
        <pt x="649" y="555" on="0"/>
        <pt x="667" y="574" on="1"/>
        <pt x="768" y="676" on="1"/>
        <pt x="783" y="692" on="0"/>
        <pt x="799" y="700" on="0"/>
        <pt x="814" y="700" on="1"/>
        <pt x="973" y="700" on="1"/>
        <pt x="992" y="700" on="0"/>
        <pt x="992" y="687" on="1"/>
        <pt x="992" y="677" on="0"/>
        <pt x="981" y="663" on="1"/>
        <pt x="746" y="403" on="1"/>
        <pt x="899" y="198" on="0"/>
        <pt x="969" y="96" on="1"/>
        <pt x="991" y="65" on="0"/>
        <pt x="991" y="40" on="1"/>
        <pt x="991" y="4" on="0"/>
        <pt x="950" y="3" on="1"/>
        <pt x="858" y="1" on="0"/>
        <pt x="688" y="1" on="0"/>
        <pt x="570" y="2" on="0"/>
        <pt x="559" y="18" on="1"/>
        <pt x="444" y="161" on="1"/>
        <pt x="432" y="176" on="0"/>
        <pt x="415" y="176" on="0"/>
        <pt x="400" y="161" on="1"/>
        <pt x="268" y="23" on="1"/>
        <pt x="253" y="7" on="0"/>
        <pt x="238" y="0" on="0"/>
        <pt x="223" y="0" on="1"/>
      </contour>
    </TTGlyph>
    <TTGlyph name="Y" xMin="30" yMin="-4" xMax="907" yMax="700">
      <contour>
        <pt x="887" y="700" on="1"/>
        <pt x="907" y="700" on="0"/>
        <pt x="907" y="680" on="1"/>
        <pt x="907" y="667" on="0"/>
        <pt x="896" y="652" on="1"/>
        <pt x="672" y="297" on="1"/>
        <pt x="672" y="216" on="0"/>
        <pt x="667" y="61" on="1"/>
        <pt x="666" y="39" on="0"/>
        <pt x="630" y="2" on="0"/>
        <pt x="600" y="0" on="1"/>
        <pt x="543" y="-4" on="0"/>
        <pt x="383" y="-4" on="0"/>
        <pt x="316" y="0" on="1"/>
        <pt x="286" y="2" on="0"/>
        <pt x="250" y="39" on="0"/>
        <pt x="249" y="61" on="1"/>
        <pt x="247" y="162" on="0"/>
        <pt x="247" y="271" on="1"/>
        <pt x="45" y="610" on="1"/>
        <pt x="30" y="633" on="0"/>
        <pt x="30" y="648" on="1"/>
        <pt x="30" y="698" on="0"/>
        <pt x="79" y="698" on="1"/>
        <pt x="421" y="700" on="1"/>
        <pt x="450" y="700" on="0"/>
        <pt x="479" y="682" on="0"/>
        <pt x="499" y="654" on="1"/>
        <pt x="560" y="523" on="1"/>
        <pt x="576" y="501" on="0"/>
        <pt x="597" y="501" on="0"/>
        <pt x="612" y="519" on="1"/>
        <pt x="714" y="679" on="1"/>
        <pt x="731" y="700" on="0"/>
        <pt x="757" y="700" on="1"/>
      </contour>
    </TTGlyph>
    <TTGlyph name="Yacute" xMin="30" yMin="-4" xMax="907" yMax="904">
      <contour>
        <pt x="887" y="700" on="1"/>
        <pt x="907" y="700" on="0"/>
        <pt x="907" y="680" on="1"/>
        <pt x="907" y="667" on="0"/>
        <pt x="896" y="652" on="1"/>
        <pt x="672" y="297" on="1"/>
        <pt x="672" y="216" on="0"/>
        <pt x="667" y="61" on="1"/>
        <pt x="666" y="39" on="0"/>
        <pt x="630" y="2" on="0"/>
        <pt x="600" y="0" on="1"/>
        <pt x="543" y="-4" on="0"/>
        <pt x="383" y="-4" on="0"/>
        <pt x="316" y="0" on="1"/>
        <pt x="286" y="2" on="0"/>
        <pt x="250" y="39" on="0"/>
        <pt x="249" y="61" on="1"/>
        <pt x="247" y="162" on="0"/>
        <pt x="247" y="271" on="1"/>
        <pt x="45" y="610" on="1"/>
        <pt x="30" y="633" on="0"/>
        <pt x="30" y="648" on="1"/>
        <pt x="30" y="698" on="0"/>
        <pt x="79" y="698" on="1"/>
        <pt x="421" y="700" on="1"/>
        <pt x="450" y="700" on="0"/>
        <pt x="479" y="682" on="0"/>
        <pt x="499" y="654" on="1"/>
        <pt x="560" y="523" on="1"/>
        <pt x="576" y="501" on="0"/>
        <pt x="597" y="501" on="0"/>
        <pt x="612" y="519" on="1"/>
        <pt x="714" y="679" on="1"/>
        <pt x="731" y="700" on="0"/>
        <pt x="757" y="700" on="1"/>
      </contour>
      <contour>
        <pt x="711" y="757" on="1"/>
        <pt x="440" y="757" on="1"/>
        <pt x="415" y="757" on="0"/>
        <pt x="415" y="811" on="0"/>
        <pt x="444" y="822" on="0"/>
        <pt x="527" y="854" on="0"/>
        <pt x="554" y="864" on="1"/>
        <pt x="661" y="904" on="0"/>
        <pt x="706" y="904" on="0"/>
        <pt x="718" y="882" on="1"/>
        <pt x="758" y="801" on="0"/>
        <pt x="758" y="786" on="1"/>
        <pt x="758" y="757" on="0"/>
      </contour>
    </TTGlyph>
    <TTGlyph name="Ydieresis" xMin="30" yMin="-4" xMax="907" yMax="917">
      <contour>
        <pt x="887" y="700" on="1"/>
        <pt x="907" y="700" on="0"/>
        <pt x="907" y="680" on="1"/>
        <pt x="907" y="667" on="0"/>
        <pt x="896" y="652" on="1"/>
        <pt x="672" y="297" on="1"/>
        <pt x="672" y="216" on="0"/>
        <pt x="667" y="61" on="1"/>
        <pt x="666" y="39" on="0"/>
        <pt x="630" y="2" on="0"/>
        <pt x="600" y="0" on="1"/>
        <pt x="543" y="-4" on="0"/>
        <pt x="383" y="-4" on="0"/>
        <pt x="316" y="0" on="1"/>
        <pt x="286" y="2" on="0"/>
        <pt x="250" y="39" on="0"/>
        <pt x="249" y="61" on="1"/>
        <pt x="247" y="162" on="0"/>
        <pt x="247" y="271" on="1"/>
        <pt x="45" y="610" on="1"/>
        <pt x="30" y="633" on="0"/>
        <pt x="30" y="648" on="1"/>
        <pt x="30" y="698" on="0"/>
        <pt x="79" y="698" on="1"/>
        <pt x="421" y="700" on="1"/>
        <pt x="450" y="700" on="0"/>
        <pt x="479" y="682" on="0"/>
        <pt x="499" y="654" on="1"/>
        <pt x="560" y="523" on="1"/>
        <pt x="576" y="501" on="0"/>
        <pt x="597" y="501" on="0"/>
        <pt x="612" y="519" on="1"/>
        <pt x="714" y="679" on="1"/>
        <pt x="731" y="700" on="0"/>
        <pt x="757" y="700" on="1"/>
      </contour>
      <contour>
        <pt x="353" y="864" on="0"/>
        <pt x="411" y="917" on="0"/>
        <pt x="506" y="917" on="0"/>
        <pt x="552" y="866" on="0"/>
        <pt x="552" y="798" on="0"/>
        <pt x="496" y="743" on="0"/>
        <pt x="412" y="743" on="0"/>
        <pt x="353" y="789" on="0"/>
      </contour>
      <contour>
        <pt x="619" y="864" on="0"/>
        <pt x="677" y="917" on="0"/>
        <pt x="772" y="917" on="0"/>
        <pt x="818" y="866" on="0"/>
        <pt x="818" y="798" on="0"/>
        <pt x="762" y="743" on="0"/>
        <pt x="678" y="743" on="0"/>
        <pt x="619" y="789" on="0"/>
      </contour>
    </TTGlyph>
    <TTGlyph name="Z" xMin="37" yMin="-4" xMax="811" yMax="703">
      <contour>
        <pt x="75" y="577" on="1"/>
        <pt x="75" y="651" on="1"/>
        <pt x="75" y="677" on="0"/>
        <pt x="100" y="698" on="0"/>
        <pt x="209" y="701" on="0"/>
        <pt x="429" y="703" on="0"/>
        <pt x="562" y="703" on="1"/>
        <pt x="562" y="703" on="0"/>
        <pt x="742" y="703" on="1"/>
        <pt x="766" y="703" on="0"/>
        <pt x="807" y="677" on="0"/>
        <pt x="807" y="657" on="1"/>
        <pt x="807" y="575" on="1"/>
        <pt x="807" y="559" on="0"/>
        <pt x="802" y="550" on="1"/>
        <pt x="802" y="550" on="0"/>
        <pt x="796" y="538" on="1"/>
        <pt x="795" y="535" on="0"/>
        <pt x="789" y="526" on="1"/>
        <pt x="781" y="514" on="1"/>
        <pt x="688" y="367" on="0"/>
        <pt x="566" y="197" on="1"/>
        <pt x="554" y="180" on="0"/>
        <pt x="561" y="157" on="0"/>
        <pt x="576" y="157" on="1"/>
        <pt x="767" y="157" on="1"/>
        <pt x="788" y="157" on="0"/>
        <pt x="811" y="128" on="0"/>
        <pt x="811" y="111" on="1"/>
        <pt x="811" y="53" on="1"/>
        <pt x="811" y="1" on="0"/>
        <pt x="767" y="-1" on="1"/>
        <pt x="636" y="-4" on="0"/>
        <pt x="250" y="-4" on="0"/>
        <pt x="135" y="0" on="1"/>
        <pt x="84" y="2" on="0"/>
        <pt x="37" y="25" on="0"/>
        <pt x="37" y="58" on="1"/>
        <pt x="37" y="135" on="1"/>
        <pt x="37" y="168" on="0"/>
        <pt x="57" y="201" on="1"/>
        <pt x="161" y="366" on="0"/>
        <pt x="274" y="516" on="1"/>
        <pt x="283" y="529" on="0"/>
        <pt x="271" y="547" on="0"/>
        <pt x="254" y="547" on="1"/>
        <pt x="122" y="547" on="1"/>
        <pt x="102" y="547" on="0"/>
        <pt x="75" y="564" on="0"/>
      </contour>
    </TTGlyph>
    <TTGlyph name="Zcaron" xMin="37" yMin="-4" xMax="811" yMax="964">
      <contour>
        <pt x="75" y="577" on="1"/>
        <pt x="75" y="651" on="1"/>
        <pt x="75" y="677" on="0"/>
        <pt x="100" y="698" on="0"/>
        <pt x="209" y="701" on="0"/>
        <pt x="429" y="703" on="0"/>
        <pt x="562" y="703" on="1"/>
        <pt x="562" y="703" on="0"/>
        <pt x="742" y="703" on="1"/>
        <pt x="766" y="703" on="0"/>
        <pt x="807" y="677" on="0"/>
        <pt x="807" y="657" on="1"/>
        <pt x="807" y="575" on="1"/>
        <pt x="807" y="559" on="0"/>
        <pt x="802" y="550" on="1"/>
        <pt x="802" y="550" on="0"/>
        <pt x="796" y="538" on="1"/>
        <pt x="795" y="535" on="0"/>
        <pt x="789" y="526" on="1"/>
        <pt x="781" y="514" on="1"/>
        <pt x="688" y="367" on="0"/>
        <pt x="566" y="197" on="1"/>
        <pt x="554" y="180" on="0"/>
        <pt x="561" y="157" on="0"/>
        <pt x="576" y="157" on="1"/>
        <pt x="767" y="157" on="1"/>
        <pt x="788" y="157" on="0"/>
        <pt x="811" y="128" on="0"/>
        <pt x="811" y="111" on="1"/>
        <pt x="811" y="53" on="1"/>
        <pt x="811" y="1" on="0"/>
        <pt x="767" y="-1" on="1"/>
        <pt x="636" y="-4" on="0"/>
        <pt x="250" y="-4" on="0"/>
        <pt x="135" y="0" on="1"/>
        <pt x="84" y="2" on="0"/>
        <pt x="37" y="25" on="0"/>
        <pt x="37" y="58" on="1"/>
        <pt x="37" y="135" on="1"/>
        <pt x="37" y="168" on="0"/>
        <pt x="57" y="201" on="1"/>
        <pt x="161" y="366" on="0"/>
        <pt x="274" y="516" on="1"/>
        <pt x="283" y="529" on="0"/>
        <pt x="271" y="547" on="0"/>
        <pt x="254" y="547" on="1"/>
        <pt x="122" y="547" on="1"/>
        <pt x="102" y="547" on="0"/>
        <pt x="75" y="564" on="0"/>
      </contour>
      <contour>
        <pt x="488" y="759" on="1"/>
        <pt x="422" y="759" on="1"/>
        <pt x="402" y="759" on="0"/>
        <pt x="367" y="789" on="1"/>
        <pt x="250" y="891" on="1"/>
        <pt x="245" y="899" on="0"/>
        <pt x="245" y="908" on="1"/>
        <pt x="245" y="937" on="0"/>
        <pt x="268" y="964" on="0"/>
        <pt x="285" y="964" on="0"/>
        <pt x="291" y="961" on="1"/>
        <pt x="455" y="887" on="1"/>
        <pt x="619" y="961" on="1"/>
        <pt x="625" y="964" on="0"/>
        <pt x="642" y="964" on="0"/>
        <pt x="664" y="938" on="0"/>
        <pt x="665" y="916" on="0"/>
        <pt x="665" y="899" on="0"/>
        <pt x="660" y="891" on="1"/>
        <pt x="543" y="789" on="1"/>
        <pt x="508" y="759" on="0"/>
      </contour>
    </TTGlyph>
    <TTGlyph name="a" xMin="40" yMin="-16" xMax="743" yMax="525">
      <contour>
        <pt x="412" y="525" on="1"/>
        <pt x="738" y="525" on="0"/>
        <pt x="741" y="313" on="1"/>
        <pt x="743" y="223" on="0"/>
        <pt x="743" y="73" on="0"/>
        <pt x="741" y="21" on="0"/>
        <pt x="716" y="-2" on="0"/>
        <pt x="680" y="-2" on="1"/>
        <pt x="468" y="-2" on="1"/>
        <pt x="436" y="-2" on="0"/>
        <pt x="412" y="21" on="0"/>
        <pt x="411" y="44" on="1"/>
        <pt x="411" y="45" on="0"/>
        <pt x="410" y="50" on="0"/>
        <pt x="410" y="52" on="1"/>
        <pt x="344" y="-16" on="0"/>
        <pt x="230" y="-16" on="1"/>
        <pt x="151" y="-16" on="0"/>
        <pt x="40" y="63" on="0"/>
        <pt x="40" y="202" on="0"/>
        <pt x="119" y="285" on="0"/>
        <pt x="228" y="315" on="0"/>
        <pt x="353" y="315" on="0"/>
        <pt x="413" y="303" on="1"/>
        <pt x="413" y="307" on="1"/>
        <pt x="413" y="357" on="0"/>
        <pt x="374" y="401" on="0"/>
        <pt x="287" y="401" on="0"/>
        <pt x="229" y="386" on="0"/>
        <pt x="214" y="378" on="1"/>
        <pt x="173" y="354" on="0"/>
        <pt x="141" y="354" on="0"/>
        <pt x="116" y="384" on="0"/>
        <pt x="116" y="447" on="0"/>
        <pt x="139" y="471" on="0"/>
        <pt x="164" y="483" on="1"/>
        <pt x="251" y="525" on="0"/>
      </contour>
      <contour>
        <pt x="365" y="116" on="1"/>
        <pt x="409" y="116" on="0"/>
        <pt x="410" y="133" on="1"/>
        <pt x="412" y="166" on="0"/>
        <pt x="412" y="220" on="1"/>
        <pt x="412" y="241" on="0"/>
        <pt x="348" y="241" on="0"/>
        <pt x="308" y="210" on="0"/>
        <pt x="308" y="150" on="0"/>
        <pt x="341" y="116" on="0"/>
      </contour>
    </TTGlyph>
    <TTGlyph name="aacute" xMin="50" yMin="-16" xMax="753" yMax="723">
      <contour>
        <pt x="382" y="599" on="1"/>
        <pt x="434" y="697" on="1"/>
        <pt x="451" y="723" on="0"/>
        <pt x="481" y="723" on="1"/>
        <pt x="601" y="723" on="1"/>
        <pt x="623" y="723" on="0"/>
        <pt x="630" y="714" on="1"/>
        <pt x="642" y="697" on="0"/>
        <pt x="611" y="671" on="1"/>
        <pt x="503" y="581" on="1"/>
        <pt x="489" y="570" on="0"/>
        <pt x="469" y="570" on="1"/>
        <pt x="400" y="570" on="1"/>
        <pt x="384" y="570" on="0"/>
        <pt x="373" y="586" on="0"/>
      </contour>
      <contour>
        <pt x="422" y="525" on="1"/>
        <pt x="748" y="525" on="0"/>
        <pt x="751" y="313" on="1"/>
        <pt x="753" y="223" on="0"/>
        <pt x="753" y="73" on="0"/>
        <pt x="751" y="21" on="0"/>
        <pt x="726" y="-2" on="0"/>
        <pt x="690" y="-2" on="1"/>
        <pt x="478" y="-2" on="1"/>
        <pt x="446" y="-2" on="0"/>
        <pt x="422" y="21" on="0"/>
        <pt x="421" y="44" on="1"/>
        <pt x="421" y="45" on="0"/>
        <pt x="420" y="50" on="0"/>
        <pt x="420" y="52" on="1"/>
        <pt x="354" y="-16" on="0"/>
        <pt x="240" y="-16" on="1"/>
        <pt x="161" y="-16" on="0"/>
        <pt x="50" y="63" on="0"/>
        <pt x="50" y="202" on="0"/>
        <pt x="129" y="285" on="0"/>
        <pt x="238" y="315" on="0"/>
        <pt x="363" y="315" on="0"/>
        <pt x="423" y="303" on="1"/>
        <pt x="423" y="307" on="1"/>
        <pt x="423" y="357" on="0"/>
        <pt x="384" y="401" on="0"/>
        <pt x="297" y="401" on="0"/>
        <pt x="239" y="386" on="0"/>
        <pt x="224" y="378" on="1"/>
        <pt x="183" y="354" on="0"/>
        <pt x="151" y="354" on="0"/>
        <pt x="126" y="384" on="0"/>
        <pt x="126" y="447" on="0"/>
        <pt x="149" y="471" on="0"/>
        <pt x="174" y="483" on="1"/>
        <pt x="261" y="525" on="0"/>
      </contour>
      <contour>
        <pt x="375" y="116" on="1"/>
        <pt x="419" y="116" on="0"/>
        <pt x="420" y="133" on="1"/>
        <pt x="422" y="166" on="0"/>
        <pt x="422" y="220" on="1"/>
        <pt x="422" y="241" on="0"/>
        <pt x="358" y="241" on="0"/>
        <pt x="318" y="210" on="0"/>
        <pt x="318" y="150" on="0"/>
        <pt x="351" y="116" on="0"/>
      </contour>
    </TTGlyph>
    <TTGlyph name="acircumflex" xMin="50" yMin="-16" xMax="753" yMax="745">
      <contour>
        <pt x="422" y="525" on="1"/>
        <pt x="748" y="525" on="0"/>
        <pt x="751" y="313" on="1"/>
        <pt x="753" y="223" on="0"/>
        <pt x="753" y="73" on="0"/>
        <pt x="751" y="21" on="0"/>
        <pt x="726" y="-2" on="0"/>
        <pt x="690" y="-2" on="1"/>
        <pt x="478" y="-2" on="1"/>
        <pt x="446" y="-2" on="0"/>
        <pt x="422" y="21" on="0"/>
        <pt x="421" y="44" on="1"/>
        <pt x="421" y="45" on="0"/>
        <pt x="420" y="50" on="0"/>
        <pt x="420" y="52" on="1"/>
        <pt x="354" y="-16" on="0"/>
        <pt x="240" y="-16" on="1"/>
        <pt x="161" y="-16" on="0"/>
        <pt x="50" y="63" on="0"/>
        <pt x="50" y="202" on="0"/>
        <pt x="129" y="285" on="0"/>
        <pt x="238" y="315" on="0"/>
        <pt x="363" y="315" on="0"/>
        <pt x="423" y="303" on="1"/>
        <pt x="423" y="307" on="1"/>
        <pt x="423" y="357" on="0"/>
        <pt x="384" y="401" on="0"/>
        <pt x="297" y="401" on="0"/>
        <pt x="239" y="386" on="0"/>
        <pt x="224" y="378" on="1"/>
        <pt x="183" y="354" on="0"/>
        <pt x="151" y="354" on="0"/>
        <pt x="126" y="384" on="0"/>
        <pt x="126" y="447" on="0"/>
        <pt x="149" y="471" on="0"/>
        <pt x="174" y="483" on="1"/>
        <pt x="261" y="525" on="0"/>
      </contour>
      <contour>
        <pt x="375" y="116" on="1"/>
        <pt x="419" y="116" on="0"/>
        <pt x="420" y="133" on="1"/>
        <pt x="422" y="166" on="0"/>
        <pt x="422" y="220" on="1"/>
        <pt x="422" y="241" on="0"/>
        <pt x="358" y="241" on="0"/>
        <pt x="318" y="210" on="0"/>
        <pt x="318" y="150" on="0"/>
        <pt x="351" y="116" on="0"/>
      </contour>
      <contour>
        <pt x="414" y="745" on="1"/>
        <pt x="480" y="745" on="1"/>
        <pt x="500" y="745" on="0"/>
        <pt x="535" y="715" on="1"/>
        <pt x="652" y="613" on="1"/>
        <pt x="657" y="605" on="0"/>
        <pt x="657" y="596" on="1"/>
        <pt x="657" y="567" on="0"/>
        <pt x="634" y="540" on="0"/>
        <pt x="617" y="540" on="0"/>
        <pt x="611" y="543" on="1"/>
        <pt x="447" y="617" on="1"/>
        <pt x="283" y="543" on="1"/>
        <pt x="277" y="540" on="0"/>
        <pt x="260" y="540" on="0"/>
        <pt x="238" y="566" on="0"/>
        <pt x="237" y="588" on="0"/>
        <pt x="237" y="605" on="0"/>
        <pt x="242" y="613" on="1"/>
        <pt x="359" y="715" on="1"/>
        <pt x="394" y="745" on="0"/>
      </contour>
    </TTGlyph>
    <TTGlyph name="acute" xMin="85" yMin="570" xMax="342" yMax="723">
      <contour>
        <pt x="109" y="570" on="1"/>
        <pt x="85" y="570" on="0"/>
        <pt x="85" y="585" on="1"/>
        <pt x="85" y="591" on="0"/>
        <pt x="91" y="599" on="1"/>
        <pt x="143" y="697" on="1"/>
        <pt x="160" y="723" on="0"/>
        <pt x="190" y="723" on="1"/>
        <pt x="310" y="723" on="1"/>
        <pt x="342" y="723" on="0"/>
        <pt x="342" y="704" on="1"/>
        <pt x="342" y="689" on="0"/>
        <pt x="320" y="671" on="1"/>
        <pt x="212" y="581" on="1"/>
        <pt x="198" y="570" on="0"/>
        <pt x="178" y="570" on="1"/>
      </contour>
    </TTGlyph>
    <TTGlyph name="adieresis" xMin="50" yMin="-16" xMax="753" yMax="731">
      <contour>
        <pt x="422" y="525" on="1"/>
        <pt x="748" y="525" on="0"/>
        <pt x="751" y="313" on="1"/>
        <pt x="753" y="223" on="0"/>
        <pt x="753" y="73" on="0"/>
        <pt x="751" y="21" on="0"/>
        <pt x="726" y="-2" on="0"/>
        <pt x="690" y="-2" on="1"/>
        <pt x="478" y="-2" on="1"/>
        <pt x="446" y="-2" on="0"/>
        <pt x="422" y="21" on="0"/>
        <pt x="421" y="44" on="1"/>
        <pt x="421" y="45" on="0"/>
        <pt x="420" y="50" on="0"/>
        <pt x="420" y="52" on="1"/>
        <pt x="354" y="-16" on="0"/>
        <pt x="240" y="-16" on="1"/>
        <pt x="161" y="-16" on="0"/>
        <pt x="50" y="63" on="0"/>
        <pt x="50" y="202" on="0"/>
        <pt x="129" y="285" on="0"/>
        <pt x="238" y="315" on="0"/>
        <pt x="363" y="315" on="0"/>
        <pt x="423" y="303" on="1"/>
        <pt x="423" y="307" on="1"/>
        <pt x="423" y="357" on="0"/>
        <pt x="384" y="401" on="0"/>
        <pt x="297" y="401" on="0"/>
        <pt x="239" y="386" on="0"/>
        <pt x="224" y="378" on="1"/>
        <pt x="183" y="354" on="0"/>
        <pt x="151" y="354" on="0"/>
        <pt x="126" y="384" on="0"/>
        <pt x="126" y="447" on="0"/>
        <pt x="149" y="471" on="0"/>
        <pt x="174" y="483" on="1"/>
        <pt x="261" y="525" on="0"/>
      </contour>
      <contour>
        <pt x="375" y="116" on="1"/>
        <pt x="419" y="116" on="0"/>
        <pt x="420" y="133" on="1"/>
        <pt x="422" y="166" on="0"/>
        <pt x="422" y="220" on="1"/>
        <pt x="422" y="241" on="0"/>
        <pt x="358" y="241" on="0"/>
        <pt x="318" y="210" on="0"/>
        <pt x="318" y="150" on="0"/>
        <pt x="351" y="116" on="0"/>
      </contour>
      <contour>
        <pt x="191" y="678" on="0"/>
        <pt x="249" y="731" on="0"/>
        <pt x="344" y="731" on="0"/>
        <pt x="390" y="680" on="0"/>
        <pt x="390" y="612" on="0"/>
        <pt x="334" y="557" on="0"/>
        <pt x="250" y="557" on="0"/>
        <pt x="191" y="603" on="0"/>
      </contour>
      <contour>
        <pt x="457" y="678" on="0"/>
        <pt x="515" y="731" on="0"/>
        <pt x="610" y="731" on="0"/>
        <pt x="656" y="680" on="0"/>
        <pt x="656" y="612" on="0"/>
        <pt x="600" y="557" on="0"/>
        <pt x="516" y="557" on="0"/>
        <pt x="457" y="603" on="0"/>
      </contour>
    </TTGlyph>
    <TTGlyph name="ae" xMin="40" yMin="-16" xMax="1074" yMax="525">
      <contour>
        <pt x="429" y="147" on="1"/>
        <pt x="412" y="186" on="0"/>
        <pt x="412" y="220" on="1"/>
        <pt x="412" y="241" on="0"/>
        <pt x="348" y="241" on="0"/>
        <pt x="308" y="210" on="0"/>
        <pt x="308" y="151" on="0"/>
        <pt x="341" y="116" on="0"/>
        <pt x="367" y="116" on="1"/>
        <pt x="414" y="116" on="0"/>
      </contour>
      <contour>
        <pt x="458" y="97" on="1"/>
        <pt x="363" y="-16" on="0"/>
        <pt x="230" y="-16" on="1"/>
        <pt x="151" y="-16" on="0"/>
        <pt x="40" y="63" on="0"/>
        <pt x="40" y="202" on="0"/>
        <pt x="119" y="285" on="0"/>
        <pt x="228" y="315" on="0"/>
        <pt x="353" y="315" on="0"/>
        <pt x="413" y="303" on="1"/>
        <pt x="413" y="307" on="1"/>
        <pt x="413" y="357" on="0"/>
        <pt x="374" y="401" on="0"/>
        <pt x="287" y="401" on="0"/>
        <pt x="229" y="386" on="0"/>
        <pt x="214" y="378" on="1"/>
        <pt x="173" y="354" on="0"/>
        <pt x="141" y="354" on="0"/>
        <pt x="116" y="384" on="0"/>
        <pt x="116" y="447" on="0"/>
        <pt x="139" y="471" on="0"/>
        <pt x="164" y="483" on="1"/>
        <pt x="251" y="525" on="0"/>
        <pt x="534" y="525" on="0"/>
        <pt x="610" y="495" on="1"/>
        <pt x="685" y="521" on="0"/>
        <pt x="856" y="521" on="0"/>
        <pt x="986" y="486" on="0"/>
        <pt x="1018" y="456" on="1"/>
        <pt x="1074" y="401" on="0"/>
        <pt x="1074" y="327" on="1"/>
        <pt x="1074" y="211" on="0"/>
        <pt x="878" y="211" on="1"/>
        <pt x="809" y="211" on="0"/>
        <pt x="735" y="224" on="1"/>
        <pt x="738" y="158" on="0"/>
        <pt x="781" y="104" on="0"/>
        <pt x="891" y="104" on="0"/>
        <pt x="963" y="128" on="0"/>
        <pt x="1007" y="153" on="0"/>
        <pt x="1038" y="153" on="0"/>
        <pt x="1049" y="139" on="1"/>
        <pt x="1066" y="121" on="0"/>
        <pt x="1066" y="58" on="0"/>
        <pt x="1041" y="35" on="0"/>
        <pt x="1014" y="24" on="1"/>
        <pt x="919" y="-16" on="0"/>
        <pt x="738" y="-16" on="1"/>
        <pt x="648" y="-16" on="0"/>
        <pt x="500" y="44" on="0"/>
      </contour>
      <contour>
        <pt x="802" y="407" on="1"/>
        <pt x="741" y="407" on="0"/>
        <pt x="736" y="308" on="1"/>
        <pt x="784" y="304" on="0"/>
        <pt x="786" y="304" on="1"/>
        <pt x="852" y="304" on="0"/>
        <pt x="852" y="348" on="1"/>
        <pt x="852" y="407" on="0"/>
      </contour>
    </TTGlyph>
    <TTGlyph name="afii61289" xMin="50" yMin="-9" xMax="717" yMax="731">
      <contour>
        <pt x="118" y="142" on="1"/>
        <pt x="97" y="136" on="0"/>
        <pt x="80" y="136" on="1"/>
        <pt x="50" y="136" on="0"/>
        <pt x="50" y="190" on="1"/>
        <pt x="50" y="225" on="0"/>
        <pt x="72" y="233" on="1"/>
        <pt x="73" y="233" on="0"/>
        <pt x="108" y="241" on="1"/>
        <pt x="108" y="463" on="1"/>
        <pt x="108" y="531" on="0"/>
        <pt x="165" y="637" on="0"/>
        <pt x="212" y="668" on="1"/>
        <pt x="309" y="731" on="0"/>
        <pt x="429" y="731" on="1"/>
        <pt x="539" y="731" on="0"/>
        <pt x="622" y="690" on="1"/>
        <pt x="665" y="668" on="0"/>
        <pt x="716" y="588" on="0"/>
        <pt x="716" y="534" on="1"/>
        <pt x="716" y="340" on="0"/>
        <pt x="423" y="224" on="1"/>
        <pt x="423" y="146" on="0"/>
        <pt x="542" y="146" on="1"/>
        <pt x="588" y="146" on="0"/>
        <pt x="667" y="175" on="0"/>
        <pt x="679" y="175" on="1"/>
        <pt x="717" y="175" on="0"/>
        <pt x="717" y="97" on="1"/>
        <pt x="717" y="36" on="0"/>
        <pt x="680" y="25" on="1"/>
        <pt x="569" y="-9" on="0"/>
        <pt x="434" y="-9" on="1"/>
        <pt x="232" y="-9" on="0"/>
        <pt x="161" y="64" on="1"/>
        <pt x="131" y="95" on="0"/>
      </contour>
      <contour>
        <pt x="503" y="529" on="1"/>
        <pt x="503" y="552" on="0"/>
        <pt x="479" y="576" on="0"/>
        <pt x="446" y="576" on="0"/>
        <pt x="423" y="547" on="0"/>
        <pt x="423" y="519" on="1"/>
        <pt x="423" y="394" on="1"/>
        <pt x="503" y="461" on="0"/>
      </contour>
    </TTGlyph>
    <TTGlyph name="agrave" xMin="50" yMin="-16" xMax="753" yMax="723">
      <contour>
        <pt x="500" y="697" on="1"/>
        <pt x="552" y="599" on="1"/>
        <pt x="561" y="586" on="0"/>
        <pt x="550" y="570" on="0"/>
        <pt x="534" y="570" on="1"/>
        <pt x="465" y="570" on="1"/>
        <pt x="445" y="570" on="0"/>
        <pt x="412" y="596" on="0"/>
        <pt x="376" y="626" on="0"/>
        <pt x="335" y="661" on="0"/>
        <pt x="311" y="681" on="0"/>
        <pt x="298" y="705" on="0"/>
        <pt x="311" y="723" on="0"/>
        <pt x="333" y="723" on="1"/>
        <pt x="453" y="723" on="1"/>
        <pt x="483" y="723" on="0"/>
      </contour>
      <contour>
        <pt x="422" y="525" on="1"/>
        <pt x="748" y="525" on="0"/>
        <pt x="751" y="313" on="1"/>
        <pt x="753" y="223" on="0"/>
        <pt x="753" y="73" on="0"/>
        <pt x="751" y="21" on="0"/>
        <pt x="726" y="-2" on="0"/>
        <pt x="690" y="-2" on="1"/>
        <pt x="478" y="-2" on="1"/>
        <pt x="446" y="-2" on="0"/>
        <pt x="422" y="21" on="0"/>
        <pt x="421" y="44" on="1"/>
        <pt x="421" y="45" on="0"/>
        <pt x="420" y="50" on="0"/>
        <pt x="420" y="52" on="1"/>
        <pt x="354" y="-16" on="0"/>
        <pt x="240" y="-16" on="1"/>
        <pt x="161" y="-16" on="0"/>
        <pt x="50" y="63" on="0"/>
        <pt x="50" y="202" on="0"/>
        <pt x="129" y="285" on="0"/>
        <pt x="238" y="315" on="0"/>
        <pt x="363" y="315" on="0"/>
        <pt x="423" y="303" on="1"/>
        <pt x="423" y="307" on="1"/>
        <pt x="423" y="357" on="0"/>
        <pt x="384" y="401" on="0"/>
        <pt x="297" y="401" on="0"/>
        <pt x="239" y="386" on="0"/>
        <pt x="224" y="378" on="1"/>
        <pt x="183" y="354" on="0"/>
        <pt x="151" y="354" on="0"/>
        <pt x="126" y="384" on="0"/>
        <pt x="126" y="447" on="0"/>
        <pt x="149" y="471" on="0"/>
        <pt x="174" y="483" on="1"/>
        <pt x="261" y="525" on="0"/>
      </contour>
      <contour>
        <pt x="375" y="116" on="1"/>
        <pt x="419" y="116" on="0"/>
        <pt x="420" y="133" on="1"/>
        <pt x="422" y="166" on="0"/>
        <pt x="422" y="220" on="1"/>
        <pt x="422" y="241" on="0"/>
        <pt x="358" y="241" on="0"/>
        <pt x="318" y="210" on="0"/>
        <pt x="318" y="150" on="0"/>
        <pt x="351" y="116" on="0"/>
      </contour>
    </TTGlyph>
    <TTGlyph name="ampersand" xMin="60" yMin="-23" xMax="952" yMax="724">
      <contour>
        <pt x="570" y="263" on="1"/>
        <pt x="570" y="280" on="0"/>
        <pt x="488" y="280" on="0"/>
        <pt x="446" y="234" on="0"/>
        <pt x="446" y="176" on="0"/>
        <pt x="497" y="133" on="0"/>
        <pt x="537" y="133" on="1"/>
        <pt x="550" y="133" on="0"/>
        <pt x="573" y="141" on="0"/>
        <pt x="573" y="160" on="1"/>
        <pt x="570" y="238" on="0"/>
      </contour>
      <contour>
        <pt x="949" y="104" on="1"/>
        <pt x="952" y="45" on="1"/>
        <pt x="952" y="-1" on="0"/>
        <pt x="914" y="-13" on="1"/>
        <pt x="884" y="-23" on="0"/>
        <pt x="839" y="-23" on="1"/>
        <pt x="710" y="-23" on="0"/>
        <pt x="648" y="31" on="1"/>
        <pt x="521" y="-23" on="0"/>
        <pt x="355" y="-23" on="1"/>
        <pt x="235" y="-23" on="0"/>
        <pt x="151" y="22" on="1"/>
        <pt x="108" y="45" on="0"/>
        <pt x="60" y="127" on="0"/>
        <pt x="60" y="183" on="1"/>
        <pt x="60" y="304" on="0"/>
        <pt x="162" y="356" on="1"/>
        <pt x="88" y="405" on="0"/>
        <pt x="88" y="506" on="1"/>
        <pt x="88" y="562" on="0"/>
        <pt x="151" y="648" on="0"/>
        <pt x="205" y="674" on="1"/>
        <pt x="312" y="724" on="0"/>
        <pt x="589" y="724" on="0"/>
        <pt x="688" y="691" on="1"/>
        <pt x="738" y="675" on="0"/>
        <pt x="738" y="616" on="1"/>
        <pt x="738" y="583" on="0"/>
        <pt x="711" y="545" on="0"/>
        <pt x="652" y="545" on="0"/>
        <pt x="575" y="566" on="0"/>
        <pt x="511" y="566" on="0"/>
        <pt x="450" y="529" on="0"/>
        <pt x="450" y="450" on="0"/>
        <pt x="470" y="450" on="1"/>
        <pt x="472" y="450" on="0"/>
        <pt x="507" y="456" on="0"/>
        <pt x="580" y="456" on="0"/>
        <pt x="752" y="430" on="0"/>
        <pt x="816" y="430" on="0"/>
        <pt x="893" y="454" on="0"/>
        <pt x="906" y="454" on="1"/>
        <pt x="947" y="454" on="0"/>
        <pt x="947" y="375" on="1"/>
        <pt x="947" y="328" on="0"/>
        <pt x="910" y="308" on="1"/>
        <pt x="884" y="294" on="0"/>
        <pt x="844" y="283" on="1"/>
        <pt x="844" y="190" on="1"/>
        <pt x="844" y="157" on="0"/>
        <pt x="879" y="135" on="0"/>
        <pt x="909" y="135" on="1"/>
        <pt x="949" y="135" on="0"/>
      </contour>
    </TTGlyph>
    <TTGlyph name="approxequal" xMin="81" yMin="93" xMax="744" yMax="619">
      <contour>
        <pt x="720" y="447" on="0"/>
        <pt x="611" y="386" on="0"/>
        <pt x="495" y="386" on="0"/>
        <pt x="341" y="447" on="0"/>
        <pt x="256" y="447" on="0"/>
        <pt x="209" y="408" on="1"/>
        <pt x="197" y="398" on="0"/>
        <pt x="173" y="398" on="0"/>
        <pt x="161" y="406" on="1"/>
        <pt x="102" y="446" on="1"/>
        <pt x="81" y="459" on="0"/>
        <pt x="81" y="480" on="1"/>
        <pt x="81" y="489" on="0"/>
        <pt x="85" y="499" on="1"/>
        <pt x="105" y="558" on="0"/>
        <pt x="214" y="619" on="0"/>
        <pt x="330" y="619" on="0"/>
        <pt x="484" y="558" on="0"/>
        <pt x="569" y="558" on="0"/>
        <pt x="616" y="597" on="1"/>
        <pt x="628" y="607" on="0"/>
        <pt x="652" y="607" on="0"/>
        <pt x="664" y="599" on="1"/>
        <pt x="723" y="559" on="1"/>
        <pt x="744" y="546" on="0"/>
        <pt x="744" y="525" on="1"/>
        <pt x="744" y="516" on="0"/>
        <pt x="740" y="506" on="1"/>
      </contour>
      <contour>
        <pt x="720" y="154" on="0"/>
        <pt x="611" y="93" on="0"/>
        <pt x="495" y="93" on="0"/>
        <pt x="341" y="154" on="0"/>
        <pt x="256" y="154" on="0"/>
        <pt x="209" y="115" on="1"/>
        <pt x="197" y="105" on="0"/>
        <pt x="173" y="105" on="0"/>
        <pt x="161" y="113" on="1"/>
        <pt x="102" y="153" on="1"/>
        <pt x="81" y="166" on="0"/>
        <pt x="81" y="187" on="1"/>
        <pt x="81" y="196" on="0"/>
        <pt x="85" y="206" on="1"/>
        <pt x="105" y="265" on="0"/>
        <pt x="214" y="326" on="0"/>
        <pt x="330" y="326" on="0"/>
        <pt x="484" y="265" on="0"/>
        <pt x="569" y="265" on="0"/>
        <pt x="616" y="304" on="1"/>
        <pt x="628" y="314" on="0"/>
        <pt x="652" y="314" on="0"/>
        <pt x="664" y="306" on="1"/>
        <pt x="723" y="266" on="1"/>
        <pt x="744" y="253" on="0"/>
        <pt x="744" y="232" on="1"/>
        <pt x="744" y="223" on="0"/>
        <pt x="740" y="213" on="1"/>
      </contour>
    </TTGlyph>
    <TTGlyph name="aring" xMin="40" yMin="-16" xMax="743" yMax="842">
      <contour>
        <pt x="412" y="525" on="1"/>
        <pt x="738" y="525" on="0"/>
        <pt x="741" y="313" on="1"/>
        <pt x="743" y="223" on="0"/>
        <pt x="743" y="73" on="0"/>
        <pt x="741" y="21" on="0"/>
        <pt x="716" y="-2" on="0"/>
        <pt x="680" y="-2" on="1"/>
        <pt x="468" y="-2" on="1"/>
        <pt x="436" y="-2" on="0"/>
        <pt x="412" y="21" on="0"/>
        <pt x="411" y="44" on="1"/>
        <pt x="411" y="45" on="0"/>
        <pt x="410" y="50" on="0"/>
        <pt x="410" y="52" on="1"/>
        <pt x="344" y="-16" on="0"/>
        <pt x="230" y="-16" on="1"/>
        <pt x="151" y="-16" on="0"/>
        <pt x="40" y="63" on="0"/>
        <pt x="40" y="202" on="0"/>
        <pt x="119" y="285" on="0"/>
        <pt x="228" y="315" on="0"/>
        <pt x="353" y="315" on="0"/>
        <pt x="413" y="303" on="1"/>
        <pt x="413" y="307" on="1"/>
        <pt x="413" y="357" on="0"/>
        <pt x="374" y="401" on="0"/>
        <pt x="287" y="401" on="0"/>
        <pt x="229" y="386" on="0"/>
        <pt x="214" y="378" on="1"/>
        <pt x="173" y="354" on="0"/>
        <pt x="141" y="354" on="0"/>
        <pt x="116" y="384" on="0"/>
        <pt x="116" y="447" on="0"/>
        <pt x="139" y="471" on="0"/>
        <pt x="164" y="483" on="1"/>
        <pt x="251" y="525" on="0"/>
      </contour>
      <contour>
        <pt x="365" y="116" on="1"/>
        <pt x="409" y="116" on="0"/>
        <pt x="410" y="133" on="1"/>
        <pt x="412" y="166" on="0"/>
        <pt x="412" y="220" on="1"/>
        <pt x="412" y="241" on="0"/>
        <pt x="348" y="241" on="0"/>
        <pt x="308" y="210" on="0"/>
        <pt x="308" y="150" on="0"/>
        <pt x="341" y="116" on="0"/>
      </contour>
      <contour>
        <pt x="458" y="743" on="0"/>
        <pt x="422" y="743" on="0"/>
        <pt x="403" y="721" on="0"/>
        <pt x="403" y="691" on="0"/>
        <pt x="422" y="669" on="0"/>
        <pt x="457" y="669" on="0"/>
        <pt x="478" y="693" on="0"/>
        <pt x="478" y="723" on="0"/>
      </contour>
      <contour>
        <pt x="578" y="665" on="0"/>
        <pt x="503" y="578" on="0"/>
        <pt x="372" y="578" on="0"/>
        <pt x="301" y="663" on="0"/>
        <pt x="302" y="762" on="0"/>
        <pt x="374" y="842" on="0"/>
        <pt x="503" y="842" on="0"/>
        <pt x="577" y="766" on="0"/>
      </contour>
    </TTGlyph>
    <TTGlyph name="asciicircum" xMin="81" yMin="176" xMax="591" yMax="625">
      <contour>
        <pt x="317" y="625" on="1"/>
        <pt x="355" y="625" on="1"/>
        <pt x="389" y="625" on="0"/>
        <pt x="400" y="603" on="1"/>
        <pt x="587" y="212" on="1"/>
        <pt x="591" y="204" on="0"/>
        <pt x="591" y="192" on="0"/>
        <pt x="584" y="176" on="0"/>
        <pt x="569" y="176" on="1"/>
        <pt x="464" y="176" on="1"/>
        <pt x="451" y="176" on="0"/>
        <pt x="443" y="192" on="1"/>
        <pt x="336" y="413" on="1"/>
        <pt x="229" y="192" on="1"/>
        <pt x="221" y="176" on="0"/>
        <pt x="208" y="176" on="1"/>
        <pt x="103" y="176" on="1"/>
        <pt x="88" y="176" on="0"/>
        <pt x="81" y="192" on="0"/>
        <pt x="81" y="204" on="0"/>
        <pt x="85" y="212" on="1"/>
        <pt x="272" y="603" on="1"/>
        <pt x="283" y="625" on="0"/>
      </contour>
    </TTGlyph>
    <TTGlyph name="asciitilde" xMin="80" yMin="217" xMax="772" yMax="480">
      <contour>
        <pt x="540" y="217" on="1"/>
        <pt x="494" y="217" on="0"/>
        <pt x="328" y="314" on="0"/>
        <pt x="279" y="314" on="1"/>
        <pt x="198" y="314" on="0"/>
        <pt x="173" y="239" on="1"/>
        <pt x="169" y="227" on="0"/>
        <pt x="161" y="227" on="1"/>
        <pt x="97" y="230" on="1"/>
        <pt x="80" y="235" on="0"/>
        <pt x="80" y="257" on="1"/>
        <pt x="80" y="359" on="0"/>
        <pt x="217" y="480" on="0"/>
        <pt x="312" y="480" on="1"/>
        <pt x="370" y="480" on="0"/>
        <pt x="441" y="432" on="1"/>
        <pt x="468" y="413" on="0"/>
        <pt x="541" y="383" on="0"/>
        <pt x="573" y="383" on="1"/>
        <pt x="654" y="383" on="0"/>
        <pt x="679" y="458" on="1"/>
        <pt x="683" y="470" on="0"/>
        <pt x="691" y="470" on="1"/>
        <pt x="755" y="467" on="1"/>
        <pt x="772" y="462" on="0"/>
        <pt x="772" y="440" on="1"/>
        <pt x="772" y="338" on="0"/>
        <pt x="635" y="217" on="0"/>
      </contour>
    </TTGlyph>
    <TTGlyph name="asterisk" xMin="80" yMin="274" xMax="546" yMax="723">
      <contour>
        <pt x="104" y="481" on="1"/>
        <pt x="80" y="489" on="0"/>
        <pt x="80" y="535" on="0"/>
        <pt x="98" y="590" on="0"/>
        <pt x="121" y="619" on="0"/>
        <pt x="130" y="618" on="1"/>
        <pt x="183" y="613" on="0"/>
        <pt x="261" y="558" on="1"/>
        <pt x="242" y="626" on="0"/>
        <pt x="242" y="683" on="1"/>
        <pt x="242" y="694" on="0"/>
        <pt x="247" y="708" on="0"/>
        <pt x="280" y="723" on="0"/>
        <pt x="336" y="723" on="0"/>
        <pt x="367" y="716" on="0"/>
        <pt x="374" y="708" on="1"/>
        <pt x="383" y="698" on="0"/>
        <pt x="383" y="682" on="1"/>
        <pt x="383" y="626" on="0"/>
        <pt x="364" y="558" on="1"/>
        <pt x="415" y="594" on="0"/>
        <pt x="476" y="614" on="1"/>
        <pt x="485" y="615" on="0"/>
        <pt x="504" y="618" on="0"/>
        <pt x="528" y="589" on="0"/>
        <pt x="546" y="535" on="0"/>
        <pt x="546" y="488" on="0"/>
        <pt x="522" y="481" on="1"/>
        <pt x="471" y="464" on="0"/>
        <pt x="394" y="461" on="1"/>
        <pt x="453" y="416" on="0"/>
        <pt x="483" y="372" on="1"/>
        <pt x="490" y="362" on="0"/>
        <pt x="490" y="352" on="1"/>
        <pt x="490" y="327" on="0"/>
        <pt x="449" y="297" on="1"/>
        <pt x="417" y="274" on="0"/>
        <pt x="393" y="274" on="1"/>
        <pt x="382" y="274" on="0"/>
        <pt x="370" y="289" on="1"/>
        <pt x="335" y="337" on="0"/>
        <pt x="312" y="396" on="1"/>
        <pt x="290" y="335" on="0"/>
        <pt x="256" y="289" on="1"/>
        <pt x="244" y="274" on="0"/>
        <pt x="227" y="274" on="0"/>
        <pt x="201" y="279" on="0"/>
        <pt x="150" y="316" on="0"/>
        <pt x="131" y="348" on="0"/>
        <pt x="136" y="363" on="0"/>
        <pt x="143" y="372" on="1"/>
        <pt x="142" y="372" on="1"/>
        <pt x="174" y="416" on="0"/>
        <pt x="231" y="461" on="1"/>
        <pt x="165" y="463" on="0"/>
      </contour>
    </TTGlyph>
    <TTGlyph name="at" xMin="70" yMin="-185" xMax="1454" yMax="745">
      <contour>
        <pt x="780" y="339" on="0"/>
        <pt x="758" y="367" on="0"/>
        <pt x="722" y="367" on="0"/>
        <pt x="700" y="316" on="0"/>
        <pt x="700" y="233" on="0"/>
        <pt x="721" y="181" on="0"/>
        <pt x="755" y="181" on="0"/>
        <pt x="780" y="209" on="0"/>
        <pt x="780" y="240" on="1"/>
        <pt x="780" y="318" on="1"/>
      </contour>
      <contour>
        <pt x="911" y="500" on="1"/>
        <pt x="1026" y="499" on="1"/>
        <pt x="1052" y="499" on="0"/>
        <pt x="1092" y="473" on="0"/>
        <pt x="1092" y="450" on="1"/>
        <pt x="1092" y="180" on="1"/>
        <pt x="1092" y="146" on="0"/>
        <pt x="1119" y="146" on="1"/>
        <pt x="1152" y="146" on="0"/>
        <pt x="1199" y="261" on="0"/>
        <pt x="1199" y="339" on="1"/>
        <pt x="1199" y="478" on="0"/>
        <pt x="967" y="636" on="0"/>
        <pt x="781" y="636" on="1"/>
        <pt x="570" y="636" on="0"/>
        <pt x="326" y="441" on="0"/>
        <pt x="326" y="261" on="1"/>
        <pt x="326" y="86" on="0"/>
        <pt x="445" y="2" on="1"/>
        <pt x="508" y="-43" on="0"/>
        <pt x="701" y="-43" on="0"/>
        <pt x="768" y="11" on="1"/>
        <pt x="782" y="23" on="0"/>
        <pt x="819" y="23" on="0"/>
        <pt x="875" y="-32" on="0"/>
        <pt x="875" y="-76" on="0"/>
        <pt x="795" y="-137" on="0"/>
        <pt x="636" y="-185" on="0"/>
        <pt x="546" y="-185" on="1"/>
        <pt x="307" y="-185" on="0"/>
        <pt x="70" y="47" on="0"/>
        <pt x="70" y="255" on="1"/>
        <pt x="70" y="403" on="0"/>
        <pt x="260" y="629" on="0"/>
        <pt x="581" y="745" on="0"/>
        <pt x="780" y="745" on="1"/>
        <pt x="1076" y="745" on="0"/>
        <pt x="1258" y="654" on="1"/>
        <pt x="1352" y="607" on="0"/>
        <pt x="1454" y="444" on="0"/>
        <pt x="1454" y="332" on="1"/>
        <pt x="1454" y="27" on="0"/>
        <pt x="1024" y="27" on="1"/>
        <pt x="938" y="27" on="0"/>
        <pt x="814" y="87" on="0"/>
        <pt x="797" y="149" on="1"/>
        <pt x="784" y="108" on="0"/>
        <pt x="746" y="78" on="1"/>
        <pt x="678" y="26" on="0"/>
        <pt x="520" y="26" on="0"/>
        <pt x="408" y="140" on="0"/>
        <pt x="408" y="384" on="0"/>
        <pt x="538" y="511" on="0"/>
        <pt x="727" y="511" on="0"/>
        <pt x="770" y="438" on="1"/>
        <pt x="773" y="495" on="0"/>
        <pt x="827" y="499" on="1"/>
        <pt x="845" y="500" on="0"/>
      </contour>
    </TTGlyph>
    <TTGlyph name="atilde" xMin="50" yMin="-16" xMax="753" yMax="740">
      <contour>
        <pt x="516" y="554" on="1"/>
        <pt x="482" y="554" on="0"/>
        <pt x="395" y="613" on="0"/>
        <pt x="356" y="613" on="0"/>
        <pt x="334" y="594" on="0"/>
        <pt x="323" y="571" on="1"/>
        <pt x="314" y="562" on="0"/>
        <pt x="304" y="562" on="1"/>
        <pt x="240" y="562" on="1"/>
        <pt x="227" y="562" on="0"/>
        <pt x="227" y="585" on="1"/>
        <pt x="227" y="658" on="0"/>
        <pt x="314" y="740" on="0"/>
        <pt x="386" y="740" on="1"/>
        <pt x="420" y="740" on="0"/>
        <pt x="507" y="681" on="0"/>
        <pt x="546" y="681" on="0"/>
        <pt x="568" y="700" on="0"/>
        <pt x="579" y="723" on="1"/>
        <pt x="588" y="732" on="0"/>
        <pt x="598" y="732" on="1"/>
        <pt x="662" y="732" on="1"/>
        <pt x="675" y="732" on="0"/>
        <pt x="675" y="709" on="1"/>
        <pt x="675" y="636" on="0"/>
        <pt x="588" y="554" on="0"/>
      </contour>
      <contour>
        <pt x="422" y="525" on="1"/>
        <pt x="748" y="525" on="0"/>
        <pt x="751" y="313" on="1"/>
        <pt x="753" y="223" on="0"/>
        <pt x="753" y="73" on="0"/>
        <pt x="751" y="21" on="0"/>
        <pt x="726" y="-2" on="0"/>
        <pt x="690" y="-2" on="1"/>
        <pt x="478" y="-2" on="1"/>
        <pt x="446" y="-2" on="0"/>
        <pt x="422" y="21" on="0"/>
        <pt x="421" y="44" on="1"/>
        <pt x="421" y="45" on="0"/>
        <pt x="420" y="50" on="0"/>
        <pt x="420" y="52" on="1"/>
        <pt x="354" y="-16" on="0"/>
        <pt x="240" y="-16" on="1"/>
        <pt x="161" y="-16" on="0"/>
        <pt x="50" y="63" on="0"/>
        <pt x="50" y="202" on="0"/>
        <pt x="129" y="285" on="0"/>
        <pt x="238" y="315" on="0"/>
        <pt x="363" y="315" on="0"/>
        <pt x="423" y="303" on="1"/>
        <pt x="423" y="307" on="1"/>
        <pt x="423" y="357" on="0"/>
        <pt x="384" y="401" on="0"/>
        <pt x="297" y="401" on="0"/>
        <pt x="239" y="386" on="0"/>
        <pt x="224" y="378" on="1"/>
        <pt x="183" y="354" on="0"/>
        <pt x="151" y="354" on="0"/>
        <pt x="126" y="384" on="0"/>
        <pt x="126" y="447" on="0"/>
        <pt x="149" y="471" on="0"/>
        <pt x="174" y="483" on="1"/>
        <pt x="261" y="525" on="0"/>
      </contour>
      <contour>
        <pt x="375" y="116" on="1"/>
        <pt x="419" y="116" on="0"/>
        <pt x="420" y="133" on="1"/>
        <pt x="422" y="166" on="0"/>
        <pt x="422" y="220" on="1"/>
        <pt x="422" y="241" on="0"/>
        <pt x="358" y="241" on="0"/>
        <pt x="318" y="210" on="0"/>
        <pt x="318" y="150" on="0"/>
        <pt x="351" y="116" on="0"/>
      </contour>
    </TTGlyph>
    <TTGlyph name="b" xMin="60" yMin="-13" xMax="781" yMax="731">
      <contour>
        <pt x="438" y="152" on="1"/>
        <pt x="497" y="152" on="0"/>
        <pt x="497" y="347" on="0"/>
        <pt x="438" y="347" on="1"/>
        <pt x="415" y="347" on="0"/>
        <pt x="378" y="316" on="0"/>
        <pt x="378" y="288" on="1"/>
        <pt x="378" y="211" on="1"/>
        <pt x="378" y="183" on="0"/>
        <pt x="415" y="152" on="0"/>
      </contour>
      <contour>
        <pt x="62" y="47" on="1"/>
        <pt x="60" y="374" on="1"/>
        <pt x="60" y="524" on="0"/>
        <pt x="63" y="666" on="1"/>
        <pt x="64" y="699" on="0"/>
        <pt x="87" y="731" on="0"/>
        <pt x="120" y="731" on="1"/>
        <pt x="312" y="731" on="1"/>
        <pt x="345" y="731" on="0"/>
        <pt x="368" y="700" on="0"/>
        <pt x="375" y="596" on="0"/>
        <pt x="375" y="464" on="1"/>
        <pt x="375" y="458" on="0"/>
        <pt x="381" y="451" on="0"/>
        <pt x="387" y="456" on="1"/>
        <pt x="457" y="522" on="0"/>
        <pt x="656" y="522" on="0"/>
        <pt x="781" y="395" on="0"/>
        <pt x="781" y="110" on="0"/>
        <pt x="655" y="-13" on="0"/>
        <pt x="553" y="-13" on="1"/>
        <pt x="403" y="-13" on="0"/>
        <pt x="363" y="56" on="1"/>
        <pt x="362" y="30" on="0"/>
        <pt x="326" y="2" on="0"/>
        <pt x="282" y="-2" on="0"/>
        <pt x="224" y="-2" on="1"/>
        <pt x="118" y="0" on="1"/>
        <pt x="99" y="0" on="0"/>
        <pt x="62" y="27" on="0"/>
      </contour>
    </TTGlyph>
    <TTGlyph name="backslash" xMin="75" yMin="-178" xMax="643" yMax="864">
      <contour>
        <pt x="75" y="834" on="1"/>
        <pt x="75" y="864" on="0"/>
        <pt x="117" y="864" on="1"/>
        <pt x="235" y="864" on="1"/>
        <pt x="265" y="864" on="0"/>
        <pt x="298" y="838" on="0"/>
        <pt x="328" y="768" on="0"/>
        <pt x="491" y="310" on="0"/>
        <pt x="612" y="-30" on="0"/>
        <pt x="638" y="-124" on="1"/>
        <pt x="643" y="-138" on="0"/>
        <pt x="643" y="-148" on="1"/>
        <pt x="643" y="-178" on="0"/>
        <pt x="601" y="-178" on="1"/>
        <pt x="483" y="-178" on="1"/>
        <pt x="453" y="-178" on="0"/>
        <pt x="420" y="-152" on="0"/>
        <pt x="408" y="-124" on="1"/>
        <pt x="366" y="-26" on="0"/>
        <pt x="238" y="343" on="1"/>
        <pt x="113" y="694" on="0"/>
        <pt x="80" y="810" on="1"/>
        <pt x="75" y="824" on="0"/>
      </contour>
    </TTGlyph>
    <TTGlyph name="bar" xMin="60" yMin="-178" xMax="292" yMax="864">
      <contour>
        <pt x="60" y="-42" on="0"/>
        <pt x="60" y="728" on="0"/>
        <pt x="66" y="810" on="1"/>
        <pt x="68" y="838" on="0"/>
        <pt x="92" y="864" on="0"/>
        <pt x="122" y="864" on="1"/>
        <pt x="230" y="864" on="1"/>
        <pt x="260" y="864" on="0"/>
        <pt x="284" y="838" on="0"/>
        <pt x="286" y="810" on="1"/>
        <pt x="292" y="728" on="0"/>
        <pt x="292" y="-42" on="0"/>
        <pt x="286" y="-124" on="1"/>
        <pt x="284" y="-152" on="0"/>
        <pt x="260" y="-178" on="0"/>
        <pt x="230" y="-178" on="1"/>
        <pt x="122" y="-178" on="1"/>
        <pt x="92" y="-178" on="0"/>
        <pt x="68" y="-152" on="0"/>
        <pt x="66" y="-124" on="1"/>
      </contour>
    </TTGlyph>
    <TTGlyph name="braceleft" xMin="40" yMin="-171" xMax="498" yMax="865">
      <contour>
        <pt x="356" y="647" on="1"/>
        <pt x="357" y="497" on="1"/>
        <pt x="357" y="372" on="0"/>
        <pt x="281" y="351" on="1"/>
        <pt x="357" y="320" on="0"/>
        <pt x="357" y="197" on="1"/>
        <pt x="356" y="47" on="1"/>
        <pt x="356" y="13" on="0"/>
        <pt x="396" y="-27" on="0"/>
        <pt x="445" y="-34" on="1"/>
        <pt x="471" y="-38" on="0"/>
        <pt x="498" y="-74" on="0"/>
        <pt x="498" y="-98" on="1"/>
        <pt x="498" y="-171" on="0"/>
        <pt x="383" y="-171" on="1"/>
        <pt x="233" y="-171" on="0"/>
        <pt x="94" y="-49" on="0"/>
        <pt x="94" y="48" on="1"/>
        <pt x="94" y="120" on="0"/>
        <pt x="136" y="194" on="1"/>
        <pt x="151" y="220" on="0"/>
        <pt x="151" y="263" on="0"/>
        <pt x="113" y="297" on="0"/>
        <pt x="61" y="297" on="0"/>
        <pt x="40" y="330" on="0"/>
        <pt x="40" y="364" on="0"/>
        <pt x="61" y="397" on="0"/>
        <pt x="113" y="397" on="0"/>
        <pt x="151" y="431" on="0"/>
        <pt x="151" y="473" on="0"/>
        <pt x="123" y="525" on="0"/>
        <pt x="94" y="599" on="0"/>
        <pt x="94" y="646" on="1"/>
        <pt x="94" y="743" on="0"/>
        <pt x="233" y="865" on="0"/>
        <pt x="383" y="865" on="1"/>
        <pt x="498" y="865" on="0"/>
        <pt x="498" y="792" on="1"/>
        <pt x="498" y="768" on="0"/>
        <pt x="471" y="732" on="0"/>
        <pt x="445" y="728" on="1"/>
        <pt x="396" y="721" on="0"/>
        <pt x="356" y="681" on="0"/>
      </contour>
    </TTGlyph>
    <TTGlyph name="braceright" xMin="41" yMin="-171" xMax="499" yMax="865">
      <contour>
        <pt x="183" y="47" on="1"/>
        <pt x="182" y="197" on="1"/>
        <pt x="182" y="320" on="0"/>
        <pt x="258" y="351" on="1"/>
        <pt x="182" y="372" on="0"/>
        <pt x="182" y="497" on="1"/>
        <pt x="183" y="647" on="1"/>
        <pt x="183" y="681" on="0"/>
        <pt x="143" y="721" on="0"/>
        <pt x="94" y="728" on="1"/>
        <pt x="68" y="732" on="0"/>
        <pt x="41" y="768" on="0"/>
        <pt x="41" y="792" on="1"/>
        <pt x="41" y="865" on="0"/>
        <pt x="156" y="865" on="1"/>
        <pt x="306" y="865" on="0"/>
        <pt x="445" y="743" on="0"/>
        <pt x="445" y="646" on="1"/>
        <pt x="445" y="599" on="0"/>
        <pt x="416" y="525" on="0"/>
        <pt x="388" y="473" on="0"/>
        <pt x="388" y="431" on="0"/>
        <pt x="426" y="397" on="0"/>
        <pt x="478" y="397" on="0"/>
        <pt x="499" y="364" on="0"/>
        <pt x="499" y="330" on="0"/>
        <pt x="478" y="297" on="0"/>
        <pt x="426" y="297" on="0"/>
        <pt x="388" y="263" on="0"/>
        <pt x="388" y="220" on="0"/>
        <pt x="402" y="194" on="1"/>
        <pt x="445" y="116" on="0"/>
        <pt x="445" y="48" on="1"/>
        <pt x="445" y="-49" on="0"/>
        <pt x="306" y="-171" on="0"/>
        <pt x="156" y="-171" on="1"/>
        <pt x="41" y="-171" on="0"/>
        <pt x="41" y="-98" on="1"/>
        <pt x="41" y="-74" on="0"/>
        <pt x="68" y="-38" on="0"/>
        <pt x="94" y="-34" on="1"/>
        <pt x="143" y="-27" on="0"/>
        <pt x="183" y="13" on="0"/>
      </contour>
    </TTGlyph>
    <TTGlyph name="bracketleft" xMin="60" yMin="-178" xMax="463" yMax="864">
      <contour>
        <pt x="64" y="-95" on="1"/>
        <pt x="60" y="343" on="1"/>
        <pt x="64" y="781" on="1"/>
        <pt x="64" y="818" on="0"/>
        <pt x="108" y="862" on="0"/>
        <pt x="137" y="864" on="1"/>
        <pt x="230" y="864" on="1"/>
        <pt x="244" y="863" on="1"/>
        <pt x="403" y="862" on="1"/>
        <pt x="463" y="862" on="0"/>
        <pt x="463" y="773" on="1"/>
        <pt x="463" y="728" on="0"/>
        <pt x="410" y="728" on="1"/>
        <pt x="334" y="728" on="1"/>
        <pt x="291" y="728" on="0"/>
        <pt x="289" y="693" on="1"/>
        <pt x="284" y="505" on="0"/>
        <pt x="284" y="200" on="0"/>
        <pt x="289" y="-7" on="1"/>
        <pt x="291" y="-42" on="0"/>
        <pt x="334" y="-42" on="1"/>
        <pt x="410" y="-42" on="1"/>
        <pt x="463" y="-42" on="0"/>
        <pt x="463" y="-87" on="1"/>
        <pt x="463" y="-176" on="0"/>
        <pt x="403" y="-176" on="1"/>
        <pt x="244" y="-177" on="1"/>
        <pt x="230" y="-178" on="1"/>
        <pt x="137" y="-178" on="1"/>
        <pt x="108" y="-176" on="0"/>
        <pt x="64" y="-132" on="0"/>
      </contour>
    </TTGlyph>
    <TTGlyph name="bracketright" xMin="60" yMin="-178" xMax="463" yMax="864">
      <contour>
        <pt x="459" y="781" on="1"/>
        <pt x="463" y="343" on="1"/>
        <pt x="459" y="-95" on="1"/>
        <pt x="459" y="-132" on="0"/>
        <pt x="415" y="-176" on="0"/>
        <pt x="386" y="-178" on="1"/>
        <pt x="293" y="-178" on="1"/>
        <pt x="279" y="-177" on="1"/>
        <pt x="120" y="-176" on="1"/>
        <pt x="60" y="-176" on="0"/>
        <pt x="60" y="-87" on="1"/>
        <pt x="60" y="-42" on="0"/>
        <pt x="113" y="-42" on="1"/>
        <pt x="189" y="-42" on="1"/>
        <pt x="232" y="-42" on="0"/>
        <pt x="234" y="-7" on="1"/>
        <pt x="239" y="200" on="0"/>
        <pt x="239" y="505" on="0"/>
        <pt x="234" y="693" on="1"/>
        <pt x="232" y="728" on="0"/>
        <pt x="189" y="728" on="1"/>
        <pt x="113" y="728" on="1"/>
        <pt x="60" y="728" on="0"/>
        <pt x="60" y="773" on="1"/>
        <pt x="60" y="862" on="0"/>
        <pt x="120" y="862" on="1"/>
        <pt x="279" y="863" on="1"/>
        <pt x="293" y="864" on="1"/>
        <pt x="386" y="864" on="1"/>
        <pt x="415" y="862" on="0"/>
        <pt x="459" y="818" on="0"/>
      </contour>
    </TTGlyph>
    <TTGlyph name="breve" xMin="298" yMin="740" xMax="650" yMax="966">
      <contour>
        <pt x="650" y="845" on="0"/>
        <pt x="554" y="740" on="0"/>
        <pt x="393" y="740" on="0"/>
        <pt x="298" y="845" on="0"/>
        <pt x="298" y="938" on="1"/>
        <pt x="298" y="950" on="0"/>
        <pt x="304" y="960" on="0"/>
        <pt x="313" y="963" on="1"/>
        <pt x="365" y="966" on="1"/>
        <pt x="376" y="966" on="0"/>
        <pt x="381" y="955" on="1"/>
        <pt x="392" y="930" on="0"/>
        <pt x="407" y="906" on="0"/>
        <pt x="445" y="882" on="0"/>
        <pt x="501" y="882" on="0"/>
        <pt x="540" y="906" on="0"/>
        <pt x="555" y="930" on="0"/>
        <pt x="566" y="955" on="1"/>
        <pt x="572" y="966" on="0"/>
        <pt x="582" y="966" on="1"/>
        <pt x="635" y="963" on="1"/>
        <pt x="644" y="960" on="0"/>
        <pt x="650" y="950" on="0"/>
        <pt x="650" y="938" on="1"/>
      </contour>
    </TTGlyph>
    <TTGlyph name="brokenbar" xMin="60" yMin="-178" xMax="292" yMax="864">
      <contour>
        <pt x="60" y="216" on="1"/>
        <pt x="60" y="258" on="0"/>
        <pt x="104" y="258" on="1"/>
        <pt x="248" y="258" on="1"/>
        <pt x="292" y="258" on="0"/>
        <pt x="292" y="216" on="1"/>
        <pt x="290" y="-74" on="0"/>
        <pt x="284" y="-152" on="0"/>
        <pt x="260" y="-178" on="0"/>
        <pt x="230" y="-178" on="1"/>
        <pt x="122" y="-178" on="1"/>
        <pt x="92" y="-178" on="0"/>
        <pt x="68" y="-152" on="0"/>
        <pt x="66" y="-124" on="1"/>
        <pt x="60" y="-43" on="0"/>
      </contour>
      <contour>
        <pt x="60" y="469" on="1"/>
        <pt x="60" y="729" on="0"/>
        <pt x="66" y="810" on="1"/>
        <pt x="68" y="838" on="0"/>
        <pt x="92" y="864" on="0"/>
        <pt x="122" y="864" on="1"/>
        <pt x="230" y="864" on="1"/>
        <pt x="260" y="864" on="0"/>
        <pt x="284" y="838" on="0"/>
        <pt x="286" y="810" on="1"/>
        <pt x="292" y="729" on="0"/>
        <pt x="292" y="469" on="1"/>
        <pt x="292" y="427" on="0"/>
        <pt x="248" y="427" on="1"/>
        <pt x="104" y="427" on="1"/>
        <pt x="60" y="427" on="0"/>
      </contour>
    </TTGlyph>
    <TTGlyph name="bullet" xMin="80" yMin="86" xMax="637" yMax="617">
      <contour>
        <pt x="376" y="86" on="1"/>
        <pt x="236" y="86" on="0"/>
        <pt x="80" y="243" on="0"/>
        <pt x="80" y="458" on="0"/>
        <pt x="237" y="617" on="0"/>
        <pt x="501" y="617" on="0"/>
        <pt x="637" y="474" on="0"/>
        <pt x="637" y="373" on="1"/>
        <pt x="637" y="302" on="0"/>
        <pt x="578" y="174" on="0"/>
        <pt x="456" y="86" on="0"/>
      </contour>
    </TTGlyph>
    <TTGlyph name="c" xMin="50" yMin="-23" xMax="646" yMax="518">
      <contour>
        <pt x="480" y="365" on="1"/>
        <pt x="433" y="365" on="0"/>
        <pt x="387" y="303" on="0"/>
        <pt x="387" y="211" on="0"/>
        <pt x="441" y="145" on="0"/>
        <pt x="501" y="145" on="1"/>
        <pt x="520" y="145" on="0"/>
        <pt x="594" y="165" on="0"/>
        <pt x="609" y="165" on="1"/>
        <pt x="644" y="165" on="0"/>
        <pt x="646" y="98" on="1"/>
        <pt x="646" y="69" on="0"/>
        <pt x="639" y="19" on="0"/>
        <pt x="605" y="8" on="1"/>
        <pt x="505" y="-23" on="0"/>
        <pt x="352" y="-23" on="0"/>
        <pt x="255" y="-12" on="0"/>
        <pt x="156" y="22" on="0"/>
        <pt x="91" y="78" on="0"/>
        <pt x="50" y="173" on="0"/>
        <pt x="50" y="318" on="0"/>
        <pt x="113" y="432" on="0"/>
        <pt x="168" y="462" on="1"/>
        <pt x="272" y="518" on="0"/>
        <pt x="428" y="518" on="1"/>
        <pt x="512" y="518" on="0"/>
        <pt x="599" y="491" on="1"/>
        <pt x="636" y="479" on="0"/>
        <pt x="636" y="342" on="0"/>
        <pt x="601" y="342" on="1"/>
        <pt x="586" y="342" on="0"/>
        <pt x="507" y="365" on="0"/>
      </contour>
    </TTGlyph>
    <TTGlyph name="caron" xMin="103" yMin="722" xMax="523" yMax="927">
      <contour>
        <pt x="346" y="722" on="1"/>
        <pt x="280" y="722" on="1"/>
        <pt x="260" y="722" on="0"/>
        <pt x="225" y="752" on="1"/>
        <pt x="108" y="854" on="1"/>
        <pt x="103" y="862" on="0"/>
        <pt x="103" y="870" on="1"/>
        <pt x="103" y="900" on="0"/>
        <pt x="126" y="927" on="0"/>
        <pt x="143" y="927" on="0"/>
        <pt x="149" y="924" on="1"/>
        <pt x="313" y="850" on="1"/>
        <pt x="477" y="924" on="1"/>
        <pt x="483" y="927" on="0"/>
        <pt x="500" y="927" on="0"/>
        <pt x="522" y="901" on="0"/>
        <pt x="523" y="879" on="0"/>
        <pt x="523" y="862" on="0"/>
        <pt x="518" y="854" on="1"/>
        <pt x="401" y="752" on="1"/>
        <pt x="366" y="722" on="0"/>
      </contour>
    </TTGlyph>
    <TTGlyph name="ccedilla" xMin="50" yMin="-174" xMax="646" yMax="518">
      <contour>
        <pt x="296" y="-105" on="1"/>
        <pt x="310" y="-106" on="1"/>
        <pt x="347" y="-106" on="0"/>
        <pt x="347" y="-88" on="1"/>
        <pt x="347" y="-74" on="0"/>
        <pt x="298" y="-55" on="0"/>
        <pt x="298" y="-39" on="1"/>
        <pt x="298" y="-28" on="0"/>
        <pt x="304" y="-21" on="1"/>
        <pt x="304" y="-17" on="1"/>
        <pt x="119" y="6" on="0"/>
        <pt x="70" y="126" on="1"/>
        <pt x="50" y="173" on="0"/>
        <pt x="50" y="318" on="0"/>
        <pt x="113" y="432" on="0"/>
        <pt x="168" y="462" on="1"/>
        <pt x="272" y="518" on="0"/>
        <pt x="428" y="518" on="1"/>
        <pt x="512" y="518" on="0"/>
        <pt x="599" y="491" on="1"/>
        <pt x="636" y="479" on="0"/>
        <pt x="636" y="342" on="0"/>
        <pt x="601" y="342" on="1"/>
        <pt x="586" y="342" on="0"/>
        <pt x="507" y="365" on="0"/>
        <pt x="480" y="365" on="1"/>
        <pt x="433" y="365" on="0"/>
        <pt x="387" y="303" on="0"/>
        <pt x="387" y="211" on="0"/>
        <pt x="441" y="145" on="0"/>
        <pt x="501" y="145" on="1"/>
        <pt x="520" y="145" on="0"/>
        <pt x="594" y="165" on="0"/>
        <pt x="609" y="165" on="1"/>
        <pt x="644" y="165" on="0"/>
        <pt x="646" y="98" on="1"/>
        <pt x="646" y="69" on="0"/>
        <pt x="639" y="19" on="0"/>
        <pt x="605" y="8" on="1"/>
        <pt x="516" y="-20" on="0"/>
        <pt x="425" y="-23" on="1"/>
        <pt x="425" y="-25" on="0"/>
        <pt x="427" y="-26" on="1"/>
        <pt x="480" y="-41" on="0"/>
        <pt x="480" y="-98" on="1"/>
        <pt x="480" y="-126" on="0"/>
        <pt x="424" y="-172" on="0"/>
        <pt x="372" y="-174" on="1"/>
        <pt x="360" y="-174" on="1"/>
        <pt x="281" y="-174" on="0"/>
        <pt x="281" y="-154" on="1"/>
        <pt x="281" y="-106" on="0"/>
      </contour>
    </TTGlyph>
    <TTGlyph name="cedilla" xMin="281" yMin="-174" xMax="480" yMax="-17">
      <contour>
        <pt x="296" y="-105" on="1"/>
        <pt x="310" y="-106" on="1"/>
        <pt x="347" y="-106" on="0"/>
        <pt x="347" y="-88" on="1"/>
        <pt x="347" y="-74" on="0"/>
        <pt x="298" y="-55" on="0"/>
        <pt x="298" y="-25" on="0"/>
        <pt x="309" y="-17" on="1"/>
        <pt x="412" y="-23" on="1"/>
        <pt x="480" y="-35" on="0"/>
        <pt x="480" y="-98" on="1"/>
        <pt x="480" y="-126" on="0"/>
        <pt x="424" y="-172" on="0"/>
        <pt x="372" y="-174" on="1"/>
        <pt x="360" y="-174" on="1"/>
        <pt x="281" y="-174" on="0"/>
        <pt x="281" y="-154" on="1"/>
        <pt x="281" y="-106" on="0"/>
      </contour>
    </TTGlyph>
    <TTGlyph name="cent" xMin="38" yMin="-1" xMax="634" yMax="702">
      <contour>
        <pt x="467" y="457" on="1"/>
        <pt x="420" y="457" on="0"/>
        <pt x="375" y="398" on="0"/>
        <pt x="375" y="311" on="0"/>
        <pt x="429" y="250" on="0"/>
        <pt x="489" y="250" on="1"/>
        <pt x="508" y="250" on="0"/>
        <pt x="582" y="268" on="0"/>
        <pt x="597" y="268" on="1"/>
        <pt x="632" y="268" on="0"/>
        <pt x="634" y="206" on="1"/>
        <pt x="634" y="178" on="0"/>
        <pt x="627" y="132" on="0"/>
        <pt x="593" y="122" on="1"/>
        <pt x="514" y="98" on="0"/>
        <pt x="430" y="93" on="1"/>
        <pt x="429" y="77" on="0"/>
        <pt x="427" y="25" on="0"/>
        <pt x="403" y="-1" on="0"/>
        <pt x="373" y="-1" on="1"/>
        <pt x="315" y="-1" on="1"/>
        <pt x="285" y="-1" on="0"/>
        <pt x="261" y="25" on="0"/>
        <pt x="259" y="53" on="1"/>
        <pt x="256" y="103" on="1"/>
        <pt x="38" y="140" on="0"/>
        <pt x="38" y="537" on="0"/>
        <pt x="257" y="586" on="1"/>
        <pt x="257" y="624" on="1"/>
        <pt x="257" y="672" on="0"/>
        <pt x="285" y="702" on="0"/>
        <pt x="315" y="702" on="1"/>
        <pt x="373" y="702" on="1"/>
        <pt x="403" y="702" on="0"/>
        <pt x="415" y="689" on="1"/>
        <pt x="431" y="672" on="0"/>
        <pt x="431" y="627" on="1"/>
        <pt x="431" y="602" on="1"/>
        <pt x="509" y="599" on="0"/>
        <pt x="586" y="576" on="1"/>
        <pt x="623" y="565" on="0"/>
        <pt x="623" y="507" on="1"/>
        <pt x="623" y="479" on="0"/>
        <pt x="606" y="435" on="0"/>
        <pt x="573" y="435" on="0"/>
        <pt x="494" y="457" on="0"/>
      </contour>
    </TTGlyph>
    <TTGlyph name="circumflex" xMin="71" yMin="540" xMax="491" yMax="745">
      <contour>
        <pt x="248" y="745" on="1"/>
        <pt x="314" y="745" on="1"/>
        <pt x="334" y="745" on="0"/>
        <pt x="369" y="715" on="1"/>
        <pt x="486" y="613" on="1"/>
        <pt x="491" y="605" on="0"/>
        <pt x="491" y="596" on="1"/>
        <pt x="491" y="567" on="0"/>
        <pt x="468" y="540" on="0"/>
        <pt x="451" y="540" on="0"/>
        <pt x="445" y="543" on="1"/>
        <pt x="281" y="617" on="1"/>
        <pt x="117" y="543" on="1"/>
        <pt x="111" y="540" on="0"/>
        <pt x="94" y="540" on="0"/>
        <pt x="72" y="566" on="0"/>
        <pt x="71" y="588" on="0"/>
        <pt x="71" y="605" on="0"/>
        <pt x="76" y="613" on="1"/>
        <pt x="193" y="715" on="1"/>
        <pt x="228" y="745" on="0"/>
      </contour>
    </TTGlyph>
    <TTGlyph name="colon" xMin="60" yMin="-12" xMax="309" yMax="663">
      <contour>
        <pt x="60" y="144" on="0"/>
        <pt x="131" y="212" on="0"/>
        <pt x="251" y="212" on="0"/>
        <pt x="309" y="146" on="0"/>
        <pt x="309" y="59" on="0"/>
        <pt x="239" y="-12" on="0"/>
        <pt x="134" y="-12" on="0"/>
        <pt x="60" y="47" on="0"/>
      </contour>
      <contour>
        <pt x="60" y="595" on="0"/>
        <pt x="131" y="663" on="0"/>
        <pt x="251" y="663" on="0"/>
        <pt x="309" y="597" on="0"/>
        <pt x="309" y="510" on="0"/>
        <pt x="239" y="439" on="0"/>
        <pt x="134" y="439" on="0"/>
        <pt x="60" y="498" on="0"/>
      </contour>
    </TTGlyph>
    <TTGlyph name="comma" xMin="49" yMin="-125" xMax="309" yMax="211">
      <contour>
        <pt x="119" y="1" on="1"/>
        <pt x="60" y="24" on="0"/>
        <pt x="60" y="103" on="1"/>
        <pt x="60" y="153" on="0"/>
        <pt x="137" y="211" on="0"/>
        <pt x="239" y="211" on="0"/>
        <pt x="309" y="154" on="0"/>
        <pt x="309" y="101" on="1"/>
        <pt x="309" y="12" on="0"/>
        <pt x="172" y="-125" on="0"/>
        <pt x="82" y="-125" on="1"/>
        <pt x="72" y="-125" on="0"/>
        <pt x="49" y="-93" on="0"/>
        <pt x="49" y="-70" on="0"/>
        <pt x="56" y="-66" on="1"/>
        <pt x="108" y="-39" on="0"/>
      </contour>
    </TTGlyph>
    <TTGlyph name="commaaccent" xMin="70" yMin="-215" xMax="312" yMax="-35">
      <contour>
        <pt x="93" y="-215" on="0"/>
        <pt x="70" y="-183" on="0"/>
        <pt x="70" y="-159" on="0"/>
        <pt x="81" y="-155" on="1"/>
        <pt x="146" y="-133" on="0"/>
        <pt x="155" y="-82" on="1"/>
        <pt x="159" y="-60" on="0"/>
        <pt x="163" y="-54" on="1"/>
        <pt x="176" y="-35" on="0"/>
        <pt x="220" y="-35" on="1"/>
        <pt x="269" y="-35" on="1"/>
        <pt x="312" y="-35" on="0"/>
        <pt x="312" y="-73" on="1"/>
        <pt x="312" y="-101" on="0"/>
        <pt x="263" y="-167" on="0"/>
        <pt x="147" y="-215" on="0"/>
        <pt x="103" y="-215" on="1"/>
      </contour>
    </TTGlyph>
    <TTGlyph name="copyright" xMin="40" yMin="-20" xMax="809" yMax="723">
      <contour>
        <pt x="671" y="50" on="0"/>
        <pt x="528" y="-20" on="0"/>
        <pt x="345" y="-20" on="0"/>
        <pt x="188" y="43" on="0"/>
        <pt x="91" y="149" on="0"/>
        <pt x="40" y="280" on="0"/>
        <pt x="40" y="422" on="0"/>
        <pt x="92" y="553" on="0"/>
        <pt x="189" y="659" on="0"/>
        <pt x="345" y="723" on="0"/>
        <pt x="562" y="723" on="0"/>
        <pt x="732" y="621" on="0"/>
        <pt x="809" y="466" on="0"/>
        <pt x="809" y="302" on="0"/>
        <pt x="760" y="163" on="0"/>
      </contour>
      <contour>
        <pt x="571" y="193" on="1"/>
        <pt x="523" y="177" on="0"/>
        <pt x="311" y="177" on="0"/>
        <pt x="204" y="265" on="0"/>
        <pt x="204" y="449" on="0"/>
        <pt x="331" y="541" on="0"/>
        <pt x="526" y="541" on="0"/>
        <pt x="567" y="529" on="1"/>
        <pt x="592" y="521" on="0"/>
        <pt x="592" y="466" on="0"/>
        <pt x="579" y="437" on="0"/>
        <pt x="561" y="438" on="1"/>
        <pt x="508" y="446" on="0"/>
        <pt x="501" y="446" on="1"/>
        <pt x="464" y="446" on="0"/>
        <pt x="425" y="401" on="0"/>
        <pt x="425" y="337" on="0"/>
        <pt x="462" y="288" on="0"/>
        <pt x="515" y="286" on="0"/>
        <pt x="568" y="286" on="1"/>
        <pt x="593" y="286" on="0"/>
        <pt x="597" y="260" on="1"/>
        <pt x="598" y="249" on="0"/>
        <pt x="598" y="228" on="0"/>
        <pt x="597" y="218" on="1"/>
        <pt x="593" y="199" on="0"/>
      </contour>
      <contour>
        <pt x="442" y="80" on="1"/>
        <pt x="524" y="80" on="0"/>
        <pt x="649" y="169" on="0"/>
        <pt x="709" y="301" on="0"/>
        <pt x="709" y="373" on="1"/>
        <pt x="709" y="477" on="0"/>
        <pt x="570" y="623" on="0"/>
        <pt x="300" y="623" on="0"/>
        <pt x="140" y="461" on="0"/>
        <pt x="140" y="240" on="0"/>
        <pt x="299" y="80" on="0"/>
      </contour>
    </TTGlyph>
</ttFont>
